<?xml version="1.0" encoding="utf-8"?>
<!-- Generator: Adobe Illustrator 24.0.1, SVG Export Plug-In . SVG Version: 6.00 Build 0)  -->
<svg version="1.1" id="Layer_1" xmlns="http://www.w3.org/2000/svg" xmlns:xlink="http://www.w3.org/1999/xlink" x="0px" y="0px"
	 viewBox="0 0 1366 327" style="enable-background:new 0 0 1366 327;" xml:space="preserve">
<style type="text/css">
	.st0{display:none;}
	.st1{display:inline;}
	.st2{fill:#F2E6E6;}
	.st3{fill:none;stroke:#DD2525;stroke-width:2;stroke-miterlimit:10;}
</style>
<g class="st0">
	<path class="st1" d="M267.6-59.9c0,1.3-1.2,2.2-3.8,2.9c-5,1.2-10.8,3-14.2,4.1c-1.7,0.6-2.8,1-3.9,1c-1.5,0-2.9-0.8-2.9-3.8v-4.5
		c0-0.8-0.3-1.2-0.8-1.2c-0.3,0-0.7,0.2-1,0.7c-4.1,5.1-10.6,8.8-17.6,8.8c-13.8,0-23.2-12.2-23.2-27.3c0-16.5,10.6-33.4,29.1-33.4
		c4.4,0,8.7,1,12.1,2.5c0.6,0.2,0.8,0.3,1,0.3c0.3,0,0.4-0.2,0.4-0.8v-3.6c0-3.2-0.1-5.6-0.8-7.4s-1.9-2.8-4.1-3.7
		c-1.1-0.4-3.5-1.1-3.5-3c0-1.7,1.2-2.5,3.8-3.1c5-1.2,11.3-3,15.2-4.5c0.7-0.2,1.8-0.7,2.9-0.7c1.5,0,2.9,0.8,2.9,3.8v58.5
		c0,3.2,0.1,5.6,0.8,7.4c0.7,1.8,1.9,2.8,4,3.7C265.3-62.5,267.6-61.9,267.6-59.9z M242.9-83.3c0-13.3-5.2-20.6-12.8-20.6
		c-9.7,0-12.4,11.4-12.4,20c0,11.6,4.8,20.1,12.9,20.1C237.1-63.9,242.9-69.9,242.9-83.3z"/>
	<path class="st1" d="M326.8-65.4c0,2.5-3.3,6-6.7,8.3c-5,3.3-11.7,5.4-18.4,5.4c-16.3,0-28.6-11.3-28.6-28.8
		c0-16.7,12.4-31.9,29.8-31.9c12.6,0,25,8.8,25,22.8c0,6.5-2.9,7.5-9.5,7.5h-26.8c-0.7,0-1.2,0.2-1.2,1c0,0.2,0,0.4,0.1,1.3
		c0.1,1.1,0.6,4.7,2.9,8.4c3.8,5.9,9.6,8.4,16.3,8.4c8.8,0,11.9-4.6,14.6-4.6C325.5-67.8,326.8-66.8,326.8-65.4z M290.3-91.5
		c0,0.6,0.3,1,1.1,1c0.2,0,12.9,0,12.9,0c4,0,7-0.7,7-4.9c0-4.1-3.3-8.7-9-8.7c-6.2,0-10.7,4.6-11.9,11.6
		C290.3-91.9,290.3-91.8,290.3-91.5z"/>
	<path class="st1" d="M379.4-57.6c-4.1,3.3-10.4,5.8-18.2,5.8c-16.4,0-27.3-11-27.3-27.4c0-18.3,12.7-33.2,32.2-33.2
		c4.4,0,11.4,0.7,14.7,4.4c1.8,2,2.5,5,2.5,7.7c0,4.2-0.8,7.9-4.7,7.9c-3,0-4-3-6.1-5.9s-4.4-5.9-9-5.9c-7.7,0-12.7,7.8-12.7,17.9
		c0,10.9,5.5,23.4,17.9,23.4c7.3,0,11.6-4.8,14.3-4.8c1.1,0,2.3,0.8,2.3,2.3C385.2-63.7,383.1-60.6,379.4-57.6z"/>
	<path class="st1" d="M423.8-56c0,1.9-1.9,2.9-4.4,2.9h-24c-2.5,0-4.4-1-4.4-2.9c0-1.7,1.2-2.3,2.8-3.2c2.1-1.2,3.5-2.9,4.1-4.8
		c0.6-1.6,1.1-3.9,1.1-11.7v-14.5c0-3.2-0.1-5.6-0.8-7.4c-0.7-1.8-1.9-2.8-4.1-3.7c-1.2-0.6-3.5-1.1-3.5-3.1c0-1.6,1.1-2.3,3.7-3
		c5.1-1.2,11.5-3,15.5-4.5c0.7-0.2,1.8-0.7,2.9-0.7c1.5,0,2.9,0.8,2.9,3.8c0,0,0,29.3,0,33c0,7.7,0.6,10.2,1.1,11.7
		c0.7,1.9,2,3.6,4.1,4.8C422.5-58.3,423.8-57.7,423.8-56z M407.5-116.4c-3.5,0-10.7-7.4-10.7-10.7s7.3-10.6,10.7-10.6
		c3.3,0,10.6,7.3,10.6,10.6C418.1-123.7,410.9-116.4,407.5-116.4z"/>
	<path class="st1" d="M433.6-74.1c2.5,0,3.8,2.1,6.8,5.9c4,5.1,8.6,7.5,13.2,7.5c3.5,0,8.4-1.9,8.4-6.2c0-10.5-30.7-4.7-30.7-25.7
		c0-12.9,12.1-19.9,24.8-19.9c6,0,11.4,1.5,13.8,2.7c4.1,2.2,5,6.5,5,9.7c0,4.8-0.7,7-4.5,7c-1.5,0-2.6-0.6-4.1-2.9
		c-2.2-3.3-5.8-8.1-12.5-8.1c-4.7,0-7.7,2.6-7.7,6c0,9.7,31.6,5.2,31.6,26.6c0,5.1-2.3,10.5-8,14.5c-5.4,3.8-11.9,5.2-18.2,5.2
		c-7.9,0-15.2-2.3-18.3-4.9c-2.9-2.6-3.8-7.7-3.8-11.8C429.4-71.3,430.3-74.1,433.6-74.1z"/>
	<path class="st1" d="M516.7-56c0,1.9-1.9,2.9-4.4,2.9h-24c-2.5,0-4.4-1-4.4-2.9c0-1.7,1.2-2.3,2.8-3.2c2.1-1.2,3.5-2.9,4.1-4.8
		c0.6-1.6,1.1-3.9,1.1-11.7v-14.5c0-3.2-0.1-5.6-0.8-7.4c-0.7-1.8-1.9-2.8-4.1-3.7c-1.2-0.6-3.5-1.1-3.5-3.1c0-1.6,1.1-2.3,3.7-3
		c5.1-1.2,11.5-3,15.5-4.5c0.7-0.2,1.8-0.7,2.9-0.7c1.5,0,2.9,0.8,2.9,3.8c0,0,0,29.3,0,33c0,7.7,0.6,10.2,1.1,11.7
		c0.7,1.9,2,3.6,4.1,4.8C515.4-58.3,516.7-57.7,516.7-56z M500.5-116.4c-3.5,0-10.7-7.4-10.7-10.7s7.3-10.6,10.7-10.6
		c3.3,0,10.6,7.3,10.6,10.6C511.1-123.7,503.8-116.4,500.5-116.4z"/>
	<path class="st1" d="M583.8-82.5c0,16.7-13.3,30.7-30.7,30.7c-17.9,0-30.5-11.7-30.5-30c0-16.7,13.4-30.7,31.4-30.7
		C571.9-112.5,583.8-99.9,583.8-82.5z M552.2-104.3c-7.6,0-11.8,6.5-11.8,17.7c0,7.8,2.7,26.1,13.8,26.1c7.8,0,11.7-8.4,11.7-19
		C565.9-87.4,563.6-104.3,552.2-104.3z"/>
	<path class="st1" d="M661.4-56c0,1.9-1.9,2.9-4.4,2.9h-24c-2.5,0-4.4-1-4.4-2.9c0-1.7,1.3-2.5,2.8-3.3c2.2-1.3,3.5-2.9,4.1-4.7
		c0.6-1.6,1.1-4,1.1-11.8v-13.7c0-5.9-2.8-10.4-9-10.4c-2.3,0-5.1,0.8-7.4,3c-3.8,3.7-5,9.7-5,21.1c0,7.8,0.6,10.3,1.1,11.8
		c0.6,1.8,1.9,3.5,4.1,4.7c1.5,0.9,2.8,1.7,2.8,3.3c0,1.9-1.9,2.9-4.4,2.9h-23.9c-2.5,0-4.2-1-4.2-2.9c0-1.7,1.2-2.5,2.7-3.3
		c2.2-1.2,3.6-2.9,4.1-4.7c0.6-1.6,1.1-4,1.1-11.8v-14.3c0-3.2-0.1-5.6-0.8-7.4s-1.8-2.8-3.9-3.7c-1.2-0.6-3.6-1.2-3.6-3.1
		c0-1.6,1.2-2.6,3.8-3.1c5.1-1.2,10.6-2.9,14.8-4.5c1.2-0.4,2.1-0.7,3.2-0.7c1.4,0,2.9,0.8,2.9,3.8v5.4c0,0.6,0.2,0.8,0.4,0.8
		s0.4-0.2,0.7-0.6c4.6-6.5,11.2-9.4,18.1-9.4c5.9,0,12,2.6,15.6,8.1c2.6,3.8,3.3,8.8,3.3,14.8V-76c0,7.8,0.7,10.3,1.1,11.8
		c0.6,1.8,2,3.5,4.1,4.7C660.2-58.4,661.4-57.6,661.4-56z"/>
	<path class="st1" d="M666.7-88c0-1.1,0.6-1.7,1.7-1.7h26.8c1.1,0,1.7,0.6,1.7,1.7v9c0,1.1-0.7,1.7-1.7,1.7h-26.8
		c-1.1,0-1.7-0.4-1.7-1.7V-88z"/>
	<path class="st1" d="M810.3-56c-0.1,1.9-1.9,2.9-4.4,2.9h-24c-2.5,0-4.4-1-4.4-2.9c0-1.7,1.3-2.5,2.8-3.3c2.1-1.3,3.5-2.8,4.1-4.7
		c0.6-1.6,1.1-4,1.1-11.7v-13.9c0-5.2-2.3-10.4-9-10.4c-2.3,0-5,0.8-7.3,3c-3.8,3.7-3.9,9.9-3.9,21.3c0,8.3,0.2,11.2,0.6,12.5
		c0.3,1.6,1.1,2.8,2.6,3.8c1.1,0.9,2.9,1.7,2.9,3.5c-0.1,1.9-1.9,2.9-4.4,2.9h-20c-2.3,0-4.2-1-4.2-2.9c0-1.8,1.6-2.6,2.9-3.5
		c1.3-1,2.1-2.2,2.5-3.8c0.3-1.3,0.6-4.1,0.6-12.5v-12.6c0-5.9-2-11.7-9-11.7c-2.2,0-4.6,0.8-6.5,2.7c-3.8,3.7-4.7,9.8-4.7,21.6
		c0,7.7,0.7,10.2,1.1,11.7c0.7,1.9,2,3.6,4.1,4.8c1.6,0.9,2.8,1.6,2.8,3.2c0,1.9-1.9,2.9-4.4,2.9h-24c-2.5,0-4.2-1-4.2-2.9
		c0-1.7,1.2-2.5,2.7-3.2c2.2-1.2,3.5-2.9,4.1-4.8c0.6-1.6,1.1-4,1.1-11.7v-14.5c0-3.2-0.1-5.6-0.8-7.4s-1.9-2.8-4.1-3.7
		c-1.1-0.4-3.5-1-3.5-3.1c0-1.5,1.2-2.3,3.8-3c5-1.2,11.2-3,15.2-4.5c0.9-0.3,1.9-0.7,3-0.7c1.6,0,3,0.7,3,3.8v5.6
		c0,0.3,0.2,0.6,0.4,0.6c0.1,0,0.3,0,0.6-0.3c4.6-6.7,11.3-9.6,18.2-9.6c6.7,0,12.9,3.2,16.2,9.1c0.3,0.6,0.6,0.7,0.8,0.7
		s0.4,0,0.9-0.7c4.2-6.1,10.9-9.1,17.9-9.1c5.8,0,12,2.6,15.5,8c2.5,3.9,3.3,8.8,3.3,14.7v14.1c0,7.7,0.6,10.2,1.1,11.7
		c0.7,1.9,1.9,3.3,4.1,4.7C808.9-58.4,810.3-57.6,810.3-56z"/>
	<path class="st1" d="M874-59.4c0,1.7-1.2,3.2-2.7,4.5c-2.5,2-6.2,3.1-9.6,3.1c-4.8,0-9.6-2.5-11-8.4c-0.1-0.4-0.1-0.7-0.3-0.7
		c-0.1,0-0.2,0.1-0.6,0.6c-4.5,5.8-11.5,8.5-18.2,8.5c-8.8,0-17.6-4.8-17.6-14.8c0-5.1,2.6-10.4,8-13.6c5.5-3.2,13.2-5.2,18.4-7.6
		c3.6-1.7,8.4-4.5,8.4-9.5c0-3.9-2.7-6.6-7.3-6.6c-2.6,0-4.9,0.8-6.8,2.1c-6.1,4.1-6.6,10.5-11.4,10.5c-3.7,0-4.9-1.8-4.9-7
		c0-3,0.6-6.5,2.1-8.4c3.7-4.7,15.6-5.8,21.3-5.8c11.5,0,24.9,5.2,24.9,18.9c0,7.5-0.6,14.2-0.6,21.4c0,7,0,10.2,5,10.4
		C872.9-61.8,874-61.1,874-59.4z M848.8-81.9c0-0.4-0.1-0.7-0.3-0.7s-0.3,0.1-0.7,0.3c-2.9,1.8-7.7,3.1-11.6,6.1
		c-3.2,2.3-4.4,5-4.4,7.4c0,3.9,2.8,6.6,6.9,6.6c3.3,0,6.8-2,8.6-5.6c1.4-3,1.4-6.4,1.4-13.1L848.8-81.9L848.8-81.9z"/>
	<path class="st1" d="M951.2-55.8c0,1.7-1.3,2.8-3.7,2.8h-10.8c-3.6,0-5.6-0.1-7.9-1.2c-3-1.5-4.8-4.6-9.3-13.1
		c-4-7.6-5.6-9.9-7.7-9.9c-1.5,0-2.7,1.1-4.7,3l-2,2c-0.6,0.6-0.6,1-0.6,1.8c0.1,3.6,0.7,5.4,1,6.2c0.8,2,2.1,3.6,4.2,4.9
		c1.4,0.9,2.7,1.7,2.7,3.2c0,2-1.8,3-4.2,3h-24.5c-2.5,0-4.5-1-4.5-3c0-1.7,1.4-2.3,2.9-3.2c2.1-1.3,3.5-3,4.2-4.9
		c0.7-1.6,1.1-4,1.1-11.9v-37.5c0-3.3-0.1-5.8-0.8-7.6c-0.7-1.8-2-2.8-4.2-3.8c-1.2-0.6-3.6-1.1-3.6-3c0-1.7,1.1-2.6,3.8-3.2
		c5.2-1.2,11.7-3,15.8-4.6c0.7-0.2,1.8-0.7,2.9-0.7c1.6,0,3,0.8,3,3.9v47.1c0,0.4,0.1,0.7,0.3,0.7s0.3-0.1,0.7-0.4l7.9-7.8
		c3.3-3.3,7.4-7.8,7.4-10.4s-3.2-2.6-3.2-5.1c0-1.9,1.6-2.7,3.9-2.7H945c2.7,0,3.8,0.8,3.8,2.8c0,2.5-3,2.9-5.8,4
		c-6.2,2.3-11.5,6.5-20.9,15.6c-0.2,0.2-0.3,0.3-0.3,0.6c0,0.3,0.3,0.7,0.7,0.7c0.6,0,1-0.6,2.5-0.6c4,0,6.8,5.1,11,12.8
		c5.5,9.8,7.8,13.1,10.9,15.5C948.8-58.4,951.2-57.8,951.2-55.8z"/>
	<path class="st1" d="M988.3-56c0,1.9-1.9,2.9-4.4,2.9h-24c-2.5,0-4.4-1-4.4-2.9c0-1.7,1.2-2.3,2.8-3.2c2.1-1.2,3.5-2.9,4.1-4.8
		c0.6-1.6,1.1-3.9,1.1-11.7v-14.5c0-3.2-0.1-5.6-0.8-7.4s-1.9-2.8-4.1-3.7c-1.2-0.6-3.5-1.1-3.5-3.1c0-1.6,1.1-2.3,3.7-3
		c5.1-1.2,11.5-3,15.5-4.5c0.7-0.2,1.8-0.7,2.9-0.7c1.5,0,2.9,0.8,2.9,3.8c0,0,0,29.3,0,33c0,7.7,0.6,10.2,1.1,11.7
		c0.7,1.9,2,3.6,4.1,4.8C987-58.3,988.3-57.7,988.3-56z M972-116.4c-3.5,0-10.7-7.4-10.7-10.7s7.3-10.6,10.7-10.6
		c3.3,0,10.6,7.3,10.6,10.6C982.6-123.7,975.4-116.4,972-116.4z"/>
	<path class="st1" d="M1066-56c0,1.9-1.9,2.9-4.4,2.9h-24.1c-2.5,0-4.4-1-4.4-2.9c0-1.7,1.3-2.5,2.8-3.3c2.2-1.3,3.5-2.9,4.1-4.7
		c0.6-1.6,1.1-4,1.1-11.8v-13.7c0-5.9-2.8-10.4-9-10.4c-2.3,0-5.1,0.8-7.4,3c-3.8,3.7-5,9.7-5,21.1c0,7.8,0.6,10.3,1.1,11.8
		c0.6,1.8,1.9,3.5,4.1,4.7c1.5,0.9,2.8,1.7,2.8,3.3c0,1.9-1.9,2.9-4.4,2.9h-23.9c-2.5,0-4.2-1-4.2-2.9c0-1.7,1.2-2.5,2.7-3.3
		c2.2-1.2,3.6-2.9,4.1-4.7c0.6-1.6,1.1-4,1.1-11.8v-14.3c0-3.2-0.1-5.6-0.8-7.4s-1.8-2.8-3.9-3.7c-1.2-0.6-3.6-1.2-3.6-3.1
		c0-1.6,1.2-2.6,3.8-3.1c5.1-1.2,10.6-2.9,14.8-4.5c1.2-0.4,2.1-0.7,3.2-0.7c1.4,0,2.9,0.8,2.9,3.8v5.4c0,0.6,0.2,0.8,0.4,0.8
		s0.4-0.2,0.7-0.6c4.6-6.5,11.2-9.4,18.1-9.4c5.9,0,12,2.6,15.6,8.1c2.6,3.8,3.3,8.8,3.3,14.8V-76c0,7.8,0.7,10.3,1.1,11.8
		c0.6,1.8,2,3.5,4.1,4.7C1064.7-58.4,1066-57.6,1066-56z"/>
	<path class="st1" d="M1122.4-60.4c3,2.1,5.2,5.6,5.2,10.2c0,5.9-3.3,10.2-7.4,13.1c-6.2,4.5-15.6,5.7-24,5.7
		c-8.6,0-27.4-1.7-27.4-13.8c0-4.8,3.2-8.1,7.8-9.7c0.3-0.1,0.3-0.2,0.3-0.3s-0.1-0.2-0.2-0.3c-1.5-1.7-2.2-3.8-2.2-5.8
		c0-5,3.9-8.7,8.8-10.6c0.2-0.1,0.4-0.2,0.4-0.6c0-0.2-0.2-0.3-0.4-0.4c-7-3.3-11.7-9.7-11.7-18c0-11.7,11.2-21.4,25.3-21.4
		c4.8,0,9,0.9,12.9,2.7c3.7,1.7,4.5,2.6,5.8,2.6c3.2-0.1,2.5-5.6,7.8-5.6c3.1,0,5.5,2,5.5,5.9c0,3.8-2.7,6.5-7.3,6.5
		c-0.6,0-1.1,0-1.7-0.1c1.3,2.7,2.1,5.7,2.1,8.9c0,12.4-11.5,21.4-25,21.4h-1.7c-3.2,0-7.1,0.6-7.1,3.3c0,3.2,6,3.3,8.8,3.3
		c3.6,0,8-0.1,11.2-0.1C1113.8-63.7,1118.8-63,1122.4-60.4z M1105.9-49.9c-2.5,0-5.6,0.1-8.3,0.1c-4.9,0-10.5-0.1-15-1.9
		c-0.3,0.9-0.9,1.7-0.9,3.2c0,7.3,10.3,9,16.6,9c9.8,0,15.5-3.1,15.5-6.8C1113.9-49.4,1110.6-49.9,1105.9-49.9z M1088.8-94
		c0,5.1,1.8,15.5,8.9,15.5c4.6,0,7.1-4.9,7.1-11.2c0-5.4-1.6-15-8.6-15C1090.7-104.6,1088.8-99.5,1088.8-94z"/>
</g>
<g class="st0">
	<path class="st1" d="M266.6-59.9c0,1.3-1.2,2.2-3.8,2.9c-5,1.2-10.8,3-14.2,4.1c-1.7,0.6-2.8,1-3.9,1c-1.5,0-2.9-0.8-2.9-3.8v-4.5
		c0-0.8-0.3-1.2-0.8-1.2c-0.3,0-0.7,0.2-1,0.7c-4.1,5.1-10.6,8.8-17.6,8.8c-13.8,0-23.2-12.2-23.2-27.3c0-16.5,10.6-33.4,29.1-33.4
		c4.4,0,8.7,1,12.1,2.5c0.6,0.2,0.8,0.3,1,0.3c0.3,0,0.4-0.2,0.4-0.8v-3.6c0-3.2-0.1-5.6-0.8-7.4s-1.9-2.8-4.1-3.7
		c-1.1-0.4-3.5-1.1-3.5-3c0-1.7,1.2-2.5,3.8-3.1c5-1.2,11.3-3,15.2-4.5c0.7-0.2,1.8-0.7,2.9-0.7c1.5,0,2.9,0.8,2.9,3.8v58.5
		c0,3.2,0.1,5.6,0.8,7.4c0.7,1.8,1.9,2.8,4,3.7C264.3-62.5,266.6-61.9,266.6-59.9z M241.9-83.3c0-13.3-5.2-20.6-12.8-20.6
		c-9.7,0-12.4,11.4-12.4,20c0,11.6,4.8,20.1,12.9,20.1C236.1-63.9,241.9-69.9,241.9-83.3z"/>
	<path class="st1" d="M325.8-65.4c0,2.5-3.3,6-6.7,8.3c-5,3.3-11.7,5.4-18.4,5.4c-16.3,0-28.6-11.3-28.6-28.8
		c0-16.7,12.4-31.9,29.8-31.9c12.6,0,25,8.8,25,22.8c0,6.5-2.9,7.5-9.5,7.5h-26.8c-0.7,0-1.2,0.2-1.2,1c0,0.2,0,0.4,0.1,1.3
		c0.1,1.1,0.6,4.7,2.9,8.4c3.8,5.9,9.6,8.4,16.3,8.4c8.8,0,11.9-4.6,14.6-4.6C324.5-67.8,325.8-66.8,325.8-65.4z M289.3-91.5
		c0,0.6,0.3,1,1.1,1c0.2,0,12.9,0,12.9,0c4,0,7-0.7,7-4.9c0-4.1-3.3-8.7-9-8.7c-6.2,0-10.7,4.6-11.9,11.6
		C289.3-91.9,289.3-91.8,289.3-91.5z"/>
	<path class="st1" d="M378.4-57.6c-4.1,3.3-10.4,5.8-18.2,5.8c-16.4,0-27.3-11-27.3-27.4c0-18.3,12.7-33.2,32.2-33.2
		c4.4,0,11.4,0.7,14.7,4.4c1.8,2,2.5,5,2.5,7.7c0,4.2-0.8,7.9-4.7,7.9c-3,0-4-3-6.1-5.9s-4.4-5.9-9-5.9c-7.7,0-12.7,7.8-12.7,17.9
		c0,10.9,5.5,23.4,17.9,23.4c7.3,0,11.6-4.8,14.3-4.8c1.1,0,2.3,0.8,2.3,2.3C384.2-63.7,382.1-60.6,378.4-57.6z"/>
	<path class="st1" d="M422.8-56c0,1.9-1.9,2.9-4.4,2.9h-24c-2.5,0-4.4-1-4.4-2.9c0-1.7,1.2-2.3,2.8-3.2c2.1-1.2,3.5-2.9,4.1-4.8
		c0.6-1.6,1.1-3.9,1.1-11.7v-14.5c0-3.2-0.1-5.6-0.8-7.4c-0.7-1.8-1.9-2.8-4.1-3.7c-1.2-0.6-3.5-1.1-3.5-3.1c0-1.6,1.1-2.3,3.7-3
		c5.1-1.2,11.5-3,15.5-4.5c0.7-0.2,1.8-0.7,2.9-0.7c1.5,0,2.9,0.8,2.9,3.8c0,0,0,29.3,0,33c0,7.7,0.6,10.2,1.1,11.7
		c0.7,1.9,2,3.6,4.1,4.8C421.5-58.3,422.8-57.7,422.8-56z M406.5-116.4c-3.5,0-10.7-7.4-10.7-10.7s7.3-10.6,10.7-10.6
		c3.3,0,10.6,7.3,10.6,10.6C417.1-123.7,409.9-116.4,406.5-116.4z"/>
	<path class="st1" d="M432.6-74.1c2.5,0,3.8,2.1,6.8,5.9c4,5.1,8.6,7.5,13.2,7.5c3.5,0,8.4-1.9,8.4-6.2c0-10.5-30.7-4.7-30.7-25.7
		c0-12.9,12.1-19.9,24.8-19.9c6,0,11.4,1.5,13.8,2.7c4.1,2.2,5,6.5,5,9.7c0,4.8-0.7,7-4.5,7c-1.5,0-2.6-0.6-4.1-2.9
		c-2.2-3.3-5.8-8.1-12.5-8.1c-4.7,0-7.7,2.6-7.7,6c0,9.7,31.6,5.2,31.6,26.6c0,5.1-2.3,10.5-8,14.5c-5.4,3.8-11.9,5.2-18.2,5.2
		c-7.9,0-15.2-2.3-18.3-4.9c-2.9-2.6-3.8-7.7-3.8-11.8C428.4-71.3,429.3-74.1,432.6-74.1z"/>
	<path class="st1" d="M515.7-56c0,1.9-1.9,2.9-4.4,2.9h-24c-2.5,0-4.4-1-4.4-2.9c0-1.7,1.2-2.3,2.8-3.2c2.1-1.2,3.5-2.9,4.1-4.8
		c0.6-1.6,1.1-3.9,1.1-11.7v-14.5c0-3.2-0.1-5.6-0.8-7.4c-0.7-1.8-1.9-2.8-4.1-3.7c-1.2-0.6-3.5-1.1-3.5-3.1c0-1.6,1.1-2.3,3.7-3
		c5.1-1.2,11.5-3,15.5-4.5c0.7-0.2,1.8-0.7,2.9-0.7c1.5,0,2.9,0.8,2.9,3.8c0,0,0,29.3,0,33c0,7.7,0.6,10.2,1.1,11.7
		c0.7,1.9,2,3.6,4.1,4.8C514.4-58.3,515.7-57.7,515.7-56z M499.5-116.4c-3.5,0-10.7-7.4-10.7-10.7s7.3-10.6,10.7-10.6
		c3.3,0,10.6,7.3,10.6,10.6C510.1-123.7,502.8-116.4,499.5-116.4z"/>
	<path class="st1" d="M582.8-82.5c0,16.7-13.3,30.7-30.7,30.7c-17.9,0-30.5-11.7-30.5-30c0-16.7,13.4-30.7,31.4-30.7
		C570.9-112.5,582.8-99.9,582.8-82.5z M551.2-104.3c-7.6,0-11.8,6.5-11.8,17.7c0,7.8,2.7,26.1,13.8,26.1c7.8,0,11.7-8.4,11.7-19
		C564.9-87.4,562.6-104.3,551.2-104.3z"/>
	<path class="st1" d="M660.4-56c0,1.9-1.9,2.9-4.4,2.9h-24c-2.5,0-4.4-1-4.4-2.9c0-1.7,1.3-2.5,2.8-3.3c2.2-1.3,3.5-2.9,4.1-4.7
		c0.6-1.6,1.1-4,1.1-11.8v-13.7c0-5.9-2.8-10.4-9-10.4c-2.3,0-5.1,0.8-7.4,3c-3.8,3.7-5,9.7-5,21.1c0,7.8,0.6,10.3,1.1,11.8
		c0.6,1.8,1.9,3.5,4.1,4.7c1.5,0.9,2.8,1.7,2.8,3.3c0,1.9-1.9,2.9-4.4,2.9h-23.9c-2.5,0-4.2-1-4.2-2.9c0-1.7,1.2-2.5,2.7-3.3
		c2.2-1.2,3.6-2.9,4.1-4.7c0.6-1.6,1.1-4,1.1-11.8v-14.3c0-3.2-0.1-5.6-0.8-7.4s-1.8-2.8-3.9-3.7c-1.2-0.6-3.6-1.2-3.6-3.1
		c0-1.6,1.2-2.6,3.8-3.1c5.1-1.2,10.6-2.9,14.8-4.5c1.2-0.4,2.1-0.7,3.2-0.7c1.4,0,2.9,0.8,2.9,3.8v5.4c0,0.6,0.2,0.8,0.4,0.8
		s0.4-0.2,0.7-0.6c4.6-6.5,11.2-9.4,18.1-9.4c5.9,0,12,2.6,15.6,8.1c2.6,3.8,3.3,8.8,3.3,14.8V-76c0,7.8,0.7,10.3,1.1,11.8
		c0.6,1.8,2,3.5,4.1,4.7C659.2-58.4,660.4-57.6,660.4-56z"/>
	<path class="st1" d="M665.7-88c0-1.1,0.6-1.7,1.7-1.7h26.8c1.1,0,1.7,0.6,1.7,1.7v9c0,1.1-0.7,1.7-1.7,1.7h-26.8
		c-1.1,0-1.7-0.4-1.7-1.7V-88z"/>
	<path class="st1" d="M809.3-56c-0.1,1.9-1.9,2.9-4.4,2.9h-24c-2.5,0-4.4-1-4.4-2.9c0-1.7,1.3-2.5,2.8-3.3c2.1-1.3,3.5-2.8,4.1-4.7
		c0.6-1.6,1.1-4,1.1-11.7v-13.9c0-5.2-2.3-10.4-9-10.4c-2.3,0-5,0.8-7.3,3c-3.8,3.7-3.9,9.9-3.9,21.3c0,8.3,0.2,11.2,0.6,12.5
		c0.3,1.6,1.1,2.8,2.6,3.8c1.1,0.9,2.9,1.7,2.9,3.5c-0.1,1.9-1.9,2.9-4.4,2.9h-20c-2.3,0-4.2-1-4.2-2.9c0-1.8,1.6-2.6,2.9-3.5
		c1.3-1,2.1-2.2,2.5-3.8c0.3-1.3,0.6-4.1,0.6-12.5v-12.6c0-5.9-2-11.7-9-11.7c-2.2,0-4.6,0.8-6.5,2.7c-3.8,3.7-4.7,9.8-4.7,21.6
		c0,7.7,0.7,10.2,1.1,11.7c0.7,1.9,2,3.6,4.1,4.8c1.6,0.9,2.8,1.6,2.8,3.2c0,1.9-1.9,2.9-4.4,2.9h-24c-2.5,0-4.2-1-4.2-2.9
		c0-1.7,1.2-2.5,2.7-3.2c2.2-1.2,3.5-2.9,4.1-4.8c0.6-1.6,1.1-4,1.1-11.7v-14.5c0-3.2-0.1-5.6-0.8-7.4s-1.9-2.8-4.1-3.7
		c-1.1-0.4-3.5-1-3.5-3.1c0-1.5,1.2-2.3,3.8-3c5-1.2,11.2-3,15.2-4.5c0.9-0.3,1.9-0.7,3-0.7c1.6,0,3,0.7,3,3.8v5.6
		c0,0.3,0.2,0.6,0.4,0.6c0.1,0,0.3,0,0.6-0.3c4.6-6.7,11.3-9.6,18.2-9.6c6.7,0,12.9,3.2,16.2,9.1c0.3,0.6,0.6,0.7,0.8,0.7
		s0.4,0,0.9-0.7c4.2-6.1,10.9-9.1,17.9-9.1c5.8,0,12,2.6,15.5,8c2.5,3.9,3.3,8.8,3.3,14.7v14.1c0,7.7,0.6,10.2,1.1,11.7
		c0.7,1.9,1.9,3.3,4.1,4.7C807.9-58.4,809.3-57.6,809.3-56z"/>
	<path class="st1" d="M873-59.4c0,1.7-1.2,3.2-2.7,4.5c-2.5,2-6.2,3.1-9.6,3.1c-4.8,0-9.6-2.5-11-8.4c-0.1-0.4-0.1-0.7-0.3-0.7
		c-0.1,0-0.2,0.1-0.6,0.6c-4.5,5.8-11.5,8.5-18.2,8.5c-8.8,0-17.6-4.8-17.6-14.8c0-5.1,2.6-10.4,8-13.6c5.5-3.2,13.2-5.2,18.4-7.6
		c3.6-1.7,8.4-4.5,8.4-9.5c0-3.9-2.7-6.6-7.3-6.6c-2.6,0-4.9,0.8-6.8,2.1c-6.1,4.1-6.6,10.5-11.4,10.5c-3.7,0-4.9-1.8-4.9-7
		c0-3,0.6-6.5,2.1-8.4c3.7-4.7,15.6-5.8,21.3-5.8c11.5,0,24.9,5.2,24.9,18.9c0,7.5-0.6,14.2-0.6,21.4c0,7,0,10.2,5,10.4
		C871.9-61.8,873-61.1,873-59.4z M847.8-81.9c0-0.4-0.1-0.7-0.3-0.7s-0.3,0.1-0.7,0.3c-2.9,1.8-7.7,3.1-11.6,6.1
		c-3.2,2.3-4.4,5-4.4,7.4c0,3.9,2.8,6.6,6.9,6.6c3.3,0,6.8-2,8.6-5.6c1.4-3,1.4-6.4,1.4-13.1L847.8-81.9L847.8-81.9z"/>
	<path class="st1" d="M950.2-55.8c0,1.7-1.3,2.8-3.7,2.8h-10.8c-3.6,0-5.6-0.1-7.9-1.2c-3-1.5-4.8-4.6-9.3-13.1
		c-4-7.6-5.6-9.9-7.7-9.9c-1.5,0-2.7,1.1-4.7,3l-2,2c-0.6,0.6-0.6,1-0.6,1.8c0.1,3.6,0.7,5.4,1,6.2c0.8,2,2.1,3.6,4.2,4.9
		c1.4,0.9,2.7,1.7,2.7,3.2c0,2-1.8,3-4.2,3h-24.5c-2.5,0-4.5-1-4.5-3c0-1.7,1.4-2.3,2.9-3.2c2.1-1.3,3.5-3,4.2-4.9
		c0.7-1.6,1.1-4,1.1-11.9v-37.5c0-3.3-0.1-5.8-0.8-7.6c-0.7-1.8-2-2.8-4.2-3.8c-1.2-0.6-3.6-1.1-3.6-3c0-1.7,1.1-2.6,3.8-3.2
		c5.2-1.2,11.7-3,15.8-4.6c0.7-0.2,1.8-0.7,2.9-0.7c1.6,0,3,0.8,3,3.9v47.1c0,0.4,0.1,0.7,0.3,0.7s0.3-0.1,0.7-0.4l7.9-7.8
		c3.3-3.3,7.4-7.8,7.4-10.4s-3.2-2.6-3.2-5.1c0-1.9,1.6-2.7,3.9-2.7H944c2.7,0,3.8,0.8,3.8,2.8c0,2.5-3,2.9-5.8,4
		c-6.2,2.3-11.5,6.5-20.9,15.6c-0.2,0.2-0.3,0.3-0.3,0.6c0,0.3,0.3,0.7,0.7,0.7c0.6,0,1-0.6,2.5-0.6c4,0,6.8,5.1,11,12.8
		c5.5,9.8,7.8,13.1,10.9,15.5C947.8-58.4,950.2-57.8,950.2-55.8z"/>
	<path class="st1" d="M987.3-56c0,1.9-1.9,2.9-4.4,2.9h-24c-2.5,0-4.4-1-4.4-2.9c0-1.7,1.2-2.3,2.8-3.2c2.1-1.2,3.5-2.9,4.1-4.8
		c0.6-1.6,1.1-3.9,1.1-11.7v-14.5c0-3.2-0.1-5.6-0.8-7.4s-1.9-2.8-4.1-3.7c-1.2-0.6-3.5-1.1-3.5-3.1c0-1.6,1.1-2.3,3.7-3
		c5.1-1.2,11.5-3,15.5-4.5c0.7-0.2,1.8-0.7,2.9-0.7c1.5,0,2.9,0.8,2.9,3.8c0,0,0,29.3,0,33c0,7.7,0.6,10.2,1.1,11.7
		c0.7,1.9,2,3.6,4.1,4.8C986-58.3,987.3-57.7,987.3-56z M971-116.4c-3.5,0-10.7-7.4-10.7-10.7s7.3-10.6,10.7-10.6
		c3.3,0,10.6,7.3,10.6,10.6C981.6-123.7,974.4-116.4,971-116.4z"/>
	<path class="st1" d="M1065-56c0,1.9-1.9,2.9-4.4,2.9h-24.1c-2.5,0-4.4-1-4.4-2.9c0-1.7,1.3-2.5,2.8-3.3c2.2-1.3,3.5-2.9,4.1-4.7
		c0.6-1.6,1.1-4,1.1-11.8v-13.7c0-5.9-2.8-10.4-9-10.4c-2.3,0-5.1,0.8-7.4,3c-3.8,3.7-5,9.7-5,21.1c0,7.8,0.6,10.3,1.1,11.8
		c0.6,1.8,1.9,3.5,4.1,4.7c1.5,0.9,2.8,1.7,2.8,3.3c0,1.9-1.9,2.9-4.4,2.9h-23.9c-2.5,0-4.2-1-4.2-2.9c0-1.7,1.2-2.5,2.7-3.3
		c2.2-1.2,3.6-2.9,4.1-4.7c0.6-1.6,1.1-4,1.1-11.8v-14.3c0-3.2-0.1-5.6-0.8-7.4s-1.8-2.8-3.9-3.7c-1.2-0.6-3.6-1.2-3.6-3.1
		c0-1.6,1.2-2.6,3.8-3.1c5.1-1.2,10.6-2.9,14.8-4.5c1.2-0.4,2.1-0.7,3.2-0.7c1.4,0,2.9,0.8,2.9,3.8v5.4c0,0.6,0.2,0.8,0.4,0.8
		s0.4-0.2,0.7-0.6c4.6-6.5,11.2-9.4,18.1-9.4c5.9,0,12,2.6,15.6,8.1c2.6,3.8,3.3,8.8,3.3,14.8V-76c0,7.8,0.7,10.3,1.1,11.8
		c0.6,1.8,2,3.5,4.1,4.7C1063.7-58.4,1065-57.6,1065-56z"/>
	<path class="st1" d="M1121.4-60.4c3,2.1,5.2,5.6,5.2,10.2c0,5.9-3.3,10.2-7.4,13.1c-6.2,4.5-15.6,5.7-24,5.7
		c-8.6,0-27.4-1.7-27.4-13.8c0-4.8,3.2-8.1,7.8-9.7c0.3-0.1,0.3-0.2,0.3-0.3s-0.1-0.2-0.2-0.3c-1.5-1.7-2.2-3.8-2.2-5.8
		c0-5,3.9-8.7,8.8-10.6c0.2-0.1,0.4-0.2,0.4-0.6c0-0.2-0.2-0.3-0.4-0.4c-7-3.3-11.7-9.7-11.7-18c0-11.7,11.2-21.4,25.3-21.4
		c4.8,0,9,0.9,12.9,2.7c3.7,1.7,4.5,2.6,5.8,2.6c3.2-0.1,2.5-5.6,7.8-5.6c3.1,0,5.5,2,5.5,5.9c0,3.8-2.7,6.5-7.3,6.5
		c-0.6,0-1.1,0-1.7-0.1c1.3,2.7,2.1,5.7,2.1,8.9c0,12.4-11.5,21.4-25,21.4h-1.7c-3.2,0-7.1,0.6-7.1,3.3c0,3.2,6,3.3,8.8,3.3
		c3.6,0,8-0.1,11.2-0.1C1112.8-63.7,1117.8-63,1121.4-60.4z M1104.9-49.9c-2.5,0-5.6,0.1-8.3,0.1c-4.9,0-10.5-0.1-15-1.9
		c-0.3,0.9-0.9,1.7-0.9,3.2c0,7.3,10.3,9,16.6,9c9.8,0,15.5-3.1,15.5-6.8C1112.9-49.4,1109.6-49.9,1104.9-49.9z M1087.8-94
		c0,5.1,1.8,15.5,8.9,15.5c4.6,0,7.1-4.9,7.1-11.2c0-5.4-1.6-15-8.6-15C1089.7-104.6,1087.8-99.5,1087.8-94z"/>
</g>
<g class="st0">
	<path class="st1" d="M810.8,29.3c-0.1,1.9-1.9,2.9-4.4,2.9h-24c-2.5,0-4.4-1-4.4-2.9c0-1.7,1.3-2.5,2.8-3.3
		c2.1-1.3,3.5-2.8,4.1-4.7c0.6-1.6,1.1-4,1.1-11.7v-14c0-5.2-2.3-10.4-9-10.4c-2.3,0-5,0.8-7.3,3c-3.8,3.7-3.9,9.9-3.9,21.3
		c0,8.3,0.2,11.2,0.6,12.5c0.3,1.6,1.1,2.8,2.6,3.8c1.1,0.9,2.9,1.7,2.9,3.5c-0.1,1.9-1.9,2.9-4.4,2.9h-20.1c-2.3,0-4.2-1-4.2-2.9
		c0-1.8,1.6-2.6,2.9-3.5c1.3-1,2.1-2.2,2.5-3.8c0.3-1.3,0.6-4.1,0.6-12.5V-3.1c0-5.9-2-11.7-9-11.7c-2.2,0-4.6,0.8-6.5,2.7
		c-3.8,3.7-4.7,9.8-4.7,21.6c0,7.7,0.7,10.2,1.1,11.7c0.7,1.9,2,3.6,4.1,4.8c1.6,0.9,2.8,1.6,2.8,3.2c0,1.9-1.9,2.9-4.4,2.9h-24
		c-2.5,0-4.2-1-4.2-2.9c0-1.7,1.2-2.5,2.7-3.2c2.2-1.2,3.5-2.9,4.1-4.8c0.6-1.6,1.1-4,1.1-11.7V-5c0-3.2-0.1-5.6-0.8-7.4
		s-1.9-2.8-4.1-3.7c-1.1-0.4-3.5-1-3.5-3.1c0-1.5,1.2-2.3,3.8-3c5-1.2,11.2-3,15.2-4.5c0.9-0.3,1.9-0.7,3-0.7c1.6,0,3,0.7,3,3.8v5.6
		c0,0.3,0.2,0.6,0.4,0.6c0.1,0,0.3,0,0.6-0.3c4.6-6.7,11.3-9.6,18.2-9.6c6.7,0,12.9,3.2,16.2,9.1c0.3,0.6,0.6,0.7,0.8,0.7
		s0.4,0,0.9-0.7c4.2-6.1,10.9-9.1,17.9-9.1c5.8,0,12.1,2.6,15.5,8c2.5,3.9,3.3,8.8,3.3,14.7V9.5c0,7.7,0.6,10.2,1.1,11.7
		c0.7,1.9,1.9,3.3,4.1,4.7C809.5,26.8,810.8,27.6,810.8,29.3z"/>
	<path class="st1" d="M874.5,25.8c0,1.7-1.2,3.2-2.7,4.5c-2.5,2-6.2,3.1-9.6,3.1c-4.8,0-9.6-2.5-11-8.4c-0.1-0.4-0.1-0.7-0.3-0.7
		c-0.1,0-0.2,0.1-0.6,0.6c-4.5,5.8-11.5,8.5-18.2,8.5c-8.8,0-17.6-4.8-17.6-14.8c0-5.1,2.6-10.4,8-13.6c5.5-3.2,13.2-5.2,18.4-7.6
		c3.6-1.7,8.4-4.5,8.4-9.5c0-3.9-2.7-6.6-7.3-6.6c-2.6,0-4.9,0.8-6.8,2.1c-6.1,4.1-6.6,10.5-11.4,10.5c-3.7,0-4.9-1.8-4.9-7
		c0-3,0.6-6.5,2.1-8.4c3.7-4.7,15.6-5.8,21.3-5.8c11.5,0,24.9,5.2,24.9,18.9c0,7.5-0.6,14.2-0.6,21.4c0,7,0,10.2,5,10.4
		C873.4,23.5,874.5,24.1,874.5,25.8z M849.3,3.3c0-0.4-0.1-0.7-0.3-0.7s-0.3,0.1-0.7,0.3c-2.9,1.8-7.7,3.1-11.6,6.1
		c-3.2,2.3-4.4,5-4.4,7.4c0,3.9,2.8,6.6,6.9,6.6c3.3,0,6.8-2,8.6-5.6c1.5-3,1.5-6.4,1.5-13.1V3.3z"/>
	<path class="st1" d="M923.4,21.2c0,1.1-0.6,2.6-1.5,3.8c-3.5,5.1-10,8.4-16.8,8.4c-8.3,0-13.6-3.9-16.2-8.7
		c-1.9-3.6-2.6-8-2.6-14.1c0-7.4,0.9-14.8,1.1-25c0-0.9-0.3-1.2-1.2-1.2c-2.6,0-6.8,0-6.8,0c-1,0-1.7-0.7-1.7-1.8v-4.8
		c0-1,0.6-1.7,1.9-1.9c5.7-0.9,8.8-3,10.6-5.6c1.9-2.7,2.2-5.8,2.7-8c0.2-1.2,0.8-1.8,1.9-1.8h7.3c1,0,1.7,0.7,1.7,1.7
		c0,0,0,10.3,0,10.5c0,3,0.2,3.3,2.9,3.3c1.9,0,3.2-0.1,5.1-0.3c2-0.2,4.2-0.6,6.4-0.6c1.3,0,3.9,0.1,3.9,2.2c0,0.9-0.4,2.2-0.7,3.3
		c-0.7,2.9-1.6,4.1-5.1,4.1c-1.7,0-3.7-0.2-5.7-0.3c-1.8-0.1-4.1-0.1-5.8-0.1c-0.8,0-1.2,0.4-1.2,1.2c-0.1,2.7-0.1,5.9-0.1,9.3
		c0,8.3,0.3,17.2,1.7,21.3c1.6,4.8,5,6.1,7.5,6.1c4.5,0,6.2-3.5,8.6-3.5C922.4,18.9,923.4,19.9,923.4,21.2z"/>
	<path class="st1" d="M977.9-16.6c0,3.5-1.8,6.8-5.5,6.8c-3.5,0-5.4-3-9.3-3c-9.1,0-10,14.8-10,22.3c0,7.8,0.6,10.2,1.1,11.7
		c0.6,1.9,1.9,3.6,4.1,4.8c1.5,0.8,2.7,1.6,2.7,3.2c0,1.9-1.8,2.9-4.2,2.9h-24c-2.5,0-4.4-0.9-4.4-2.9c0-1.7,1.2-2.3,2.8-3.2
		c2.1-1.2,3.5-2.9,4.1-4.8c0.6-1.6,1-3.9,1-11.7V-5.1c0-3.1-0.1-5.5-0.7-7.3c-0.6-1.8-1.7-2.9-4.1-3.8c-1.2-0.4-3.5-0.9-3.5-3.1
		c0-1.5,1.1-2.3,3.7-2.9c5-1.1,9.4-2.5,13.7-4.2c1.6-0.7,2.6-0.9,3.5-0.9c1.7,0,3,1,3,3.7v8.5c0,0.3,0.1,0.4,0.2,0.4
		c0.1,0,0.2,0,0.4-0.4c2.7-5.4,8.5-12.2,15.6-12.2C974.8-27.3,977.9-22.3,977.9-16.6z"/>
	<path class="st1" d="M1013,29.3c0,1.9-1.9,2.9-4.4,2.9h-24c-2.5,0-4.4-1-4.4-2.9c0-1.7,1.2-2.3,2.8-3.2c2.1-1.2,3.5-2.9,4.1-4.8
		c0.6-1.6,1.1-3.9,1.1-11.7V-5c0-3.2-0.1-5.6-0.8-7.4s-1.9-2.8-4.1-3.7c-1.2-0.6-3.5-1.1-3.5-3.1c0-1.6,1.1-2.3,3.7-3
		c5.1-1.2,11.5-3,15.5-4.5c0.7-0.2,1.8-0.7,2.9-0.7c1.5,0,2.9,0.8,2.9,3.8c0,0,0,29.3,0,33c0,7.7,0.6,10.2,1.1,11.7
		c0.7,1.9,2,3.6,4.1,4.8C1011.6,26.9,1013,27.5,1013,29.3z"/>
	<path class="st1" d="M1085.2,29.4c0,1.7-1.2,2.8-3.8,2.8H1054c-2.6,0-3.9-1.1-3.9-2.6c0-2.7,4-2.9,4-6.2c0-2.1-1.8-4.8-5.4-9.7
		l-2.7-3.6c-0.2-0.2-0.3-0.3-0.6-0.3c-0.3,0-0.6,0.2-0.9,0.7c-2.1,3.1-5.7,8.4-5.7,11.5c0,4.7,5.5,4.6,5.5,7.5
		c0,1.9-1.5,2.8-3.8,2.8h-20c-2.8,0-4.1-1-4.1-2.8s1.6-2.7,3.9-4.4c3.3-2.5,7-6.2,12.7-13.8l5.9-7.9c0.3-0.4,0.4-0.9,0.4-1.2
		c0-0.4-0.2-0.9-0.6-1.3l-7.1-9.5c-5-6.6-6.5-8.5-10.7-10.5c-1.9-0.9-4.6-1.5-4.6-3.9c0-1.8,1.2-2.9,3.9-2.9h27.3
		c2.6,0,3.9,1.1,3.9,2.7c0,2.7-4,2.7-4,6.1c0,2.1,1.8,4.9,5.4,9.8l2.5,3.3c0.3,0.4,0.6,0.6,0.8,0.6c0.2,0,0.4-0.2,0.7-0.6
		c2.3-3.6,5.7-8.6,5.7-11.8c0-4.7-5.5-4.2-5.5-7.4c0-1.9,1.6-2.8,3.9-2.8h19.9c2.8,0,4.2,1,4.2,2.9c0,1.8-1.6,2.6-4,4.4
		c-3.1,2.2-6.9,6.2-12.7,13.7c-1.1,1.5-3.5,4.6-5.8,8.1c-0.2,0.3-0.4,0.7-0.4,1s0.1,0.7,0.4,1.1l7.4,9.7c5,6.6,6.7,8.6,11,10.8
		C1082.8,26.6,1085.2,27.2,1085.2,29.4z"/>
</g>
<g>
	<path class="st2" d="M116.6,159.1c0,2.2-2,3.6-6.2,4.7c-8.2,2-17.6,4.9-23.1,6.7c-2.7,0.9-4.5,1.6-6.4,1.6c-2.4,0-4.7-1.3-4.7-6.2
		v-7.3c0-1.3-0.5-2-1.3-2c-0.5,0-1.1,0.4-1.6,1.1c-6.7,8.4-17.2,14.3-28.7,14.3c-22.5,0-37.8-19.8-37.8-44.5
		c0-26.9,17.2-54.3,47.4-54.3c7.1,0,14.2,1.6,19.6,4c0.9,0.4,1.3,0.5,1.6,0.5c0.5,0,0.7-0.4,0.7-1.3v-5.8c0-5.3-0.2-9.1-1.3-12
		c-1.1-2.9-3.1-4.5-6.7-6c-1.8-0.7-5.6-1.8-5.6-4.9c0-2.7,2-4,6.2-5.1c8.2-2,18.3-4.9,24.7-7.3c1.1-0.4,2.9-1.1,4.7-1.1
		c2.4,0,4.7,1.3,4.7,6.2v95.1c0,5.3,0.2,9.1,1.3,12c1.1,2.9,3.1,4.5,6.5,6C112.8,154.7,116.6,155.8,116.6,159.1z M76.3,120.9
		c0-21.6-8.5-33.6-20.9-33.6c-15.8,0-20.2,18.5-20.2,32.5c0,18.9,7.8,32.7,21.1,32.7C66.9,152.5,76.3,142.7,76.3,120.9z"/>
	<path class="st2" d="M201.9,150c0,4-5.4,9.8-10.9,13.4c-8.2,5.4-19.1,8.7-30,8.7c-26.5,0-46.5-18.3-46.5-46.8
		c0-27.2,20.2-51.9,48.5-51.9c20.5,0,40.7,14.3,40.7,37c0,10.5-4.7,12.2-15.4,12.2h-43.6c-1.1,0-2,0.4-2,1.6c0,0.4,0,0.7,0.2,2.2
		c0.2,1.8,0.9,7.6,4.7,13.6c6.2,9.6,15.6,13.6,26.5,13.6c14.3,0,19.4-7.4,23.8-7.4C200,146.2,201.9,147.8,201.9,150z M142.6,107.5
		c0,0.9,0.5,1.6,1.8,1.6c0.4,0,21.1,0,21.1,0c6.5,0,11.4-1.1,11.4-8c0-6.7-5.4-14.2-14.7-14.2c-10.2,0-17.4,7.4-19.4,18.9
		C142.6,106.9,142.6,107.1,142.6,107.5z"/>
	<path class="st2" d="M276.8,162.7c-6.7,5.4-16.9,9.4-29.6,9.4c-26.7,0-44.5-18-44.5-44.7c0-29.8,20.7-54.1,52.5-54.1
		c7.1,0,18.5,1.1,24,7.1c2.9,3.3,4,8.2,4,12.5c0,6.9-1.3,12.9-7.6,12.9c-4.9,0-6.5-4.9-10-9.6s-7.1-9.6-14.7-9.6
		c-12.5,0-20.7,12.7-20.7,29.1c0,17.8,8.9,38.1,29.1,38.1c11.8,0,18.9-7.8,23.2-7.8c1.8,0,3.8,1.3,3.8,3.8
		C286.2,152.9,282.7,157.8,276.8,162.7z"/>
	<path class="st2" d="M338.1,165.4c0,3.1-3.1,4.7-7.1,4.7h-39c-4,0-7.1-1.6-7.1-4.7c0-2.7,2-3.8,4.5-5.3c3.5-2,5.6-4.7,6.7-7.8
		c0.9-2.5,1.8-6.4,1.8-19.1v-23.6c0-5.3-0.2-9.1-1.3-12c-1.1-2.9-3.1-4.5-6.7-6c-2-0.9-5.6-1.8-5.6-5.1c0-2.5,1.8-3.8,6-4.9
		c8.4-2,18.7-4.9,25.2-7.3c1.1-0.4,2.9-1.1,4.7-1.1c2.4,0,4.7,1.3,4.7,6.2c0,0,0,47.8,0,53.7c0,12.5,0.9,16.5,1.8,19.1
		c1.1,3.1,3.3,5.8,6.7,7.8C335.9,161.6,338.1,162.5,338.1,165.4z M311.6,67c-5.6,0-17.4-12-17.4-17.4s11.8-17.2,17.4-17.2
		c5.4,0,17.2,11.8,17.2,17.2C328.9,55.2,317.1,67,311.6,67z"/>
	<path class="st2" d="M343.2,135.8c4,0,6.2,3.4,11.1,9.6c6.5,8.4,14,12.2,21.4,12.2c5.6,0,13.6-3.1,13.6-10.2
		c0-17.1-49.9-7.6-49.9-41.8c0-21.1,19.6-32.3,40.3-32.3c9.8,0,18.5,2.4,22.5,4.4c6.7,3.6,8.2,10.5,8.2,15.8
		c0,7.8-1.1,11.4-7.3,11.4c-2.4,0-4.2-0.9-6.7-4.7C392.8,94.8,387,87,376.1,87c-7.6,0-12.5,4.2-12.5,9.8c0,15.8,51.4,8.5,51.4,43.2
		c0,8.4-3.8,17.1-13.1,23.6c-8.7,6.2-19.4,8.5-29.6,8.5c-12.9,0-24.7-3.8-29.8-8c-4.7-4.2-6.2-12.5-6.2-19.2
		C336.3,140.4,337.8,135.8,343.2,135.8z"/>
	<path class="st2" d="M467.6,165.4c0,3.1-3.1,4.7-7.1,4.7h-39c-4,0-7.1-1.6-7.1-4.7c0-2.7,2-3.8,4.5-5.3c3.5-2,5.6-4.7,6.7-7.8
		c0.9-2.5,1.8-6.4,1.8-19.1v-23.6c0-5.3-0.2-9.1-1.3-12c-1.1-2.9-3.1-4.5-6.7-6c-2-0.9-5.6-1.8-5.6-5.1c0-2.5,1.8-3.8,6-4.9
		c8.4-2,18.7-4.9,25.2-7.3c1.1-0.4,2.9-1.1,4.7-1.1c2.4,0,4.7,1.3,4.7,6.2c0,0,0,47.8,0,53.7c0,12.5,0.9,16.5,1.8,19.1
		c1.1,3.1,3.3,5.8,6.7,7.8C465.4,161.6,467.6,162.5,467.6,165.4z M441.1,67c-5.6,0-17.4-12-17.4-17.4s11.8-17.2,17.4-17.2
		c5.4,0,17.2,11.8,17.2,17.2C458.3,55.2,446.5,67,441.1,67z"/>
	<path class="st2" d="M565.8,122.2c0,27.2-21.6,49.9-49.9,49.9c-29,0-49.6-19.1-49.6-48.8c0-27.2,21.8-49.9,51-49.9
		C546.4,73.4,565.8,93.9,565.8,122.2z M514.4,86.8c-12.3,0-19.2,10.5-19.2,28.9c0,12.7,4.4,42.5,22.5,42.5
		c12.7,0,19.1-13.6,19.1-30.9C536.8,114.2,533,86.8,514.4,86.8z"/>
	<path class="st2" d="M681.3,165.4c0,3.1-3.1,4.7-7.1,4.7H635c-4,0-7.1-1.6-7.1-4.7c0-2.7,2.2-4,4.5-5.4c3.6-2.2,5.6-4.7,6.7-7.6
		c0.9-2.5,1.8-6.5,1.8-19.2v-22.3c0-9.6-4.5-16.9-14.7-16.9c-3.8,0-8.4,1.3-12,4.9c-6.2,6-8.2,15.8-8.2,34.3
		c0,12.7,0.9,16.7,1.8,19.2c0.9,2.9,3.1,5.6,6.7,7.6c2.4,1.5,4.5,2.7,4.5,5.4c0,3.1-3.1,4.7-7.1,4.7H573c-4,0-6.9-1.6-6.9-4.7
		c0-2.7,2-4,4.4-5.4c3.6-2,5.8-4.7,6.7-7.6c0.9-2.5,1.8-6.5,1.8-19.2V110c0-5.3-0.2-9.1-1.3-12s-2.9-4.5-6.4-6c-2-0.9-5.8-2-5.8-5.1
		c0-2.5,2-4.2,6.2-5.1c8.4-2,17.2-4.7,24.1-7.3c2-0.7,3.5-1.1,5.3-1.1c2.4,0,4.7,1.3,4.7,6.2v8.7c0,0.9,0.4,1.3,0.7,1.3
		c0.4,0,0.7-0.4,1.1-0.9c7.4-10.5,18.2-15.3,29.4-15.3c9.6,0,19.6,4.2,25.4,13.3c4.2,6.2,5.4,14.3,5.4,24.1v22.3
		c0,12.7,1.1,16.7,1.8,19.2c0.9,2.9,3.3,5.6,6.7,7.6C679.3,161.4,681.3,162.7,681.3,165.4z"/>
	<path class="st2" d="M678.9,113.3c0-1.8,0.9-2.7,2.7-2.7h43.6c1.8,0,2.7,0.9,2.7,2.7V128c0,1.8-1.1,2.7-2.7,2.7h-43.6
		c-1.8,0-2.7-0.7-2.7-2.7V113.3z"/>
	<path class="st2" d="M901.7,165.4c-0.2,3.1-3.1,4.7-7.1,4.7h-39c-4,0-7.1-1.6-7.1-4.7c0-2.7,2.2-4,4.5-5.4c3.5-2.2,5.6-4.5,6.7-7.6
		c0.9-2.5,1.8-6.5,1.8-19.1v-22.7c0-8.5-3.8-16.9-14.7-16.9c-3.8,0-8.2,1.3-11.8,4.9c-6.2,6-6.4,16.2-6.4,34.7
		c0,13.4,0.4,18.2,0.9,20.3c0.5,2.5,1.8,4.5,4.2,6.2c1.8,1.5,4.7,2.7,4.7,5.6c-0.2,3.1-3.1,4.7-7.1,4.7h-32.7
		c-3.8,0-6.9-1.6-6.9-4.7c0-2.9,2.5-4.2,4.7-5.6c2.2-1.6,3.4-3.6,4-6.2c0.5-2.2,0.9-6.7,0.9-20.3v-20.5c0-9.6-3.3-19.1-14.7-19.1
		c-3.6,0-7.4,1.3-10.5,4.4c-6.2,6-7.6,16-7.6,35.2c0,12.5,1.1,16.5,1.8,19.1c1.1,3.1,3.3,5.8,6.7,7.8c2.5,1.5,4.5,2.5,4.5,5.3
		c0,3.1-3.1,4.7-7.1,4.7h-39c-4,0-6.9-1.6-6.9-4.7c0-2.7,2-4,4.4-5.3c3.6-2,5.6-4.7,6.7-7.8c0.9-2.5,1.8-6.5,1.8-19.1v-23.6
		c0-5.3-0.2-9.1-1.3-12s-3.1-4.5-6.7-6c-1.8-0.7-5.6-1.6-5.6-5.1c0-2.4,2-3.8,6.2-4.9c8.2-2,18.2-4.9,24.7-7.3
		c1.5-0.5,3.1-1.1,4.9-1.1c2.5,0,4.9,1.1,4.9,6.2v9.1c0,0.5,0.4,0.9,0.7,0.9c0.2,0,0.5,0,0.9-0.5c7.4-10.9,18.3-15.6,29.6-15.6
		c10.9,0,21.1,5.3,26.3,14.9c0.5,0.9,0.9,1.1,1.3,1.1c0.4,0,0.7,0,1.5-1.1c6.9-10,17.8-14.9,29-14.9c9.4,0,19.6,4.2,25.2,13.1
		c4,6.4,5.4,14.3,5.4,24v22.9c0,12.5,0.9,16.5,1.8,19.1c1.1,3.1,3.1,5.4,6.7,7.6C899.5,161.4,901.7,162.7,901.7,165.4z"/>
	<path class="st2" d="M994.5,159.8c0,2.7-2,5.3-4.4,7.3c-4,3.3-10.2,5.1-15.6,5.1c-7.8,0-15.6-4-18-13.6c-0.2-0.7-0.2-1.1-0.5-1.1
		c-0.2,0-0.4,0.2-0.9,0.9c-7.3,9.4-18.7,13.8-29.6,13.8c-14.3,0-28.7-7.8-28.7-24.1c0-8.4,4.2-16.9,13.1-22.2
		c8.9-5.3,21.4-8.5,30-12.3c5.8-2.7,13.6-7.3,13.6-15.4c0-6.4-4.4-10.7-11.8-10.7c-4.2,0-8,1.3-11.1,3.5
		c-10,6.7-10.7,17.1-18.5,17.1c-6,0-8-2.9-8-11.4c0-4.9,0.9-10.5,3.4-13.6c6-7.6,25.4-9.4,34.7-9.4c18.7,0,40.5,8.5,40.5,30.7
		c0,12.2-0.9,23.1-0.9,34.9c0,11.4,0,16.5,8.2,16.9C992.7,156,994.5,157.1,994.5,159.8z M953.5,123.1c0-0.7-0.2-1.1-0.5-1.1
		c-0.4,0-0.5,0.2-1.1,0.5c-4.7,2.9-12.5,5.1-18.9,10c-5.3,3.8-7.1,8.2-7.1,12c0,6.4,4.5,10.7,11.3,10.7c5.4,0,11.1-3.3,14-9.1
		c2.4-4.9,2.4-10.3,2.4-21.2v-1.8C953.6,123.1,953.5,123.1,953.5,123.1z"/>
	<path class="st2" d="M1109.3,165.6c0,2.7-2.2,4.5-6,4.5h-17.6c-5.8,0-9.1-0.2-12.9-2c-4.9-2.4-7.8-7.4-15.1-21.2
		c-6.5-12.3-9.1-16.2-12.5-16.2c-2.4,0-4.4,1.8-7.6,4.9l-3.3,3.3c-0.9,0.9-0.9,1.6-0.9,2.9c0.2,5.8,1.1,8.7,1.6,10.2
		c1.3,3.3,3.4,5.8,6.9,8c2.4,1.5,4.4,2.7,4.4,5.3c0,3.3-2.9,4.9-6.9,4.9h-39.9c-4,0-7.3-1.6-7.3-4.9c0-2.7,2.4-3.8,4.7-5.3
		c3.4-2.2,5.6-4.9,6.9-8c1.1-2.5,1.8-6.5,1.8-19.4v-61c0-5.4-0.2-9.4-1.3-12.3c-1.1-2.9-3.3-4.5-6.9-6.2c-2-0.9-5.8-1.8-5.8-4.9
		c0-2.7,1.8-4.2,6.2-5.3c8.5-2,19.1-4.9,25.8-7.4c1.1-0.4,2.9-1.1,4.7-1.1c2.5,0,4.9,1.3,4.9,6.4v76.6c0,0.7,0.2,1.1,0.5,1.1
		c0.4,0,0.5-0.2,1.1-0.7l12.9-12.7c5.4-5.4,12-12.7,12-16.9c0-4.2-5.3-4.2-5.3-8.4c0-3.1,2.5-4.4,6.4-4.4h38.5
		c4.4,0,6.2,1.3,6.2,4.5c0,4-4.9,4.7-9.4,6.5c-10.2,3.8-18.7,10.5-34,25.4c-0.4,0.4-0.5,0.5-0.5,0.9c0,0.5,0.5,1.1,1.1,1.1
		c0.9,0,1.6-0.9,4-0.9c6.5,0,11.1,8.4,18,20.9c8.9,16,12.7,21.2,17.8,25.2C1105.4,161.4,1109.3,162.3,1109.3,165.6z"/>
	<path class="st2" d="M1158.8,165.4c0,3.1-3.1,4.7-7.1,4.7h-39c-4,0-7.1-1.6-7.1-4.7c0-2.7,2-3.8,4.5-5.3c3.4-2,5.6-4.7,6.7-7.8
		c0.9-2.5,1.8-6.4,1.8-19.1v-23.6c0-5.3-0.2-9.1-1.3-12c-1.1-2.9-3.1-4.5-6.7-6c-2-0.9-5.6-1.8-5.6-5.1c0-2.5,1.8-3.8,6-4.9
		c8.4-2,18.7-4.9,25.2-7.3c1.1-0.4,2.9-1.1,4.7-1.1c2.4,0,4.7,1.3,4.7,6.2c0,0,0,47.8,0,53.7c0,12.5,0.9,16.5,1.8,19.1
		c1.1,3.1,3.3,5.8,6.7,7.8C1156.7,161.6,1158.8,162.5,1158.8,165.4z M1132.3,67c-5.6,0-17.4-12-17.4-17.4s11.8-17.2,17.4-17.2
		c5.4,0,17.2,11.8,17.2,17.2C1149.6,55.2,1137.8,67,1132.3,67z"/>
	<path class="st2" d="M1274.3,165.4c0,3.1-3.1,4.7-7.1,4.7H1228c-4,0-7.1-1.6-7.1-4.7c0-2.7,2.2-4,4.5-5.4c3.6-2.2,5.6-4.7,6.7-7.6
		c0.9-2.5,1.8-6.5,1.8-19.2v-22.3c0-9.6-4.5-16.9-14.7-16.9c-3.8,0-8.4,1.3-12,4.9c-6.2,6-8.2,15.8-8.2,34.3
		c0,12.7,0.9,16.7,1.8,19.2c0.9,2.9,3.1,5.6,6.7,7.6c2.4,1.5,4.5,2.7,4.5,5.4c0,3.1-3.1,4.7-7.1,4.7H1166c-4,0-6.9-1.6-6.9-4.7
		c0-2.7,2-4,4.4-5.4c3.6-2,5.8-4.7,6.7-7.6c0.9-2.5,1.8-6.5,1.8-19.2V110c0-5.3-0.2-9.1-1.3-12c-1.1-2.9-2.9-4.5-6.4-6
		c-2-0.9-5.8-2-5.8-5.1c0-2.5,2-4.2,6.2-5.1c8.4-2,17.2-4.7,24.1-7.3c2-0.7,3.4-1.1,5.3-1.1c2.4,0,4.7,1.3,4.7,6.2v8.7
		c0,0.9,0.4,1.3,0.7,1.3c0.4,0,0.7-0.4,1.1-0.9c7.4-10.5,18.2-15.3,29.4-15.3c9.6,0,19.6,4.2,25.4,13.3c4.2,6.2,5.4,14.3,5.4,24.1
		v22.3c0,12.7,1.1,16.7,1.8,19.2c0.9,2.9,3.3,5.6,6.7,7.6C1272.3,161.4,1274.3,162.7,1274.3,165.4z"/>
	<path class="st2" d="M1355.3,158.1c4.9,3.4,8.5,9.1,8.5,16.5c0,9.6-5.4,16.5-12,21.2c-10.2,7.3-25.4,9.3-39,9.3
		c-14,0-44.7-2.7-44.7-22.5c0-7.8,5.3-13.3,12.7-15.8c0.5-0.2,0.5-0.4,0.5-0.5c0-0.2-0.2-0.4-0.4-0.5c-2.4-2.7-3.6-6.2-3.6-9.4
		c0-8.2,6.4-14.2,14.3-17.2c0.4-0.2,0.7-0.4,0.7-0.9c0-0.4-0.4-0.5-0.7-0.7c-11.4-5.4-19.1-15.8-19.1-29.2
		c0-19.1,18.2-34.9,41.2-34.9c7.8,0,14.7,1.5,21.1,4.4c6,2.7,7.3,4.2,9.4,4.2c5.3-0.2,4-9.1,12.7-9.1c5.1,0,8.9,3.3,8.9,9.6
		c0,6.2-4.4,10.5-11.8,10.5c-0.9,0-1.8,0-2.7-0.2c2.2,4.4,3.5,9.3,3.5,14.5c0,20.2-18.7,34.9-40.7,34.9h-2.7
		c-5.3,0-11.6,0.9-11.6,5.4c0,5.3,9.8,5.4,14.3,5.4c5.8,0,13.1-0.2,18.2-0.2C1341.3,152.9,1349.5,154,1355.3,158.1z M1328.4,175.2
		c-4,0-9.1,0.2-13.4,0.2c-8,0-17.1-0.2-24.3-3.1c-0.5,1.5-1.5,2.7-1.5,5.3c0,11.8,16.7,14.7,27.1,14.7c16,0,25.2-5.1,25.2-11.1
		C1341.5,176.1,1336,175.2,1328.4,175.2z M1300.6,103.5c0,8.4,2.9,25.2,14.5,25.2c7.4,0,11.6-8,11.6-18.2c0-8.7-2.5-24.3-14-24.3
		C1303.7,86.3,1300.6,94.6,1300.6,103.5z"/>
</g>
<g>
	<path class="st2" d="M902.4,302.9c-0.2,3.1-3.1,4.7-7.1,4.7h-39c-4,0-7.1-1.6-7.1-4.7c0-2.7,2.2-4,4.5-5.4c3.5-2.2,5.6-4.5,6.7-7.6
		c0.9-2.5,1.8-6.5,1.8-19.1v-22.7c0-8.5-3.8-16.9-14.7-16.9c-3.8,0-8.2,1.3-11.8,4.9c-6.2,6-6.4,16.2-6.4,34.7
		c0,13.4,0.4,18.2,0.9,20.3c0.5,2.5,1.8,4.5,4.2,6.2c1.8,1.5,4.7,2.7,4.7,5.6c-0.2,3.1-3.1,4.7-7.1,4.7h-32.7
		c-3.8,0-6.9-1.6-6.9-4.7c0-2.9,2.5-4.2,4.7-5.6c2.2-1.6,3.4-3.6,4-6.2c0.5-2.2,0.9-6.7,0.9-20.3v-20.5c0-9.6-3.3-19.1-14.7-19.1
		c-3.6,0-7.4,1.3-10.5,4.4c-6.2,6-7.6,16-7.6,35.2c0,12.5,1.1,16.5,1.8,19.1c1.1,3.1,3.3,5.8,6.7,7.8c2.5,1.5,4.5,2.5,4.5,5.3
		c0,3.1-3.1,4.7-7.1,4.7h-39c-4,0-6.9-1.6-6.9-4.7c0-2.7,2-4,4.4-5.3c3.6-2,5.6-4.7,6.7-7.8c0.9-2.5,1.8-6.5,1.8-19.1v-23.6
		c0-5.3-0.2-9.1-1.3-12s-3.1-4.5-6.7-6c-1.8-0.7-5.6-1.6-5.6-5.1c0-2.4,2-3.8,6.2-4.9c8.2-2,18.2-4.9,24.7-7.3
		c1.5-0.5,3.1-1.1,4.9-1.1c2.5,0,4.9,1.1,4.9,6.2v9.1c0,0.5,0.4,0.9,0.7,0.9c0.2,0,0.5,0,0.9-0.5c7.4-10.9,18.3-15.6,29.6-15.6
		c10.9,0,21.1,5.3,26.3,14.9c0.5,0.9,0.9,1.1,1.3,1.1c0.4,0,0.7,0,1.5-1.1c6.9-10,17.8-14.9,29.1-14.9c9.4,0,19.6,4.2,25.2,13.1
		c4,6.4,5.4,14.3,5.4,24v22.9c0,12.5,0.9,16.5,1.8,19.1c1.1,3.1,3.1,5.4,6.7,7.6C900.3,298.9,902.4,300.2,902.4,302.9z"/>
	<path class="st2" d="M995.2,297.3c0,2.7-2,5.3-4.4,7.3c-4,3.3-10.2,5.1-15.6,5.1c-7.8,0-15.6-4-18-13.6c-0.2-0.7-0.2-1.1-0.5-1.1
		c-0.2,0-0.4,0.2-0.9,0.9c-7.3,9.4-18.7,13.8-29.6,13.8c-14.3,0-28.7-7.8-28.7-24.1c0-8.4,4.2-16.9,13.1-22.2
		c8.9-5.3,21.4-8.5,30-12.3c5.8-2.7,13.6-7.3,13.6-15.4c0-6.4-4.4-10.7-11.8-10.7c-4.2,0-8,1.3-11.1,3.5
		c-10,6.7-10.7,17.1-18.5,17.1c-6,0-8-2.9-8-11.4c0-4.9,0.9-10.5,3.4-13.6c6-7.6,25.4-9.4,34.7-9.4c18.7,0,40.5,8.5,40.5,30.7
		c0,12.2-0.9,23.1-0.9,34.9c0,11.4,0,16.5,8.2,16.9C993.4,293.5,995.2,294.5,995.2,297.3z M954.2,260.6c0-0.7-0.2-1.1-0.5-1.1
		c-0.4,0-0.5,0.2-1.1,0.5c-4.7,2.9-12.5,5.1-18.9,10c-5.3,3.8-7.1,8.2-7.1,12c0,6.4,4.5,10.7,11.3,10.7c5.4,0,11.1-3.3,14-9.1
		c2.4-4.9,2.4-10.3,2.4-21.2v-1.8H954.2z"/>
	<path class="st2" d="M1063.9,289.8c0,1.8-0.9,4.2-2.4,6.2c-5.6,8.4-16.3,13.6-27.4,13.6c-13.4,0-22.2-6.4-26.3-14.2
		c-3.1-5.8-4.2-13.1-4.2-22.9c0-12,1.5-24.1,1.8-40.7c0-1.5-0.5-2-2-2c-4.2,0-11.1,0-11.1,0c-1.6,0-2.7-1.1-2.7-2.9v-7.8
		c0-1.6,0.9-2.7,3.1-3.1c9.3-1.5,14.3-4.9,17.2-9.1c3.1-4.4,3.6-9.4,4.4-13.1c0.4-2,1.3-2.9,3.1-2.9h11.8c1.6,0,2.7,1.1,2.7,2.7
		c0,0,0,16.7,0,17.1c0,4.9,0.4,5.4,4.7,5.4c3.1,0,5.3-0.2,8.4-0.5c3.3-0.4,6.9-0.9,10.3-0.9c2.2,0,6.4,0.2,6.4,3.6
		c0,1.5-0.7,3.6-1.1,5.4c-1.1,4.7-2.5,6.7-8.4,6.7c-2.7,0-6-0.4-9.3-0.5c-2.9-0.2-6.7-0.2-9.4-0.2c-1.3,0-2,0.7-2,2
		c-0.2,4.4-0.2,9.6-0.2,15.1c0,13.4,0.5,28,2.7,34.7c2.5,7.8,8.2,10,12.2,10c7.3,0,10.2-5.6,14-5.6
		C1062.2,286,1063.9,287.6,1063.9,289.8z"/>
	<path class="st2" d="M1141.8,228.3c0,5.6-2.9,11.1-8.9,11.1c-5.6,0-8.7-4.9-15.1-4.9c-14.9,0-16.3,24.1-16.3,36.3
		c0,12.7,0.9,16.5,1.8,19.1c0.9,3.1,3.1,5.8,6.7,7.8c2.4,1.3,4.4,2.5,4.4,5.3c0,3.1-2.9,4.7-6.9,4.7h-39c-4,0-7.1-1.5-7.1-4.7
		c0-2.7,2-3.8,4.5-5.3c3.4-2,5.6-4.7,6.7-7.8c0.9-2.5,1.6-6.4,1.6-19.1V247c0-5.1-0.2-8.9-1.1-11.8c-0.9-2.9-2.7-4.7-6.7-6.2
		c-2-0.7-5.6-1.5-5.6-5.1c0-2.4,1.8-3.8,6-4.7c8.2-1.8,15.3-4,22.3-6.9c2.5-1.1,4.2-1.5,5.6-1.5c2.7,0,4.9,1.6,4.9,6v13.8
		c0,0.5,0.2,0.7,0.4,0.7c0.2,0,0.4,0,0.7-0.7c4.4-8.7,13.8-19.8,25.4-19.8C1136.7,210.8,1141.8,219,1141.8,228.3z"/>
	<path class="st2" d="M1187.9,302.9c0,3.1-3.1,4.7-7.1,4.7h-39c-4,0-7.1-1.6-7.1-4.7c0-2.7,2-3.8,4.5-5.3c3.4-2,5.6-4.7,6.7-7.8
		c0.9-2.5,1.8-6.4,1.8-19.1v-23.6c0-5.3-0.2-9.1-1.3-12c-1.1-2.9-3.1-4.5-6.7-6c-2-0.9-5.6-1.8-5.6-5.1c0-2.5,1.8-3.8,6-4.9
		c8.4-2,18.7-4.9,25.2-7.3c1.1-0.4,2.9-1.1,4.7-1.1c2.4,0,4.7,1.3,4.7,6.2c0,0,0,47.8,0,53.7c0,12.5,0.9,16.5,1.8,19.1
		c1.1,3.1,3.3,5.8,6.7,7.8C1185.7,299.1,1187.9,300,1187.9,302.9z"/>
	<path class="st2" d="M1294.5,303.1c0,2.7-2,4.5-6.2,4.5h-44.5c-4.2,0-6.4-1.8-6.4-4.2c0-4.4,6.5-4.7,6.5-10.2
		c0-3.4-2.9-7.8-8.7-15.8l-4.4-5.8c-0.4-0.4-0.5-0.5-0.9-0.5c-0.5,0-0.9,0.4-1.5,1.1c-3.4,5.1-9.3,13.6-9.3,18.7
		c0,7.6,8.9,7.4,8.9,12.2c0,3.1-2.4,4.5-6.2,4.5h-32.5c-4.5,0-6.7-1.6-6.7-4.5s2.5-4.4,6.4-7.1c5.4-4,11.4-10.2,20.7-22.5l9.6-12.9
		c0.5-0.7,0.7-1.5,0.7-2c0-0.7-0.4-1.5-0.9-2.2l-11.6-15.4c-8.2-10.7-10.5-13.8-17.4-17.1c-3.1-1.5-7.4-2.4-7.4-6.4
		c0-2.9,2-4.7,6.4-4.7h44.5c4.2,0,6.4,1.8,6.4,4.4c0,4.4-6.5,4.4-6.5,10c0,3.4,2.9,8,8.7,16l4,5.4c0.5,0.7,0.9,0.9,1.3,0.9
		s0.7-0.4,1.1-0.9c3.8-5.8,9.3-14,9.3-19.2c0-7.6-8.9-6.9-8.9-12c0-3.1,2.5-4.5,6.4-4.5h32.3c4.5,0,6.9,1.6,6.9,4.7
		c0,2.9-2.5,4.2-6.5,7.1c-5.1,3.6-11.3,10.2-20.7,22.3c-1.8,2.4-5.6,7.4-9.4,13.3c-0.4,0.5-0.7,1.1-0.7,1.6s0.2,1.1,0.7,1.8l12,15.8
		c8.2,10.7,10.9,14,18,17.6C1290.7,298.5,1294.5,299.4,1294.5,303.1z"/>
</g>
<g>
	<path class="st3" d="M110.8,159.1c0,2.2-2,3.6-6.2,4.7c-8.2,2-17.6,4.9-23.1,6.7c-2.7,0.9-4.5,1.6-6.4,1.6c-2.4,0-4.7-1.3-4.7-6.2
		v-7.3c0-1.3-0.5-2-1.3-2c-0.5,0-1.1,0.4-1.6,1.1c-6.7,8.4-17.2,14.3-28.7,14.3C16.3,172,1,152.2,1,127.5
		c0-26.9,17.2-54.3,47.4-54.3c7.1,0,14.2,1.6,19.6,4c0.9,0.4,1.3,0.5,1.6,0.5c0.5,0,0.7-0.4,0.7-1.3v-5.8c0-5.3-0.2-9.1-1.3-12
		c-1.1-2.9-3.1-4.5-6.7-6c-1.8-0.7-5.6-1.8-5.6-4.9c0-2.7,2-4,6.2-5.1c8.2-2,18.3-4.9,24.7-7.3c1.1-0.4,2.9-1.1,4.7-1.1
		c2.4,0,4.7,1.3,4.7,6.2v95.1c0,5.3,0.2,9.1,1.3,12c1.1,2.9,3.1,4.5,6.5,6C107,154.7,110.8,155.8,110.8,159.1z M70.5,120.9
		c0-21.6-8.5-33.6-20.9-33.6c-15.8,0-20.2,18.5-20.2,32.5c0,18.9,7.8,32.7,21.1,32.7C61.1,152.5,70.5,142.7,70.5,120.9z"/>
	<path class="st3" d="M196.1,150c0,4-5.4,9.8-10.9,13.4c-8.2,5.4-19.1,8.7-30,8.7c-26.5,0-46.5-18.3-46.5-46.8
		c0-27.2,20.2-51.9,48.5-51.9c20.5,0,40.7,14.3,40.7,37c0,10.5-4.7,12.2-15.4,12.2h-43.6c-1.1,0-2,0.4-2,1.6c0,0.4,0,0.7,0.2,2.2
		c0.2,1.8,0.9,7.6,4.7,13.6c6.2,9.6,15.6,13.6,26.5,13.6c14.3,0,19.4-7.4,23.8-7.4C194.2,146.2,196.1,147.8,196.1,150z M136.8,107.5
		c0,0.9,0.5,1.6,1.8,1.6c0.4,0,21.1,0,21.1,0c6.5,0,11.4-1.1,11.4-8c0-6.7-5.4-14.2-14.7-14.2c-10.2,0-17.4,7.4-19.4,18.9
		C136.8,106.9,136.8,107.1,136.8,107.5z"/>
	<path class="st3" d="M271,162.7c-6.7,5.4-16.9,9.4-29.6,9.4c-26.7,0-44.5-18-44.5-44.7c0-29.8,20.7-54.1,52.5-54.1
		c7.1,0,18.5,1.1,24,7.1c2.9,3.3,4,8.2,4,12.5c0,6.9-1.3,12.9-7.6,12.9c-4.9,0-6.5-4.9-10-9.6s-7.1-9.6-14.7-9.6
		c-12.5,0-20.7,12.7-20.7,29.1c0,17.8,8.9,38.1,29.1,38.1c11.8,0,18.9-7.8,23.2-7.8c1.8,0,3.8,1.3,3.8,3.8
		C280.4,152.9,276.9,157.8,271,162.7z"/>
	<path class="st3" d="M332.3,165.4c0,3.1-3.1,4.7-7.1,4.7h-39c-4,0-7.1-1.6-7.1-4.7c0-2.7,2-3.8,4.5-5.3c3.5-2,5.6-4.7,6.7-7.8
		c0.9-2.5,1.8-6.4,1.8-19.1v-23.6c0-5.3-0.2-9.1-1.3-12s-3.1-4.5-6.7-6c-2-0.9-5.6-1.8-5.6-5.1c0-2.5,1.8-3.8,6-4.9
		c8.4-2,18.7-4.9,25.2-7.3c1.1-0.4,2.9-1.1,4.7-1.1c2.4,0,4.7,1.3,4.7,6.2c0,0,0,47.8,0,53.7c0,12.5,0.9,16.5,1.8,19.1
		c1.1,3.1,3.3,5.8,6.7,7.8C330.1,161.6,332.3,162.5,332.3,165.4z M305.8,67c-5.6,0-17.4-12-17.4-17.4s11.8-17.2,17.4-17.2
		c5.4,0,17.2,11.8,17.2,17.2C323.1,55.2,311.3,67,305.8,67z"/>
	<path class="st3" d="M337.4,135.8c4,0,6.2,3.4,11.1,9.6c6.5,8.4,14,12.2,21.4,12.2c5.6,0,13.6-3.1,13.6-10.2
		c0-17.1-49.9-7.6-49.9-41.8c0-21.1,19.6-32.3,40.3-32.3c9.8,0,18.5,2.4,22.5,4.4c6.7,3.6,8.2,10.5,8.2,15.8
		c0,7.8-1.1,11.4-7.3,11.4c-2.4,0-4.2-0.9-6.7-4.7C387,94.8,381.2,87,370.3,87c-7.6,0-12.5,4.2-12.5,9.8c0,15.8,51.4,8.5,51.4,43.2
		c0,8.4-3.8,17.1-13.1,23.6c-8.7,6.2-19.4,8.5-29.6,8.5c-12.9,0-24.7-3.8-29.8-8c-4.7-4.2-6.2-12.5-6.2-19.2
		C330.5,140.4,332,135.8,337.4,135.8z"/>
	<path class="st3" d="M461.8,165.4c0,3.1-3.1,4.7-7.1,4.7h-39c-4,0-7.1-1.6-7.1-4.7c0-2.7,2-3.8,4.5-5.3c3.5-2,5.6-4.7,6.7-7.8
		c0.9-2.5,1.8-6.4,1.8-19.1v-23.6c0-5.3-0.2-9.1-1.3-12s-3.1-4.5-6.7-6c-2-0.9-5.6-1.8-5.6-5.1c0-2.5,1.8-3.8,6-4.9
		c8.4-2,18.7-4.9,25.2-7.3c1.1-0.4,2.9-1.1,4.7-1.1c2.4,0,4.7,1.3,4.7,6.2c0,0,0,47.8,0,53.7c0,12.5,0.9,16.5,1.8,19.1
		c1.1,3.1,3.3,5.8,6.7,7.8C459.6,161.6,461.8,162.5,461.8,165.4z M435.3,67c-5.6,0-17.4-12-17.4-17.4s11.8-17.2,17.4-17.2
		c5.4,0,17.2,11.8,17.2,17.2C452.5,55.2,440.7,67,435.3,67z"/>
	<path class="st3" d="M560,122.2c0,27.2-21.6,49.9-49.9,49.9c-29,0-49.6-19.1-49.6-48.8c0-27.2,21.8-49.9,51-49.9
		C540.6,73.4,560,93.9,560,122.2z M508.6,86.8c-12.3,0-19.2,10.5-19.2,28.9c0,12.7,4.4,42.5,22.5,42.5c12.7,0,19.1-13.6,19.1-30.9
		C531,114.2,527.2,86.8,508.6,86.8z"/>
	<path class="st3" d="M675.5,165.4c0,3.1-3.1,4.7-7.1,4.7h-39.2c-4,0-7.1-1.6-7.1-4.7c0-2.7,2.2-4,4.5-5.4c3.6-2.2,5.6-4.7,6.7-7.6
		c0.9-2.5,1.8-6.5,1.8-19.2v-22.3c0-9.6-4.5-16.9-14.7-16.9c-3.8,0-8.4,1.3-12,4.9c-6.2,6-8.2,15.8-8.2,34.3
		c0,12.7,0.9,16.7,1.8,19.2c0.9,2.9,3.1,5.6,6.7,7.6c2.4,1.5,4.5,2.7,4.5,5.4c0,3.1-3.1,4.7-7.1,4.7h-38.9c-4,0-6.9-1.6-6.9-4.7
		c0-2.7,2-4,4.4-5.4c3.6-2,5.8-4.7,6.7-7.6c0.9-2.5,1.8-6.5,1.8-19.2V110c0-5.3-0.2-9.1-1.3-12s-2.9-4.5-6.4-6c-2-0.9-5.8-2-5.8-5.1
		c0-2.5,2-4.2,6.2-5.1c8.4-2,17.2-4.7,24.1-7.3c2-0.7,3.5-1.1,5.3-1.1c2.4,0,4.7,1.3,4.7,6.2v8.7c0,0.9,0.4,1.3,0.7,1.3
		c0.4,0,0.7-0.4,1.1-0.9c7.4-10.5,18.2-15.3,29.4-15.3c9.6,0,19.6,4.2,25.4,13.3c4.2,6.2,5.4,14.3,5.4,24.1v22.3
		c0,12.7,1.1,16.7,1.8,19.2c0.9,2.9,3.3,5.6,6.7,7.6C673.5,161.4,675.5,162.7,675.5,165.4z"/>
	<path class="st3" d="M673.1,113.3c0-1.8,0.9-2.7,2.7-2.7h43.6c1.8,0,2.7,0.9,2.7,2.7V128c0,1.8-1.1,2.7-2.7,2.7h-43.6
		c-1.8,0-2.7-0.7-2.7-2.7V113.3z"/>
	<path class="st3" d="M895.9,165.4c-0.2,3.1-3.1,4.7-7.1,4.7h-39c-4,0-7.1-1.6-7.1-4.7c0-2.7,2.2-4,4.5-5.4c3.5-2.2,5.6-4.5,6.7-7.6
		c0.9-2.5,1.8-6.5,1.8-19.1v-22.7c0-8.5-3.8-16.9-14.7-16.9c-3.8,0-8.2,1.3-11.8,4.9c-6.2,6-6.4,16.2-6.4,34.7
		c0,13.4,0.4,18.2,0.9,20.3c0.5,2.5,1.8,4.5,4.2,6.2c1.8,1.5,4.7,2.7,4.7,5.6c-0.2,3.1-3.1,4.7-7.1,4.7h-32.7
		c-3.8,0-6.9-1.6-6.9-4.7c0-2.9,2.5-4.2,4.7-5.6c2.2-1.6,3.4-3.6,4-6.2c0.5-2.2,0.9-6.7,0.9-20.3v-20.5c0-9.6-3.3-19.1-14.7-19.1
		c-3.6,0-7.4,1.3-10.5,4.4c-6.2,6-7.6,16-7.6,35.2c0,12.5,1.1,16.5,1.8,19.1c1.1,3.1,3.3,5.8,6.7,7.8c2.5,1.5,4.5,2.5,4.5,5.3
		c0,3.1-3.1,4.7-7.1,4.7h-39c-4,0-6.9-1.6-6.9-4.7c0-2.7,2-4,4.4-5.3c3.6-2,5.6-4.7,6.7-7.8c0.9-2.5,1.8-6.5,1.8-19.1v-23.6
		c0-5.3-0.2-9.1-1.3-12s-3.1-4.5-6.7-6c-1.8-0.7-5.6-1.6-5.6-5.1c0-2.4,2-3.8,6.2-4.9c8.2-2,18.2-4.9,24.7-7.3
		c1.5-0.5,3.1-1.1,4.9-1.1c2.5,0,4.9,1.1,4.9,6.2v9.1c0,0.5,0.4,0.9,0.7,0.9c0.2,0,0.5,0,0.9-0.5c7.4-10.9,18.3-15.6,29.6-15.6
		c10.9,0,21.1,5.3,26.3,14.9c0.5,0.9,0.9,1.1,1.3,1.1c0.4,0,0.7,0,1.5-1.1c6.9-10,17.8-14.9,29-14.9c9.4,0,19.6,4.2,25.2,13.1
		c4,6.4,5.4,14.3,5.4,24v22.9c0,12.5,0.9,16.5,1.8,19.1c1.1,3.1,3.1,5.4,6.7,7.6C893.7,161.4,895.9,162.7,895.9,165.4z"/>
	<path class="st3" d="M988.7,159.8c0,2.7-2,5.3-4.4,7.3c-4,3.3-10.2,5.1-15.6,5.1c-7.8,0-15.6-4-18-13.6c-0.2-0.7-0.2-1.1-0.5-1.1
		c-0.2,0-0.4,0.2-0.9,0.9c-7.3,9.4-18.7,13.8-29.6,13.8c-14.3,0-28.7-7.8-28.7-24.1c0-8.4,4.2-16.9,13.1-22.2
		c8.9-5.3,21.4-8.5,30-12.3c5.8-2.7,13.6-7.3,13.6-15.4c0-6.4-4.4-10.7-11.8-10.7c-4.2,0-8,1.3-11.1,3.5
		c-10,6.7-10.7,17.1-18.5,17.1c-6,0-8-2.9-8-11.4c0-4.9,0.9-10.5,3.4-13.6c6-7.6,25.4-9.4,34.7-9.4c18.7,0,40.5,8.5,40.5,30.7
		c0,12.2-0.9,23.1-0.9,34.9c0,11.4,0,16.5,8.2,16.9C986.9,156,988.7,157.1,988.7,159.8z M947.7,123.1c0-0.7-0.2-1.1-0.5-1.1
		c-0.4,0-0.5,0.2-1.1,0.5c-4.7,2.9-12.5,5.1-18.9,10c-5.3,3.8-7.1,8.2-7.1,12c0,6.4,4.5,10.7,11.3,10.7c5.4,0,11.1-3.3,14-9.1
		c2.4-4.9,2.4-10.3,2.4-21.2v-1.8C947.8,123.1,947.7,123.1,947.7,123.1z"/>
	<path class="st3" d="M1103.5,165.6c0,2.7-2.2,4.5-6,4.5h-17.6c-5.8,0-9.1-0.2-12.9-2c-4.9-2.4-7.8-7.4-15.1-21.2
		c-6.5-12.3-9.1-16.2-12.5-16.2c-2.4,0-4.4,1.8-7.6,4.9l-3.3,3.3c-0.9,0.9-0.9,1.6-0.9,2.9c0.2,5.8,1.1,8.7,1.6,10.2
		c1.3,3.3,3.4,5.8,6.9,8c2.4,1.5,4.4,2.7,4.4,5.3c0,3.3-2.9,4.9-6.9,4.9h-39.9c-4,0-7.3-1.6-7.3-4.9c0-2.7,2.4-3.8,4.7-5.3
		c3.4-2.2,5.6-4.9,6.9-8c1.1-2.5,1.8-6.5,1.8-19.4v-61c0-5.4-0.2-9.4-1.3-12.3c-1.1-2.9-3.3-4.5-6.9-6.2c-2-0.9-5.8-1.8-5.8-4.9
		c0-2.7,1.8-4.2,6.2-5.3c8.5-2,19.1-4.9,25.8-7.4c1.1-0.4,2.9-1.1,4.7-1.1c2.5,0,4.9,1.3,4.9,6.4v76.6c0,0.7,0.2,1.1,0.5,1.1
		c0.4,0,0.5-0.2,1.1-0.7l12.9-12.7c5.4-5.4,12-12.7,12-16.9c0-4.2-5.3-4.2-5.3-8.4c0-3.1,2.5-4.4,6.4-4.4h38.5
		c4.4,0,6.2,1.3,6.2,4.5c0,4-4.9,4.7-9.4,6.5c-10.2,3.8-18.7,10.5-34,25.4c-0.4,0.4-0.5,0.5-0.5,0.9c0,0.5,0.5,1.1,1.1,1.1
		c0.9,0,1.6-0.9,4-0.9c6.5,0,11.1,8.4,18,20.9c8.9,16,12.7,21.2,17.8,25.2C1099.6,161.4,1103.5,162.3,1103.5,165.6z"/>
	<path class="st3" d="M1153,165.4c0,3.1-3.1,4.7-7.1,4.7h-39c-4,0-7.1-1.6-7.1-4.7c0-2.7,2-3.8,4.5-5.3c3.4-2,5.6-4.7,6.7-7.8
		c0.9-2.5,1.8-6.4,1.8-19.1v-23.6c0-5.3-0.2-9.1-1.3-12c-1.1-2.9-3.1-4.5-6.7-6c-2-0.9-5.6-1.8-5.6-5.1c0-2.5,1.8-3.8,6-4.9
		c8.4-2,18.7-4.9,25.2-7.3c1.1-0.4,2.9-1.1,4.7-1.1c2.4,0,4.7,1.3,4.7,6.2c0,0,0,47.8,0,53.7c0,12.5,0.9,16.5,1.8,19.1
		c1.1,3.1,3.3,5.8,6.7,7.8C1150.9,161.6,1153,162.5,1153,165.4z M1126.5,67c-5.6,0-17.4-12-17.4-17.4s11.8-17.2,17.4-17.2
		c5.4,0,17.2,11.8,17.2,17.2C1143.8,55.2,1132,67,1126.5,67z"/>
	<path class="st3" d="M1268.5,165.4c0,3.1-3.1,4.7-7.1,4.7h-39.2c-4,0-7.1-1.6-7.1-4.7c0-2.7,2.2-4,4.5-5.4c3.6-2.2,5.6-4.7,6.7-7.6
		c0.9-2.5,1.8-6.5,1.8-19.2v-22.3c0-9.6-4.5-16.9-14.7-16.9c-3.8,0-8.4,1.3-12,4.9c-6.2,6-8.2,15.8-8.2,34.3
		c0,12.7,0.9,16.7,1.8,19.2c0.9,2.9,3.1,5.6,6.7,7.6c2.4,1.5,4.5,2.7,4.5,5.4c0,3.1-3.1,4.7-7.1,4.7h-38.9c-4,0-6.9-1.6-6.9-4.7
		c0-2.7,2-4,4.4-5.4c3.6-2,5.8-4.7,6.7-7.6c0.9-2.5,1.8-6.5,1.8-19.2V110c0-5.3-0.2-9.1-1.3-12c-1.1-2.9-2.9-4.5-6.4-6
		c-2-0.9-5.8-2-5.8-5.1c0-2.5,2-4.2,6.2-5.1c8.4-2,17.2-4.7,24.1-7.3c2-0.7,3.4-1.1,5.3-1.1c2.4,0,4.7,1.3,4.7,6.2v8.7
		c0,0.9,0.4,1.3,0.7,1.3c0.4,0,0.7-0.4,1.1-0.9c7.4-10.5,18.2-15.3,29.4-15.3c9.6,0,19.6,4.2,25.4,13.3c4.2,6.2,5.4,14.3,5.4,24.1
		v22.3c0,12.7,1.1,16.7,1.8,19.2c0.9,2.9,3.3,5.6,6.7,7.6C1266.5,161.4,1268.5,162.7,1268.5,165.4z"/>
	<path class="st3" d="M1349.5,158.1c4.9,3.4,8.5,9.1,8.5,16.5c0,9.6-5.4,16.5-12,21.2c-10.2,7.3-25.4,9.3-39,9.3
		c-14,0-44.7-2.7-44.7-22.5c0-7.8,5.3-13.3,12.7-15.8c0.5-0.2,0.5-0.4,0.5-0.5c0-0.2-0.2-0.4-0.4-0.5c-2.4-2.7-3.6-6.2-3.6-9.4
		c0-8.2,6.4-14.2,14.3-17.2c0.4-0.2,0.7-0.4,0.7-0.9c0-0.4-0.4-0.5-0.7-0.7c-11.4-5.4-19.1-15.8-19.1-29.2
		c0-19.1,18.2-34.9,41.2-34.9c7.8,0,14.7,1.5,21.1,4.4c6,2.7,7.3,4.2,9.4,4.2c5.3-0.2,4-9.1,12.7-9.1c5.1,0,8.9,3.3,8.9,9.6
		c0,6.2-4.4,10.5-11.8,10.5c-0.9,0-1.8,0-2.7-0.2c2.2,4.4,3.5,9.3,3.5,14.5c0,20.2-18.7,34.9-40.7,34.9h-2.7
		c-5.3,0-11.6,0.9-11.6,5.4c0,5.3,9.8,5.4,14.3,5.4c5.8,0,13.1-0.2,18.2-0.2C1335.5,152.9,1343.7,154,1349.5,158.1z M1322.6,175.2
		c-4,0-9.1,0.2-13.4,0.2c-8,0-17.1-0.2-24.3-3.1c-0.5,1.5-1.5,2.7-1.5,5.3c0,11.8,16.7,14.7,27.1,14.7c16,0,25.2-5.1,25.2-11.1
		C1335.7,176.1,1330.2,175.2,1322.6,175.2z M1294.8,103.5c0,8.4,2.9,25.2,14.5,25.2c7.4,0,11.6-8,11.6-18.2c0-8.7-2.5-24.3-14-24.3
		C1297.9,86.3,1294.8,94.6,1294.8,103.5z"/>
</g>
<g>
	<path class="st3" d="M896.6,302.9c-0.2,3.1-3.1,4.7-7.1,4.7h-39c-4,0-7.1-1.6-7.1-4.7c0-2.7,2.2-4,4.5-5.4c3.5-2.2,5.6-4.5,6.7-7.6
		c0.9-2.5,1.8-6.5,1.8-19.1v-22.7c0-8.5-3.8-16.9-14.7-16.9c-3.8,0-8.2,1.3-11.8,4.9c-6.2,6-6.4,16.2-6.4,34.7
		c0,13.4,0.4,18.2,0.9,20.3c0.5,2.5,1.8,4.5,4.2,6.2c1.8,1.5,4.7,2.7,4.7,5.6c-0.2,3.1-3.1,4.7-7.1,4.7h-32.7
		c-3.8,0-6.9-1.6-6.9-4.7c0-2.9,2.5-4.2,4.7-5.6c2.2-1.6,3.4-3.6,4-6.2c0.5-2.2,0.9-6.7,0.9-20.3v-20.5c0-9.6-3.3-19.1-14.7-19.1
		c-3.6,0-7.4,1.3-10.5,4.4c-6.2,6-7.6,16-7.6,35.2c0,12.5,1.1,16.5,1.8,19.1c1.1,3.1,3.3,5.8,6.7,7.8c2.5,1.5,4.5,2.5,4.5,5.3
		c0,3.1-3.1,4.7-7.1,4.7h-39c-4,0-6.9-1.6-6.9-4.7c0-2.7,2-4,4.4-5.3c3.6-2,5.6-4.7,6.7-7.8c0.9-2.5,1.8-6.5,1.8-19.1v-23.6
		c0-5.3-0.2-9.1-1.3-12s-3.1-4.5-6.7-6c-1.8-0.7-5.6-1.6-5.6-5.1c0-2.4,2-3.8,6.2-4.9c8.2-2,18.2-4.9,24.7-7.3
		c1.5-0.5,3.1-1.1,4.9-1.1c2.5,0,4.9,1.1,4.9,6.2v9.1c0,0.5,0.4,0.9,0.7,0.9c0.2,0,0.5,0,0.9-0.5c7.4-10.9,18.3-15.6,29.6-15.6
		c10.9,0,21.1,5.3,26.3,14.9c0.5,0.9,0.9,1.1,1.3,1.1c0.4,0,0.7,0,1.5-1.1c6.9-10,17.8-14.9,29.1-14.9c9.4,0,19.6,4.2,25.2,13.1
		c4,6.4,5.4,14.3,5.4,24v22.9c0,12.5,0.9,16.5,1.8,19.1c1.1,3.1,3.1,5.4,6.7,7.6C894.5,298.9,896.6,300.2,896.6,302.9z"/>
	<path class="st3" d="M989.4,297.3c0,2.7-2,5.3-4.4,7.3c-4,3.3-10.2,5.1-15.6,5.1c-7.8,0-15.6-4-18-13.6c-0.2-0.7-0.2-1.1-0.5-1.1
		c-0.2,0-0.4,0.2-0.9,0.9c-7.3,9.4-18.7,13.8-29.6,13.8c-14.3,0-28.7-7.8-28.7-24.1c0-8.4,4.2-16.9,13.1-22.2
		c8.9-5.3,21.4-8.5,30-12.3c5.8-2.7,13.6-7.3,13.6-15.4c0-6.4-4.4-10.7-11.8-10.7c-4.2,0-8,1.3-11.1,3.5
		c-10,6.7-10.7,17.1-18.5,17.1c-6,0-8-2.9-8-11.4c0-4.9,0.9-10.5,3.4-13.6c6-7.6,25.4-9.4,34.7-9.4c18.7,0,40.5,8.5,40.5,30.7
		c0,12.2-0.9,23.1-0.9,34.9c0,11.4,0,16.5,8.2,16.9C987.6,293.5,989.4,294.5,989.4,297.3z M948.4,260.6c0-0.7-0.2-1.1-0.5-1.1
		c-0.4,0-0.5,0.2-1.1,0.5c-4.7,2.9-12.5,5.1-18.9,10c-5.3,3.8-7.1,8.2-7.1,12c0,6.4,4.5,10.7,11.3,10.7c5.4,0,11.1-3.3,14-9.1
		c2.4-4.9,2.4-10.3,2.4-21.2v-1.8H948.4z"/>
	<path class="st3" d="M1058.1,289.8c0,1.8-0.9,4.2-2.4,6.2c-5.6,8.4-16.3,13.6-27.4,13.6c-13.4,0-22.2-6.4-26.3-14.2
		c-3.1-5.8-4.2-13.1-4.2-22.9c0-12,1.5-24.1,1.8-40.7c0-1.5-0.5-2-2-2c-4.2,0-11.1,0-11.1,0c-1.6,0-2.7-1.1-2.7-2.9v-7.8
		c0-1.6,0.9-2.7,3.1-3.1c9.3-1.5,14.3-4.9,17.2-9.1c3.1-4.4,3.6-9.4,4.4-13.1c0.4-2,1.3-2.9,3.1-2.9h11.8c1.6,0,2.7,1.1,2.7,2.7
		c0,0,0,16.7,0,17.1c0,4.9,0.4,5.4,4.7,5.4c3.1,0,5.3-0.2,8.4-0.5c3.3-0.4,6.9-0.9,10.3-0.9c2.2,0,6.4,0.2,6.4,3.6
		c0,1.5-0.7,3.6-1.1,5.4c-1.1,4.7-2.5,6.7-8.4,6.7c-2.7,0-6-0.4-9.3-0.5c-2.9-0.2-6.7-0.2-9.4-0.2c-1.3,0-2,0.7-2,2
		c-0.2,4.4-0.2,9.6-0.2,15.1c0,13.4,0.5,28,2.7,34.7c2.5,7.8,8.2,10,12.2,10c7.3,0,10.2-5.6,14-5.6
		C1056.4,286,1058.1,287.6,1058.1,289.8z"/>
	<path class="st3" d="M1136,228.3c0,5.6-2.9,11.1-8.9,11.1c-5.6,0-8.7-4.9-15.1-4.9c-14.9,0-16.3,24.1-16.3,36.3
		c0,12.7,0.9,16.5,1.8,19.1c0.9,3.1,3.1,5.8,6.7,7.8c2.4,1.3,4.4,2.5,4.4,5.3c0,3.1-2.9,4.7-6.9,4.7h-39c-4,0-7.1-1.5-7.1-4.7
		c0-2.7,2-3.8,4.5-5.3c3.4-2,5.6-4.7,6.7-7.8c0.9-2.5,1.6-6.4,1.6-19.1V247c0-5.1-0.2-8.9-1.1-11.8c-0.9-2.9-2.7-4.7-6.7-6.2
		c-2-0.7-5.6-1.5-5.6-5.1c0-2.4,1.8-3.8,6-4.7c8.2-1.8,15.3-4,22.3-6.9c2.5-1.1,4.2-1.5,5.6-1.5c2.7,0,4.9,1.6,4.9,6v13.8
		c0,0.5,0.2,0.7,0.4,0.7c0.2,0,0.4,0,0.7-0.7c4.4-8.7,13.8-19.8,25.4-19.8C1130.9,210.8,1136,219,1136,228.3z"/>
	<path class="st3" d="M1182.1,302.9c0,3.1-3.1,4.7-7.1,4.7h-39c-4,0-7.1-1.6-7.1-4.7c0-2.7,2-3.8,4.5-5.3c3.4-2,5.6-4.7,6.7-7.8
		c0.9-2.5,1.8-6.4,1.8-19.1v-23.6c0-5.3-0.2-9.1-1.3-12c-1.1-2.9-3.1-4.5-6.7-6c-2-0.9-5.6-1.8-5.6-5.1c0-2.5,1.8-3.8,6-4.9
		c8.4-2,18.7-4.9,25.2-7.3c1.1-0.4,2.9-1.1,4.7-1.1c2.4,0,4.7,1.3,4.7,6.2c0,0,0,47.8,0,53.7c0,12.5,0.9,16.5,1.8,19.1
		c1.1,3.1,3.3,5.8,6.7,7.8C1179.9,299.1,1182.1,300,1182.1,302.9z"/>
	<path class="st3" d="M1288.7,303.1c0,2.7-2,4.5-6.2,4.5H1238c-4.2,0-6.4-1.8-6.4-4.2c0-4.4,6.5-4.7,6.5-10.2
		c0-3.4-2.9-7.8-8.7-15.8l-4.4-5.8c-0.4-0.4-0.5-0.5-0.9-0.5c-0.5,0-0.9,0.4-1.5,1.1c-3.4,5.1-9.3,13.6-9.3,18.7
		c0,7.6,8.9,7.4,8.9,12.2c0,3.1-2.4,4.5-6.2,4.5h-32.5c-4.5,0-6.7-1.6-6.7-4.5s2.5-4.4,6.4-7.1c5.4-4,11.4-10.2,20.7-22.5l9.6-12.9
		c0.5-0.7,0.7-1.5,0.7-2c0-0.7-0.4-1.5-0.9-2.2l-11.6-15.4c-8.2-10.7-10.5-13.8-17.4-17.1c-3.1-1.5-7.4-2.4-7.4-6.4
		c0-2.9,2-4.7,6.4-4.7h44.5c4.2,0,6.4,1.8,6.4,4.4c0,4.4-6.5,4.4-6.5,10c0,3.4,2.9,8,8.7,16l4,5.4c0.5,0.7,0.9,0.9,1.3,0.9
		s0.7-0.4,1.1-0.9c3.8-5.8,9.3-14,9.3-19.2c0-7.6-8.9-6.9-8.9-12c0-3.1,2.5-4.5,6.4-4.5h32.3c4.5,0,6.9,1.6,6.9,4.7
		c0,2.9-2.5,4.2-6.5,7.1c-5.1,3.6-11.3,10.2-20.7,22.3c-1.8,2.4-5.6,7.4-9.4,13.3c-0.4,0.5-0.7,1.1-0.7,1.6s0.2,1.1,0.7,1.8l12,15.8
		c8.2,10.7,10.9,14,18,17.6C1284.9,298.5,1288.7,299.4,1288.7,303.1z"/>
</g>
<g>
	<path d="M0,222.9h13.6v1.9H7.9v15.6H5.7v-15.6H0V222.9z"/>
	<path d="M22.3,231.7c0-1.2-0.2-2.1-0.7-2.6s-1.2-0.8-2.2-0.8s-1.7,0.2-2.3,0.6c-0.6,0.4-0.9,1-0.9,1.8h-2.4c0-2,1.1-3.3,3.3-3.8
		c0.7-0.1,1.4-0.2,2.2-0.2c1.6,0,2.9,0.4,3.9,1.2c0.9,0.8,1.4,2.1,1.4,3.8v8.5h-1.9l-0.2-2.2c-0.8,1.7-2.3,2.5-4.4,2.5
		c-1.4,0-2.6-0.4-3.4-1.2c-0.9-0.8-1.3-1.8-1.3-3s0.5-2.1,1.4-2.8c1-0.7,2.1-1,3.6-1c1.4,0,2.8,0.2,4.1,0.7v-1.5H22.3z M22.3,234.8
		c-1.3-0.4-2.5-0.6-3.4-0.6c-1,0-1.8,0.2-2.4,0.5c-0.6,0.4-0.9,0.9-0.9,1.7c0,1.7,0.9,2.5,2.8,2.5c1.1,0,2-0.4,2.8-1.2
		C22,237,22.3,236,22.3,234.8z"/>
	<path d="M30.4,227.7c0.9-0.6,2.2-1,3.8-1c1.6,0,2.8,0.3,3.7,1s1.4,1.5,1.4,2.5h-2.1c-0.2-1.2-1.2-1.8-3.1-1.8
		c-0.9,0-1.6,0.2-2.1,0.6c-0.5,0.4-0.7,0.8-0.7,1.3s0.2,0.9,0.6,1.2s1,0.6,1.8,0.8l2.7,0.9c1.1,0.4,2,0.8,2.6,1.3s0.9,1.3,0.9,2.2
		c0,1-0.5,1.8-1.5,2.6s-2.3,1.2-4.1,1.2s-3.1-0.4-4.1-1.2s-1.5-1.8-1.6-3h2.1c0,0.8,0.4,1.5,1,1.9s1.4,0.6,2.4,0.6s1.8-0.2,2.4-0.6
		c0.6-0.4,0.9-0.9,0.9-1.5s-0.2-1-0.6-1.3c-0.4-0.3-1-0.6-1.8-0.8l-2.6-0.9c-2.3-0.7-3.5-1.9-3.5-3.6
		C29,229.2,29.4,228.4,30.4,227.7z"/>
	<path d="M48.2,233.3l-1.8,1.4v5.6h-2.2v-18.9h2.2v11l6.4-5.4h3.1l-6.1,5l6.4,8.3h-2.7L48.2,233.3z"/>
	<path d="M64.5,238.9c1.8,0,2.9-0.8,3.1-2.4h2.2c-0.2,1.3-0.8,2.4-1.8,3.1c-1,0.7-2.2,1.1-3.6,1.1c-1.8,0-3.2-0.6-4.3-1.9
		c-1.1-1.3-1.7-3-1.7-5.1s0.6-3.8,1.7-5.1c1.1-1.3,2.6-1.9,4.5-1.9c1.9,0,3.2,0.7,4.2,2.2c0.9,1.4,1.2,3.2,1,5.3h-9.1
		c0,1.4,0.3,2.5,1,3.4S63.3,238.9,64.5,238.9z M66.1,228.8c-0.4-0.2-0.9-0.3-1.6-0.3c-1.1,0-2,0.4-2.7,1.2s-1,1.7-1.2,2.9h7.1
		C67.8,230.7,67.2,229.4,66.1,228.8z"/>
	<path d="M82.9,229v-7.6h2.2v18.9h-1.8l-0.3-2.2c-0.4,0.8-1,1.5-1.7,1.9s-1.5,0.6-2.3,0.6c-1.7,0-3.1-0.6-4.2-1.9
		c-1.1-1.3-1.7-3-1.7-5.1s0.6-3.8,1.7-5c1.1-1.3,2.5-1.9,4.2-1.9S82,227.5,82.9,229z M79.1,228.7c-1.1,0-2,0.5-2.7,1.4
		s-1.1,2.1-1.1,3.6s0.4,2.7,1.1,3.6c0.7,0.9,1.6,1.4,2.7,1.4s1.9-0.3,2.7-1c0.7-0.7,1.1-1.6,1.2-2.8v-2.2c0-1.2-0.4-2.2-1.1-2.9
		C81.1,229,80.2,228.7,79.1,228.7z"/>
	<path d="M97.3,227.1l3.2,10.6l3.2-9.9h1.8l3.1,10l3.2-10.7h2.2l-4.3,13.3h-2.1l-3.1-9.3l-3,9.3h-2.1L95,227.1H97.3z"/>
	<path d="M118.6,223.9c-0.4,0-0.8-0.1-1-0.4c-0.2-0.2-0.4-0.6-0.4-1s0.1-0.7,0.4-1c0.2-0.2,0.6-0.4,1-0.4s0.8,0.1,1.1,0.4
		c0.3,0.2,0.4,0.6,0.4,1s-0.1,0.8-0.4,1C119.4,223.8,119.1,223.9,118.6,223.9z M117.6,227h2.2v13.3h-2.2V227z"/>
	<path d="M132.7,239.9c-1.6,0.7-3,0.9-4.4,0.5c-0.9-0.3-1.6-0.9-2-1.9c-0.2-0.5-0.3-1-0.3-1.7v-8.2h-2.1v-1.7h2.1v-3.7h2.2v3.7h4.2
		v1.7h-4.2v8.1c0,1.4,0.6,2,1.9,2c0.7,0,1.5-0.2,2.3-0.5L132.7,239.9z"/>
	<path d="M138.3,229.5c0.9-1.8,2.4-2.8,4.4-2.8c1.6,0,2.8,0.5,3.7,1.6c0.9,1,1.3,2.5,1.3,4.2v7.8h-2.2v-7.8c0-1.3-0.3-2.2-0.9-2.9
		c-0.6-0.6-1.5-1-2.6-1s-2,0.5-2.7,1.4c-0.7,1-1,2.3-1,4v6.3h-2.2v-18.9h2.2V229.5z"/>
	<path d="M167.7,231.7c0-1.2-0.2-2.1-0.7-2.6s-1.2-0.8-2.2-0.8s-1.7,0.2-2.3,0.6c-0.6,0.4-0.9,1-0.9,1.8h-2.4c0-2,1.1-3.3,3.3-3.8
		c0.7-0.1,1.4-0.2,2.2-0.2c1.6,0,2.9,0.4,3.9,1.2c0.9,0.8,1.4,2.1,1.4,3.8v8.5h-2l-0.2-2.2c-0.8,1.7-2.3,2.5-4.4,2.5
		c-1.4,0-2.6-0.4-3.4-1.2c-0.9-0.8-1.3-1.8-1.3-3s0.5-2.1,1.4-2.8c1-0.7,2.1-1,3.6-1c1.4,0,2.8,0.2,4.1,0.7v-1.5H167.7z
		 M167.7,234.8c-1.3-0.4-2.5-0.6-3.4-0.6c-1,0-1.8,0.2-2.4,0.5c-0.6,0.4-0.9,0.9-0.9,1.7c0,1.7,0.9,2.5,2.8,2.5c1.1,0,2-0.4,2.8-1.2
		C167.3,237,167.7,236,167.7,234.8z"/>
	<path d="M183.9,229c0.9-1.5,2.2-2.3,3.9-2.3s3.1,0.6,4.2,1.9c1.1,1.3,1.7,2.9,1.7,5s-0.6,3.8-1.7,5.1c-1.1,1.3-2.5,1.9-4.2,1.9
		c-0.9,0-1.7-0.2-2.4-0.7c-0.7-0.4-1.3-1.1-1.7-2l-0.5,2.3h-1.5v-18.9h2.2V229z M187.6,228.7c-1.1,0-1.9,0.3-2.6,1
		c-0.7,0.7-1.1,1.6-1.1,2.8v2.2c0,1.2,0.4,2.2,1.1,2.9s1.6,1.1,2.7,1.1s1.9-0.5,2.7-1.4s1.1-2.1,1.1-3.6s-0.4-2.7-1.1-3.6
		C189.6,229.1,188.7,228.7,187.6,228.7z"/>
	<path d="M199.1,223.9c-0.4,0-0.8-0.1-1-0.4c-0.2-0.2-0.4-0.6-0.4-1s0.1-0.7,0.4-1c0.2-0.2,0.6-0.4,1-0.4s0.8,0.1,1.1,0.4
		c0.3,0.2,0.4,0.6,0.4,1s-0.1,0.8-0.4,1C199.9,223.8,199.5,223.9,199.1,223.9z M198,227h2.2v13.3H198V227z"/>
	<path d="M206.7,239.9c-1.1-0.5-1.7-1.4-1.7-2.5c0-0.6,0.2-1.1,0.7-1.5c0.4-0.4,1-0.7,1.6-0.9c-1-0.9-1.5-2.1-1.5-3.5
		s0.5-2.6,1.5-3.5s2.2-1.3,3.6-1.3c1.4,0,2.6,0.3,3.6,1c0.1-1,0.5-1.8,1.2-2.4c0.7-0.6,1.5-0.9,2.6-0.9l-0.2,2.2
		c-1.6,0-2.5,0.7-2.6,2.1c0.6,0.8,1,1.7,1,2.9c0,1.4-0.5,2.6-1.5,3.5s-2.3,1.4-3.8,1.4c-1.1,0-2-0.2-2.8-0.6c-0.4,0.1-0.7,0.2-1,0.5
		s-0.4,0.6-0.4,1.1c0,1,0.8,1.5,2.4,1.5h5.2c1.2,0,2.2,0.3,2.9,0.8s1.1,1.3,1.1,2.2c0,1.4-0.7,2.6-2.1,3.7c-1.4,1.1-3.2,1.6-5.4,1.6
		s-3.9-0.4-5.1-1.2c-1.2-0.8-1.9-1.8-1.9-3c0-0.8,0.2-1.4,0.7-1.9C205.3,240.5,205.9,240.1,206.7,239.9z M206.3,242.8
		c0,0.7,0.4,1.3,1.2,1.8s1.9,0.8,3.5,0.8s2.9-0.3,3.9-1s1.6-1.5,1.6-2.4c0-0.4-0.2-0.8-0.5-1.1s-0.8-0.5-1.4-0.5h-5.4
		c-0.9,0-1.7,0.3-2.2,0.7C206.6,241.6,206.3,242.1,206.3,242.8z M214.5,231.5c0-1-0.3-1.7-0.9-2.3c-0.6-0.6-1.4-0.9-2.4-0.9
		s-1.8,0.3-2.4,0.9s-0.9,1.4-0.9,2.3s0.3,1.8,0.9,2.4c0.6,0.6,1.4,0.9,2.4,0.9s1.8-0.3,2.4-0.9S214.5,232.5,214.5,231.5z"/>
	<path d="M237.1,229v-7.6h2.2v18.9h-1.8l-0.3-2.2c-0.4,0.8-1,1.5-1.7,1.9s-1.5,0.6-2.3,0.6c-1.7,0-3.1-0.6-4.2-1.9
		c-1.1-1.3-1.7-3-1.7-5.1s0.6-3.8,1.7-5c1.1-1.3,2.5-1.9,4.2-1.9S236.2,227.5,237.1,229z M233.4,228.7c-1.1,0-2,0.5-2.7,1.4
		s-1.1,2.1-1.1,3.6s0.4,2.7,1.1,3.6c0.7,0.9,1.6,1.4,2.7,1.4s1.9-0.3,2.7-1c0.7-0.7,1.1-1.6,1.2-2.8v-2.2c0-1.2-0.4-2.2-1.1-2.9
		C235.3,229,234.4,228.7,233.4,228.7z"/>
	<path d="M249.5,238.9c1.8,0,2.9-0.8,3.1-2.4h2.2c-0.2,1.3-0.8,2.4-1.8,3.1c-1,0.7-2.2,1.1-3.6,1.1c-1.8,0-3.2-0.6-4.3-1.9
		c-1.1-1.3-1.7-3-1.7-5.1s0.6-3.8,1.7-5.1c1.1-1.3,2.6-1.9,4.5-1.9s3.2,0.7,4.2,2.2c0.9,1.4,1.2,3.2,1,5.3h-9.1c0,1.4,0.3,2.5,1,3.4
		S248.3,238.9,249.5,238.9z M251.1,228.8c-0.4-0.2-0.9-0.3-1.6-0.3c-1.1,0-2,0.4-2.7,1.2s-1,1.7-1.2,2.9h7.1
		C252.8,230.7,252.2,229.4,251.1,228.8z"/>
	<path d="M263.7,226.7c1.6,0,2.8,0.4,3.7,1.2c0.9,0.8,1.5,1.8,1.8,3l-2.2,0.2c-0.2-0.8-0.6-1.4-1.2-1.8c-0.5-0.4-1.1-0.7-1.8-0.7
		c-1.2,0-2.1,0.4-2.9,1.3c-0.7,0.9-1.1,2.1-1.1,3.6s0.4,2.8,1.1,3.7s1.6,1.4,2.7,1.4s1.9-0.2,2.4-0.7s0.8-1.2,0.8-2.1h2.2
		c0,1.4-0.5,2.6-1.5,3.5s-2.3,1.3-3.9,1.3c-1.7,0-3.1-0.6-4.3-1.9c-1.2-1.3-1.8-3-1.8-5.1s0.6-3.8,1.7-5
		C260.7,227.4,262.1,226.7,263.7,226.7z"/>
	<path d="M274.7,223.9c-0.4,0-0.8-0.1-1-0.4c-0.2-0.2-0.4-0.6-0.4-1s0.1-0.7,0.4-1c0.2-0.2,0.6-0.4,1-0.4s0.8,0.1,1.1,0.4
		c0.3,0.2,0.4,0.6,0.4,1s-0.1,0.8-0.4,1C275.5,223.8,275.2,223.9,274.7,223.9z M273.7,227h2.2v13.3h-2.2V227z"/>
	<path d="M282.5,227.7c0.9-0.6,2.2-1,3.8-1c1.6,0,2.8,0.3,3.7,1c0.9,0.7,1.4,1.5,1.4,2.5h-2.1c-0.2-1.2-1.2-1.8-3.1-1.8
		c-0.9,0-1.6,0.2-2.1,0.6c-0.5,0.4-0.7,0.8-0.7,1.3s0.2,0.9,0.6,1.2s1,0.6,1.8,0.8l2.7,0.9c1.1,0.4,2,0.8,2.6,1.3s0.9,1.3,0.9,2.2
		c0,1-0.5,1.8-1.5,2.6s-2.3,1.2-4.1,1.2c-1.8,0-3.1-0.4-4.1-1.2s-1.5-1.8-1.6-3h2.1c0,0.8,0.4,1.5,1,1.9s1.4,0.6,2.4,0.6
		s1.8-0.2,2.4-0.6c0.6-0.4,0.9-0.9,0.9-1.5s-0.2-1-0.6-1.3s-1-0.6-1.8-0.8l-2.6-0.9c-2.3-0.7-3.5-1.9-3.5-3.6
		C281.1,229.2,281.6,228.4,282.5,227.7z"/>
	<path d="M297.6,223.9c-0.4,0-0.8-0.1-1-0.4c-0.2-0.2-0.4-0.6-0.4-1s0.1-0.7,0.4-1c0.2-0.2,0.6-0.4,1-0.4s0.8,0.1,1.1,0.4
		c0.3,0.2,0.4,0.6,0.4,1s-0.1,0.8-0.4,1C298.4,223.8,298.1,223.9,297.6,223.9z M296.6,227h2.2v13.3h-2.2V227z"/>
	<path d="M309.5,226.7c1.8,0,3.3,0.6,4.5,1.8c1.1,1.2,1.7,2.9,1.7,5.2c0,2.2-0.6,3.9-1.7,5.1c-1.1,1.2-2.6,1.8-4.5,1.8
		s-3.3-0.6-4.5-1.8c-1.1-1.2-1.7-2.9-1.7-5.1c0-2.2,0.6-4,1.7-5.2S307.6,226.7,309.5,226.7z M313.5,233.7c0-1.6-0.3-2.8-1-3.7
		s-1.6-1.3-2.9-1.3s-2.3,0.4-3,1.3s-1,2.1-1,3.7s0.3,2.8,1,3.7c0.6,0.9,1.6,1.3,2.9,1.3s2.3-0.4,3-1.3
		C313.1,236.5,313.5,235.3,313.5,233.7z"/>
	<path d="M322,229.6c0.9-1.9,2.4-2.9,4.5-2.9c1.6,0,2.8,0.5,3.7,1.6c0.9,1,1.3,2.5,1.3,4.2v7.8h-2.2v-7.8c0-1.3-0.3-2.2-0.9-2.9
		c-0.6-0.6-1.5-1-2.6-1s-2,0.5-2.7,1.4s-1,2.2-1.1,3.8v6.5h-2.2V227h1.9L322,229.6z"/>
	<path d="M340.7,224.6c-2.2,0-3.4,0.9-3.7,2.6h-2.3c0.1-1.4,0.7-2.5,1.7-3.3s2.4-1.2,4.2-1.2c1.8,0,3.2,0.4,4.3,1.3
		c1,0.9,1.6,2,1.6,3.2c0,1-0.2,1.8-0.7,2.4c-0.5,0.6-1.3,1.3-2.3,1.8c-0.5,0.3-0.9,0.5-1.2,0.7c-0.3,0.2-0.6,0.4-0.7,0.7
		c-0.4,0.5-0.5,1.1-0.5,2v1.1h-2.2v-1.2c0-1.2,0.2-2.1,0.6-2.7c0.4-0.6,1.1-1.2,2.1-1.8s1.7-1,2.1-1.5c0.4-0.4,0.5-1,0.5-1.7
		s-0.3-1.3-0.9-1.8C342.5,224.8,341.7,224.6,340.7,224.6z M339.8,237.5c0.5,0,0.9,0.2,1.2,0.5c0.3,0.3,0.5,0.7,0.5,1.1
		c0,0.4-0.2,0.8-0.5,1.1s-0.7,0.4-1.2,0.4s-0.9-0.1-1.2-0.4s-0.4-0.7-0.4-1.1c0-0.4,0.1-0.8,0.4-1.1
		C338.9,237.7,339.3,237.5,339.8,237.5z"/>
	<path d="M357,222.9h2.2v17.5H357V222.9z"/>
	<path d="M373.5,229v-7.6h2.2v18.9h-1.8l-0.3-2.2c-0.4,0.8-1,1.5-1.7,1.9s-1.5,0.6-2.3,0.6c-1.7,0-3.1-0.6-4.2-1.9
		c-1.1-1.3-1.7-3-1.7-5.1s0.6-3.8,1.7-5c1.1-1.3,2.5-1.9,4.2-1.9S372.6,227.5,373.5,229z M369.7,228.7c-1.1,0-2,0.5-2.7,1.4
		s-1.1,2.1-1.1,3.6s0.4,2.7,1.1,3.6c0.7,0.9,1.6,1.4,2.7,1.4s1.9-0.3,2.7-1c0.7-0.7,1.1-1.6,1.2-2.8v-2.2c0-1.2-0.4-2.2-1.1-2.9
		C371.7,229,370.8,228.7,369.7,228.7z"/>
	<path d="M385.9,238.9c1.8,0,2.9-0.8,3.1-2.4h2.2c-0.2,1.3-0.8,2.4-1.8,3.1c-1,0.7-2.2,1.1-3.6,1.1c-1.8,0-3.2-0.6-4.3-1.9
		c-1.1-1.3-1.7-3-1.7-5.1s0.6-3.8,1.7-5.1s2.6-1.9,4.5-1.9s3.2,0.7,4.2,2.2c0.9,1.4,1.2,3.2,1,5.3h-9.1c0,1.4,0.3,2.5,1,3.4
		S384.7,238.9,385.9,238.9z M387.5,228.8c-0.4-0.2-0.9-0.3-1.6-0.3c-1.1,0-2,0.4-2.7,1.2s-1,1.7-1.2,2.9h7.1
		C389.2,230.7,388.6,229.4,387.5,228.8z"/>
	<path d="M397.7,229.6c0.9-1.9,2.4-2.9,4.5-2.9c1.6,0,2.8,0.5,3.7,1.6c0.9,1,1.3,2.5,1.3,4.2v7.8H405v-7.8c0-1.3-0.3-2.2-0.9-2.9
		c-0.6-0.6-1.5-1-2.6-1s-2,0.5-2.7,1.4s-1,2.2-1.1,3.8v6.5h-2.2V227h1.9L397.7,229.6z"/>
	<path d="M419.3,239.9c-1.6,0.7-3,0.9-4.4,0.5c-0.9-0.3-1.6-0.9-2-1.9c-0.2-0.5-0.3-1-0.3-1.7v-8.2h-2.1v-1.7h2.1v-3.7h2.2v3.7h4.2
		v1.7h-4.2v8.1c0,1.4,0.6,2,1.9,2c0.7,0,1.5-0.2,2.3-0.5L419.3,239.9z"/>
	<path d="M424,223.9c-0.4,0-0.8-0.1-1-0.4c-0.2-0.2-0.4-0.6-0.4-1s0.1-0.7,0.4-1c0.2-0.2,0.6-0.4,1-0.4s0.8,0.1,1.1,0.4
		c0.3,0.2,0.4,0.6,0.4,1s-0.1,0.8-0.4,1C424.8,223.8,424.4,223.9,424,223.9z M422.9,227h2.2v13.3h-2.2V227z"/>
	<path d="M437.5,223.3c-0.6-0.2-1.1-0.4-1.4-0.4c-0.6,0-1.2,0.2-1.5,0.5c-0.4,0.3-0.6,0.9-0.6,1.7v2h2.7v1.5H434v11.8h-2.2v-11.8
		h-2.2v-1.5h2.2v-2c0-1.3,0.4-2.3,1.1-2.9c0.7-0.6,1.6-0.9,2.5-0.9s1.8,0.1,2.5,0.4L437.5,223.3z"/>
	<path d="M437.9,244.2c0.9,0.7,1.9,1.1,2.9,1.1c0.7,0,1.4-0.4,1.9-1.1c0.4-0.5,0.7-1.4,1.1-2.4l0.4-1.4l-5.4-13.3h2.4l4,10.6
		l3.1-10.6h2.2l-5,15.9c-0.4,1.3-1,2.4-1.7,3.1c-0.7,0.7-1.6,1.1-2.6,1.1c-1.1,0-2.2-0.3-3.3-1V244.2z"/>
	<path d="M461.8,223.9c-0.4,0-0.8-0.1-1-0.4c-0.2-0.2-0.4-0.6-0.4-1s0.1-0.7,0.4-1c0.2-0.2,0.6-0.4,1-0.4s0.8,0.1,1.1,0.4
		c0.3,0.2,0.4,0.6,0.4,1s-0.1,0.8-0.4,1C462.6,223.8,462.3,223.9,461.8,223.9z M460.8,227h2.2v13.3h-2.2V227z"/>
	<path d="M471,229.6c0.9-1.9,2.4-2.9,4.5-2.9c1.6,0,2.8,0.5,3.7,1.6c0.9,1,1.3,2.5,1.3,4.2v7.8h-2.2v-7.8c0-1.3-0.3-2.2-0.9-2.9
		c-0.6-0.6-1.5-1-2.6-1s-2,0.5-2.7,1.4s-1,2.2-1.1,3.8v6.5h-2.2V227h1.9L471,229.6z"/>
	<path d="M492.1,223.3c-0.6-0.2-1.1-0.4-1.4-0.4c-0.6,0-1.2,0.2-1.5,0.5c-0.4,0.3-0.6,0.9-0.6,1.7v2h2.7v1.5h-2.7v11.8h-2.2v-11.8
		h-2.2v-1.5h2.2v-2c0-1.3,0.4-2.3,1.1-2.9c0.7-0.6,1.6-0.9,2.5-0.9s1.8,0.1,2.5,0.4L492.1,223.3z"/>
	<path d="M495.2,221.4h2.2v18.9h-2.2V221.4z"/>
	<path d="M512,237.7c-0.9,1.9-2.4,2.9-4.4,2.9c-1.5,0-2.7-0.4-3.6-1.2s-1.4-2.1-1.4-3.9V227h2.2v8.3c0,2.2,1,3.4,3.1,3.4
		c1.2,0,2.2-0.5,2.9-1.4c0.7-0.9,1.1-2.1,1.2-3.6V227h2.2v13.3H512V237.7z"/>
	<path d="M524.3,238.9c1.8,0,2.9-0.8,3.1-2.4h2.2c-0.2,1.3-0.8,2.4-1.8,3.1c-1,0.7-2.2,1.1-3.6,1.1c-1.8,0-3.2-0.6-4.3-1.9
		c-1.1-1.3-1.7-3-1.7-5.1s0.6-3.8,1.7-5.1c1.1-1.3,2.6-1.9,4.5-1.9s3.2,0.7,4.2,2.2c0.9,1.4,1.2,3.2,1,5.3h-9.1c0,1.4,0.3,2.5,1,3.4
		S523.1,238.9,524.3,238.9z M525.9,228.8c-0.4-0.2-0.9-0.3-1.6-0.3c-1.1,0-2,0.4-2.7,1.2s-1,1.7-1.2,2.9h7.1
		C527.6,230.7,527.1,229.4,525.9,228.8z"/>
	<path d="M536.2,229.6c0.9-1.9,2.4-2.9,4.5-2.9c1.6,0,2.8,0.5,3.7,1.6c0.9,1,1.3,2.5,1.3,4.2v7.8h-2.2v-7.8c0-1.3-0.3-2.2-0.9-2.9
		c-0.6-0.6-1.5-1-2.6-1s-2,0.5-2.7,1.4s-1,2.2-1.1,3.8v6.5H534V227h1.9L536.2,229.6z"/>
	<path d="M557.7,239.9c-1.6,0.7-3,0.9-4.4,0.5c-0.9-0.3-1.6-0.9-2-1.9c-0.2-0.5-0.3-1-0.3-1.7v-8.2h-2.1v-1.7h2.1v-3.7h2.2v3.7h4.2
		v1.7h-4.2v8.1c0,1.4,0.6,2,1.9,2c0.7,0,1.5-0.2,2.3-0.5L557.7,239.9z"/>
	<path d="M562.4,223.9c-0.4,0-0.8-0.1-1-0.4c-0.2-0.2-0.4-0.6-0.4-1s0.1-0.7,0.4-1c0.2-0.2,0.6-0.4,1-0.4s0.8,0.1,1.1,0.4
		c0.3,0.2,0.4,0.6,0.4,1s-0.1,0.8-0.4,1C563.2,223.8,562.9,223.9,562.4,223.9z M561.4,227h2.2v13.3h-2.2V227z"/>
	<path d="M577.7,231.7c0-1.2-0.2-2.1-0.7-2.6s-1.2-0.8-2.2-0.8s-1.7,0.2-2.3,0.6c-0.6,0.4-0.9,1-0.9,1.8h-2.4c0-2,1.1-3.3,3.3-3.8
		c0.7-0.1,1.4-0.2,2.2-0.2c1.6,0,2.9,0.4,3.9,1.2c0.9,0.8,1.4,2.1,1.4,3.8v8.5h-2l-0.2-2.2c-0.8,1.7-2.3,2.5-4.4,2.5
		c-1.4,0-2.6-0.4-3.4-1.2c-0.9-0.8-1.3-1.8-1.3-3s0.5-2.1,1.4-2.8c1-0.7,2.1-1,3.6-1c1.4,0,2.8,0.2,4.1,0.7L577.7,231.7L577.7,231.7
		z M577.7,234.8c-1.3-0.4-2.5-0.6-3.4-0.6c-1,0-1.8,0.2-2.4,0.5c-0.6,0.4-0.9,0.9-0.9,1.7c0,1.7,0.9,2.5,2.8,2.5
		c1.1,0,2-0.4,2.8-1.2C577.3,237,577.7,236,577.7,234.8z"/>
	<path d="M585.1,221.4h2.2v18.9h-2.2V221.4z"/>
	<path d="M605.9,223.3c-0.6-0.2-1.1-0.4-1.4-0.4c-0.6,0-1.2,0.2-1.5,0.5c-0.4,0.3-0.6,0.9-0.6,1.7v2h2.7v1.5h-2.7v11.8h-2.2v-11.8
		H598v-1.5h2.2v-2c0-1.3,0.4-2.3,1.1-2.9c0.7-0.6,1.6-0.9,2.5-0.9s1.8,0.1,2.5,0.4L605.9,223.3z"/>
	<path d="M617.2,231.7c0-1.2-0.2-2.1-0.7-2.6s-1.2-0.8-2.2-0.8s-1.7,0.2-2.3,0.6c-0.6,0.4-0.9,1-0.9,1.8h-2.4c0-2,1.1-3.3,3.3-3.8
		c0.7-0.1,1.4-0.2,2.2-0.2c1.6,0,2.9,0.4,3.9,1.2c0.9,0.8,1.4,2.1,1.4,3.8v8.5h-1.9l-0.2-2.2c-0.8,1.7-2.3,2.5-4.4,2.5
		c-1.4,0-2.6-0.4-3.4-1.2c-0.9-0.8-1.3-1.8-1.3-3s0.5-2.1,1.4-2.8c1-0.7,2.1-1,3.6-1c1.4,0,2.8,0.2,4.1,0.7v-1.5H617.2z
		 M617.2,234.8c-1.3-0.4-2.5-0.6-3.4-0.6c-1,0-1.8,0.2-2.4,0.5c-0.6,0.4-0.9,0.9-0.9,1.7c0,1.7,0.9,2.5,2.8,2.5c1.1,0,2-0.4,2.8-1.2
		C616.8,237,617.2,236,617.2,234.8z"/>
	<path d="M628.9,226.7c1.6,0,2.8,0.4,3.7,1.2s1.5,1.8,1.8,3l-2.2,0.2c-0.2-0.8-0.6-1.4-1.2-1.8c-0.5-0.4-1.1-0.7-1.8-0.7
		c-1.2,0-2.1,0.4-2.9,1.3c-0.7,0.9-1.1,2.1-1.1,3.6s0.4,2.8,1.1,3.7c0.7,0.9,1.6,1.4,2.7,1.4c1.1,0,1.9-0.2,2.4-0.7s0.8-1.2,0.8-2.1
		h2.2c0,1.4-0.5,2.6-1.5,3.5s-2.3,1.3-3.9,1.3c-1.7,0-3.1-0.6-4.3-1.9c-1.2-1.3-1.8-3-1.8-5.1s0.6-3.8,1.7-5
		C626,227.4,627.3,226.7,628.9,226.7z"/>
	<path d="M645.7,239.9c-1.6,0.7-3,0.9-4.4,0.5c-0.9-0.3-1.6-0.9-2-1.9c-0.2-0.5-0.3-1-0.3-1.7v-8.2h-2.1v-1.7h2.1v-3.7h2.2v3.7h4.2
		v1.7h-4.2v8.1c0,1.4,0.6,2,1.9,2c0.7,0,1.5-0.2,2.3-0.5L645.7,239.9z"/>
	<path d="M654,226.7c1.8,0,3.3,0.6,4.5,1.8c1.1,1.2,1.7,2.9,1.7,5.2c0,2.2-0.6,3.9-1.7,5.1c-1.1,1.2-2.6,1.8-4.5,1.8
		s-3.3-0.6-4.5-1.8c-1.1-1.2-1.7-2.9-1.7-5.1c0-2.2,0.6-4,1.7-5.2C650.6,227.3,652.1,226.7,654,226.7z M658,233.7
		c0-1.6-0.3-2.8-1-3.7s-1.6-1.3-2.9-1.3c-1.3,0-2.3,0.4-3,1.3s-1,2.1-1,3.7s0.3,2.8,1,3.7c0.6,0.9,1.6,1.3,2.9,1.3
		c1.3,0,2.3-0.4,3-1.3C657.6,236.5,658,235.3,658,233.7z"/>
	<path d="M669.8,228.9c-2.1,0-3.2,1.6-3.2,4.9v6.5h-2.2V227h2.2v2.6c0.7-1.8,1.8-2.8,3.5-2.8c0.5,0,1,0.1,1.5,0.2l-0.1,2.1
		C670.9,229,670.3,228.9,669.8,228.9z"/>
	<path d="M675.6,227.7c0.9-0.6,2.2-1,3.8-1s2.8,0.3,3.7,1s1.4,1.5,1.4,2.5h-2.1c-0.2-1.2-1.2-1.8-3.1-1.8c-0.9,0-1.6,0.2-2.1,0.6
		c-0.5,0.4-0.7,0.8-0.7,1.3s0.2,0.9,0.6,1.2c0.4,0.3,1,0.6,1.8,0.8l2.7,0.9c1.1,0.4,2,0.8,2.6,1.3s0.9,1.3,0.9,2.2
		c0,1-0.5,1.8-1.5,2.6s-2.3,1.2-4.1,1.2s-3.1-0.4-4.1-1.2s-1.5-1.8-1.6-3h2.1c0,0.8,0.4,1.5,1,1.9s1.4,0.6,2.4,0.6s1.8-0.2,2.4-0.6
		c0.6-0.4,0.9-0.9,0.9-1.5s-0.2-1-0.6-1.3c-0.4-0.3-1-0.6-1.8-0.8l-2.6-0.9c-2.3-0.7-3.5-1.9-3.5-3.6
		C674.2,229.2,674.7,228.4,675.6,227.7z"/>
	<path d="M38.2,265c0-1.2-0.2-2.1-0.7-2.6s-1.2-0.8-2.2-0.8s-1.7,0.2-2.3,0.6s-0.9,1-0.9,1.8h-2.4c0-2,1.1-3.3,3.3-3.8
		c0.7-0.1,1.4-0.2,2.2-0.2c1.6,0,2.9,0.4,3.9,1.2c0.9,0.8,1.4,2.1,1.4,3.8v8.5h-1.9l-0.2-2.2c-0.8,1.7-2.3,2.5-4.4,2.5
		c-1.4,0-2.6-0.4-3.4-1.2c-0.9-0.8-1.3-1.8-1.3-3s0.5-2.1,1.4-2.8c1-0.7,2.1-1,3.6-1c1.4,0,2.8,0.2,4.1,0.7V265H38.2z M38.2,268.1
		c-1.3-0.4-2.5-0.6-3.4-0.6c-1,0-1.8,0.2-2.4,0.5c-0.6,0.4-0.9,0.9-0.9,1.7c0,1.7,0.9,2.5,2.8,2.5c1.1,0,2-0.4,2.8-1.2
		C37.8,270.3,38.2,269.3,38.2,268.1z"/>
	<path d="M47.6,262.9c0.9-1.9,2.4-2.9,4.5-2.9c1.6,0,2.8,0.5,3.7,1.6c0.9,1,1.3,2.5,1.3,4.2v7.8h-2.2v-7.8c0-1.3-0.3-2.2-0.9-2.9
		c-0.6-0.6-1.5-1-2.6-1s-2,0.5-2.7,1.4s-1,2.2-1.1,3.8v6.5h-2.2v-13.3h1.9L47.6,262.9z"/>
	<path d="M71,262.3v-7.6h2.2v18.9h-1.8l-0.3-2.2c-0.4,0.8-1,1.5-1.7,1.9s-1.5,0.6-2.3,0.6c-1.7,0-3.1-0.6-4.2-1.9
		c-1.1-1.3-1.7-3-1.7-5.1s0.6-3.8,1.7-5c1.1-1.3,2.5-1.9,4.2-1.9S70.1,260.8,71,262.3z M67.2,262c-1.1,0-2,0.5-2.7,1.4
		c-0.7,0.9-1.1,2.1-1.1,3.6s0.4,2.7,1.1,3.6s1.6,1.4,2.7,1.4s1.9-0.3,2.7-1c0.7-0.7,1.1-1.6,1.2-2.8V266c0-1.2-0.4-2.2-1.1-2.9
		C69.2,262.3,68.3,262,67.2,262z"/>
	<path d="M93.6,265c0-1.2-0.2-2.1-0.7-2.6s-1.2-0.8-2.2-0.8s-1.7,0.2-2.3,0.6c-0.6,0.4-0.9,1-0.9,1.8h-2.4c0-2,1.1-3.3,3.3-3.8
		c0.7-0.1,1.4-0.2,2.2-0.2c1.6,0,2.9,0.4,3.9,1.2c0.9,0.8,1.4,2.1,1.4,3.8v8.5H94l-0.2-2.2c-0.8,1.7-2.3,2.5-4.4,2.5
		c-1.4,0-2.6-0.4-3.4-1.2c-0.9-0.8-1.3-1.8-1.3-3s0.5-2.1,1.4-2.8c1-0.7,2.1-1,3.6-1c1.4,0,2.8,0.2,4.1,0.7V265H93.6z M93.6,268.1
		c-1.3-0.4-2.5-0.6-3.4-0.6c-1,0-1.8,0.2-2.4,0.5c-0.6,0.4-0.9,0.9-0.9,1.7c0,1.7,0.9,2.5,2.8,2.5c1.1,0,2-0.4,2.8-1.2
		C93.2,270.3,93.6,269.3,93.6,268.1z"/>
	<path d="M101.6,261c0.9-0.6,2.2-1,3.8-1c1.6,0,2.8,0.3,3.7,1c0.9,0.7,1.4,1.5,1.4,2.5h-2.1c-0.2-1.2-1.2-1.8-3.1-1.8
		c-0.9,0-1.6,0.2-2.1,0.6s-0.7,0.8-0.7,1.3s0.2,0.9,0.6,1.2c0.4,0.3,1,0.6,1.8,0.8l2.7,0.9c1.1,0.4,2,0.8,2.6,1.3s0.9,1.3,0.9,2.2
		c0,1-0.5,1.8-1.5,2.6c-1,0.8-2.3,1.2-4.1,1.2c-1.8,0-3.1-0.4-4.1-1.2c-1-0.8-1.5-1.8-1.6-3h2.1c0,0.8,0.4,1.5,1,1.9
		s1.4,0.6,2.4,0.6s1.8-0.2,2.4-0.6s0.9-0.9,0.9-1.5s-0.2-1-0.6-1.3s-1-0.6-1.8-0.8l-2.6-0.9c-2.3-0.7-3.5-1.9-3.5-3.6
		C100.2,262.5,100.7,261.7,101.6,261z"/>
	<path d="M116.2,261c0.9-0.6,2.2-1,3.8-1c1.6,0,2.8,0.3,3.7,1c0.9,0.7,1.4,1.5,1.4,2.5H123c-0.2-1.2-1.2-1.8-3.1-1.8
		c-0.9,0-1.6,0.2-2.1,0.6s-0.7,0.8-0.7,1.3s0.2,0.9,0.6,1.2c0.4,0.3,1,0.6,1.8,0.8l2.7,0.9c1.1,0.4,2,0.8,2.6,1.3s0.9,1.3,0.9,2.2
		c0,1-0.5,1.8-1.5,2.6c-1,0.8-2.3,1.2-4.1,1.2c-1.8,0-3.1-0.4-4.1-1.2c-1-0.8-1.5-1.8-1.6-3h2.1c0,0.8,0.4,1.5,1,1.9
		s1.4,0.6,2.4,0.6s1.8-0.2,2.4-0.6s0.9-0.9,0.9-1.5s-0.2-1-0.6-1.3s-1-0.6-1.8-0.8l-2.6-0.9c-2.3-0.7-3.5-1.9-3.5-3.6
		C114.8,262.5,115.3,261.7,116.2,261z"/>
	<path d="M131.3,257.2c-0.4,0-0.8-0.1-1-0.4c-0.2-0.2-0.4-0.6-0.4-1s0.1-0.7,0.4-1c0.2-0.2,0.6-0.4,1-0.4s0.8,0.1,1.1,0.4
		c0.3,0.2,0.4,0.6,0.4,1s-0.1,0.7-0.4,1C132.1,257.1,131.8,257.2,131.3,257.2z M130.2,260.3h2.2v13.3h-2.2V260.3z"/>
	<path d="M139,273.2c-1.1-0.5-1.7-1.4-1.7-2.5c0-0.6,0.2-1.1,0.7-1.5c0.4-0.4,1-0.7,1.6-0.9c-1-0.9-1.5-2.1-1.5-3.5s0.5-2.6,1.5-3.5
		s2.2-1.3,3.6-1.3c1.4,0,2.6,0.3,3.6,1c0.1-1,0.5-1.8,1.2-2.4s1.5-0.9,2.6-0.9l-0.2,2.2c-1.6,0-2.5,0.7-2.6,2.1c0.6,0.8,1,1.7,1,2.9
		c0,1.4-0.5,2.6-1.5,3.5s-2.3,1.4-3.8,1.4c-1.1,0-2-0.2-2.8-0.6c-0.4,0.1-0.7,0.2-1,0.5s-0.4,0.6-0.4,1.1c0,1,0.8,1.5,2.4,1.5h5.2
		c1.2,0,2.2,0.3,2.9,0.8s1.1,1.3,1.1,2.2c0,1.4-0.7,2.6-2.1,3.7c-1.4,1.1-3.2,1.6-5.4,1.6s-3.9-0.4-5.1-1.2c-1.2-0.8-1.9-1.8-1.9-3
		c0-0.8,0.2-1.4,0.7-1.9C137.5,273.8,138.2,273.4,139,273.2z M138.5,276.1c0,0.7,0.4,1.3,1.2,1.8s1.9,0.8,3.5,0.8s2.9-0.3,3.9-1
		s1.6-1.5,1.6-2.4c0-0.4-0.2-0.8-0.5-1.1c-0.3-0.3-0.8-0.5-1.4-0.5h-5.4c-0.9,0-1.7,0.3-2.2,0.7
		C138.8,274.9,138.5,275.4,138.5,276.1z M146.7,264.9c0-1-0.3-1.7-0.9-2.3c-0.6-0.6-1.4-0.9-2.4-0.9s-1.8,0.3-2.4,0.9
		s-0.9,1.4-0.9,2.3s0.3,1.8,0.9,2.4c0.6,0.6,1.4,0.9,2.4,0.9s1.8-0.3,2.4-0.9C146.4,266.6,146.7,265.8,146.7,264.9z"/>
	<path d="M156.2,262.9c0.9-1.9,2.4-2.9,4.5-2.9c1.6,0,2.8,0.5,3.7,1.6c0.9,1,1.3,2.5,1.3,4.2v7.8h-2.2v-7.8c0-1.3-0.3-2.2-0.9-2.9
		c-0.6-0.6-1.5-1-2.6-1s-2,0.5-2.7,1.4s-1,2.2-1.1,3.8v6.5H154v-13.3h1.9L156.2,262.9z"/>
	<path d="M185.6,265c0-1.2-0.2-2.1-0.7-2.6s-1.2-0.8-2.2-0.8s-1.7,0.2-2.3,0.6s-0.9,1-0.9,1.8h-2.4c0-2,1.1-3.3,3.3-3.8
		c0.7-0.1,1.4-0.2,2.2-0.2c1.6,0,2.9,0.4,3.9,1.2c0.9,0.8,1.4,2.1,1.4,3.8v8.5H186l-0.2-2.2c-0.8,1.7-2.3,2.5-4.4,2.5
		c-1.4,0-2.6-0.4-3.4-1.2c-0.9-0.8-1.3-1.8-1.3-3s0.5-2.1,1.4-2.8c1-0.7,2.1-1,3.6-1c1.4,0,2.8,0.2,4.1,0.7V265H185.6z M185.6,268.1
		c-1.3-0.4-2.5-0.6-3.4-0.6c-1,0-1.8,0.2-2.4,0.5c-0.6,0.4-0.9,0.9-0.9,1.7c0,1.7,0.9,2.5,2.8,2.5c1.1,0,2-0.4,2.8-1.2
		C185.2,270.3,185.6,269.3,185.6,268.1z"/>
	<path d="M205,262.2c-2.1,0-3.2,1.6-3.2,4.9v6.5h-2.2v-13.3h2.2v2.6c0.7-1.8,1.8-2.8,3.5-2.8c0.5,0,1,0.1,1.5,0.2l-0.1,2.1
		C206.1,262.3,205.5,262.2,205,262.2z"/>
	<path d="M214.7,272.2c1.8,0,2.9-0.8,3.1-2.4h2.2c-0.2,1.3-0.8,2.4-1.8,3.1s-2.2,1.1-3.6,1.1c-1.8,0-3.2-0.6-4.3-1.9s-1.7-3-1.7-5.1
		s0.6-3.8,1.7-5.1c1.1-1.3,2.6-1.9,4.5-1.9s3.2,0.7,4.2,2.2c0.9,1.4,1.2,3.2,1,5.3h-9.1c0,1.4,0.3,2.5,1,3.4
		S213.5,272.2,214.7,272.2z M216.3,262.1c-0.4-0.2-0.9-0.3-1.6-0.3c-1.1,0-2,0.4-2.7,1.2s-1,1.7-1.2,2.9h7.1
		C218,264,217.4,262.7,216.3,262.1z"/>
	<path d="M224.4,254.7h2.2v18.9h-2.2V254.7z"/>
	<path d="M240.4,265c0-1.2-0.2-2.1-0.7-2.6s-1.2-0.8-2.2-0.8s-1.7,0.2-2.3,0.6s-0.9,1-0.9,1.8h-2.4c0-2,1.1-3.3,3.3-3.8
		c0.7-0.1,1.4-0.2,2.2-0.2c1.6,0,2.9,0.4,3.9,1.2c0.9,0.8,1.4,2.1,1.4,3.8v8.5h-1.9l-0.2-2.2c-0.8,1.7-2.3,2.5-4.4,2.5
		c-1.4,0-2.6-0.4-3.4-1.2c-0.9-0.8-1.3-1.8-1.3-3s0.5-2.1,1.4-2.8c1-0.7,2.1-1,3.6-1c1.4,0,2.8,0.2,4.1,0.7V265H240.4z M240.4,268.1
		c-1.3-0.4-2.5-0.6-3.4-0.6c-1,0-1.8,0.2-2.4,0.5c-0.6,0.4-0.9,0.9-0.9,1.7c0,1.7,0.9,2.5,2.8,2.5c1.1,0,2-0.4,2.8-1.2
		C240,270.3,240.4,269.3,240.4,268.1z"/>
	<path d="M254.7,273.2c-1.6,0.7-3,0.9-4.4,0.5c-0.9-0.3-1.6-0.9-2-1.9c-0.2-0.5-0.3-1-0.3-1.7V262h-2.1v-1.7h2.1v-3.7h2.2v3.7h4.2
		v1.7h-4.2v8.1c0,1.4,0.6,2,1.9,2c0.7,0,1.5-0.2,2.3-0.5L254.7,273.2z"/>
	<path d="M259.4,257.2c-0.4,0-0.8-0.1-1-0.4c-0.2-0.2-0.4-0.6-0.4-1s0.1-0.7,0.4-1c0.2-0.2,0.6-0.4,1-0.4s0.8,0.1,1.1,0.4
		c0.3,0.2,0.4,0.6,0.4,1s-0.1,0.7-0.4,1S259.8,257.2,259.4,257.2z M258.3,260.3h2.2v13.3h-2.2V260.3z"/>
	<path d="M266.6,260.4l4,11l4-11h2.5l-5.3,13.3h-2.4l-5.3-13.3H266.6z"/>
	<path d="M285,272.2c1.8,0,2.9-0.8,3.1-2.4h2.2c-0.2,1.3-0.8,2.4-1.8,3.1s-2.2,1.1-3.6,1.1c-1.8,0-3.2-0.6-4.3-1.9
		c-1.1-1.3-1.7-3-1.7-5.1s0.6-3.8,1.7-5.1c1.1-1.3,2.6-1.9,4.5-1.9s3.2,0.7,4.2,2.2c0.9,1.4,1.2,3.2,1,5.3h-9.1c0,1.4,0.3,2.5,1,3.4
		S283.8,272.2,285,272.2z M286.6,262.1c-0.4-0.2-0.9-0.3-1.6-0.3c-1.1,0-2,0.4-2.7,1.2s-1,1.7-1.2,2.9h7.1
		C288.3,264,287.7,262.7,286.6,262.1z"/>
	<path d="M301.3,260.4l3.2,10.6l3.2-9.9h1.8l3.1,10l3.2-10.7h2.2l-4.3,13.3h-2.1l-3.1-9.3l-3,9.3h-2.1l-4.4-13.3H301.3z"/>
	<path d="M326,272.2c1.8,0,2.9-0.8,3.1-2.4h2.2c-0.2,1.3-0.8,2.4-1.8,3.1s-2.2,1.1-3.6,1.1c-1.8,0-3.2-0.6-4.3-1.9
		c-1.1-1.3-1.7-3-1.7-5.1s0.6-3.8,1.7-5.1c1.1-1.3,2.6-1.9,4.5-1.9s3.2,0.7,4.2,2.2c0.9,1.4,1.2,3.2,1,5.3h-9.1c0,1.4,0.3,2.5,1,3.4
		S324.8,272.2,326,272.2z M327.6,262.1c-0.4-0.2-0.9-0.3-1.6-0.3c-1.1,0-2,0.4-2.7,1.2s-1,1.7-1.2,2.9h7.1
		C329.3,264,328.8,262.7,327.6,262.1z"/>
	<path d="M337,257.2c-0.4,0-0.8-0.1-1-0.4c-0.2-0.2-0.4-0.6-0.4-1s0.1-0.7,0.4-1c0.2-0.2,0.6-0.4,1-0.4s0.8,0.1,1.1,0.4
		c0.3,0.2,0.4,0.6,0.4,1s-0.1,0.7-0.4,1C337.8,257.1,337.4,257.2,337,257.2z M335.9,260.3h2.2v13.3h-2.2V260.3z"/>
	<path d="M344.6,273.2c-1.1-0.5-1.7-1.4-1.7-2.5c0-0.6,0.2-1.1,0.7-1.5c0.4-0.4,1-0.7,1.6-0.9c-1-0.9-1.5-2.1-1.5-3.5
		s0.5-2.6,1.5-3.5s2.2-1.3,3.6-1.3s2.6,0.3,3.6,1c0.1-1,0.5-1.8,1.2-2.4s1.5-0.9,2.6-0.9L356,260c-1.6,0-2.5,0.7-2.6,2.1
		c0.6,0.8,1,1.7,1,2.9c0,1.4-0.5,2.6-1.5,3.5s-2.3,1.4-3.8,1.4c-1.1,0-2-0.2-2.8-0.6c-0.4,0.1-0.7,0.2-1,0.5s-0.4,0.6-0.4,1.1
		c0,1,0.8,1.5,2.4,1.5h5.2c1.2,0,2.2,0.3,2.9,0.8s1.1,1.3,1.1,2.2c0,1.4-0.7,2.6-2.1,3.7s-3.2,1.6-5.4,1.6s-3.9-0.4-5.1-1.2
		c-1.2-0.8-1.9-1.8-1.9-3c0-0.8,0.2-1.4,0.7-1.9C343.2,273.8,343.8,273.4,344.6,273.2z M344.2,276.1c0,0.7,0.4,1.3,1.2,1.8
		c0.8,0.5,1.9,0.8,3.5,0.8s2.9-0.3,3.9-1s1.6-1.5,1.6-2.4c0-0.4-0.2-0.8-0.5-1.1c-0.3-0.3-0.8-0.5-1.4-0.5h-5.4
		c-0.9,0-1.7,0.3-2.2,0.7C344.4,274.9,344.2,275.4,344.2,276.1z M352.3,264.9c0-1-0.3-1.7-0.9-2.3c-0.6-0.6-1.4-0.9-2.4-0.9
		s-1.8,0.3-2.4,0.9s-0.9,1.4-0.9,2.3s0.3,1.8,0.9,2.4s1.4,0.9,2.4,0.9s1.8-0.3,2.4-0.9C352,266.6,352.3,265.8,352.3,264.9z"/>
	<path d="M361.9,262.8c0.9-1.8,2.4-2.8,4.4-2.8c1.6,0,2.8,0.5,3.7,1.6c0.9,1,1.3,2.5,1.3,4.2v7.8h-2.2v-7.8c0-1.3-0.3-2.2-0.9-2.9
		c-0.6-0.6-1.5-1-2.6-1s-2,0.5-2.7,1.4c-0.7,1-1,2.3-1,4v6.3h-2.2v-18.9h2.2L361.9,262.8L361.9,262.8z"/>
	<path d="M383.4,273.2c-1.6,0.7-3,0.9-4.4,0.5c-0.9-0.3-1.6-0.9-2-1.9c-0.2-0.5-0.3-1-0.3-1.7V262h-2.1v-1.7h2.1v-3.7h2.2v3.7h4.2
		v1.7h-4.2v8.1c0,1.4,0.6,2,1.9,2c0.7,0,1.5-0.2,2.3-0.5L383.4,273.2z"/>
	<path d="M400.4,273.2c-1.6,0.7-3,0.9-4.4,0.5c-0.9-0.3-1.6-0.9-2-1.9c-0.2-0.5-0.3-1-0.3-1.7V262h-2.1v-1.7h2.1v-3.7h2.2v3.7h4.2
		v1.7H396v8.1c0,1.4,0.6,2,1.9,2c0.7,0,1.5-0.2,2.3-0.5L400.4,273.2z"/>
	<path d="M408.7,260c1.8,0,3.3,0.6,4.5,1.8c1.1,1.2,1.7,2.9,1.7,5.2c0,2.2-0.6,3.9-1.7,5.1s-2.6,1.8-4.5,1.8s-3.3-0.6-4.5-1.8
		c-1.1-1.2-1.7-2.9-1.7-5.1s0.6-4,1.7-5.2C405.4,260.6,406.9,260,408.7,260z M412.7,267c0-1.6-0.3-2.8-1-3.7s-1.6-1.3-2.9-1.3
		s-2.3,0.4-3,1.3s-1,2.1-1,3.7s0.3,2.8,1,3.7c0.6,0.9,1.6,1.3,2.9,1.3s2.3-0.4,3-1.3C412.3,269.8,412.7,268.6,412.7,267z"/>
	<path d="M430.3,272.2c1.8,0,2.9-0.8,3.1-2.4h2.2c-0.2,1.3-0.8,2.4-1.8,3.1s-2.2,1.1-3.6,1.1c-1.8,0-3.2-0.6-4.3-1.9
		c-1.1-1.3-1.7-3-1.7-5.1s0.6-3.8,1.7-5.1c1.1-1.3,2.6-1.9,4.5-1.9s3.2,0.7,4.2,2.2c0.9,1.4,1.2,3.2,1,5.3h-9.1c0,1.4,0.3,2.5,1,3.4
		S429.1,272.2,430.3,272.2z M431.9,262.1c-0.4-0.2-0.9-0.3-1.6-0.3c-1.1,0-2,0.4-2.7,1.2s-1,1.7-1.2,2.9h7.1
		C433.6,264,433,262.7,431.9,262.1z"/>
	<path d="M448.2,265c0-1.2-0.2-2.1-0.7-2.6s-1.2-0.8-2.2-0.8s-1.7,0.2-2.3,0.6c-0.6,0.4-0.9,1-0.9,1.8h-2.4c0-2,1.1-3.3,3.3-3.8
		c0.7-0.1,1.4-0.2,2.2-0.2c1.6,0,2.9,0.4,3.9,1.2c0.9,0.8,1.4,2.1,1.4,3.8v8.5h-1.9l-0.2-2.2c-0.8,1.7-2.3,2.5-4.4,2.5
		c-1.4,0-2.6-0.4-3.4-1.2c-0.9-0.8-1.3-1.8-1.3-3s0.5-2.1,1.4-2.8c1-0.7,2.1-1,3.6-1c1.4,0,2.8,0.2,4.1,0.7V265H448.2z M448.2,268.1
		c-1.3-0.4-2.5-0.6-3.4-0.6c-1,0-1.8,0.2-2.4,0.5c-0.6,0.4-0.9,0.9-0.9,1.7c0,1.7,0.9,2.5,2.8,2.5c1.1,0,2-0.4,2.8-1.2
		C447.8,270.3,448.2,269.3,448.2,268.1z"/>
	<path d="M460,260c1.6,0,2.8,0.4,3.7,1.2c0.9,0.8,1.5,1.8,1.8,3l-2.2,0.2c-0.2-0.8-0.6-1.4-1.2-1.8c-0.5-0.4-1.1-0.7-1.8-0.7
		c-1.2,0-2.1,0.4-2.9,1.3c-0.7,0.9-1.1,2.1-1.1,3.6s0.4,2.8,1.1,3.7c0.7,0.9,1.6,1.4,2.7,1.4s1.9-0.2,2.4-0.7s0.8-1.2,0.8-2.1h2.2
		c0,1.4-0.5,2.6-1.5,3.5s-2.3,1.3-3.9,1.3c-1.7,0-3.1-0.6-4.3-1.9c-1.2-1.3-1.8-3-1.8-5.1s0.6-3.8,1.7-5
		C457,260.7,458.4,260,460,260z"/>
	<path d="M472,262.8c0.9-1.8,2.4-2.8,4.4-2.8c1.6,0,2.8,0.5,3.7,1.6c0.9,1,1.3,2.5,1.3,4.2v7.8h-2.2v-7.8c0-1.3-0.3-2.2-0.9-2.9
		c-0.6-0.6-1.5-1-2.6-1s-2,0.5-2.7,1.4c-0.7,1-1,2.3-1,4v6.3h-2.2v-18.9h2.2L472,262.8L472,262.8z"/>
	<path d="M498,260c1.8,0,3.3,0.6,4.5,1.8c1.1,1.2,1.7,2.9,1.7,5.2c0,2.2-0.6,3.9-1.7,5.1s-2.6,1.8-4.5,1.8s-3.3-0.6-4.5-1.8
		c-1.1-1.2-1.7-2.9-1.7-5.1s0.6-4,1.7-5.2C494.6,260.6,496.1,260,498,260z M501.9,267c0-1.6-0.3-2.8-1-3.7s-1.6-1.3-2.9-1.3
		s-2.3,0.4-3,1.3s-1,2.1-1,3.7s0.3,2.8,1,3.7c0.6,0.9,1.6,1.3,2.9,1.3s2.3-0.4,3-1.3C501.6,269.8,501.9,268.6,501.9,267z"/>
	<path d="M510.5,262.9c0.9-1.9,2.4-2.9,4.5-2.9c1.6,0,2.8,0.5,3.7,1.6c0.9,1,1.3,2.5,1.3,4.2v7.8h-2.2v-7.8c0-1.3-0.3-2.2-0.9-2.9
		c-0.6-0.6-1.5-1-2.6-1s-2,0.5-2.7,1.4s-1,2.2-1.1,3.8v6.5h-2.2v-13.3h1.9L510.5,262.9z"/>
	<path d="M529.7,272.2c1.8,0,2.9-0.8,3.1-2.4h2.2c-0.2,1.3-0.8,2.4-1.8,3.1s-2.2,1.1-3.6,1.1c-1.8,0-3.2-0.6-4.3-1.9s-1.7-3-1.7-5.1
		s0.6-3.8,1.7-5.1c1.1-1.3,2.6-1.9,4.5-1.9s3.2,0.7,4.2,2.2c0.9,1.4,1.2,3.2,1,5.3h-9.1c0,1.4,0.3,2.5,1,3.4
		S528.5,272.2,529.7,272.2z M531.3,262.1c-0.4-0.2-0.9-0.3-1.6-0.3c-1.1,0-2,0.4-2.7,1.2s-1,1.7-1.2,2.9h7.1
		C533,264,532.4,262.7,531.3,262.1z"/>
	<path d="M539,273.9c-0.5,0-0.9-0.2-1.2-0.5s-0.5-0.7-0.5-1.1s0.2-0.8,0.5-1.1c0.3-0.3,0.7-0.5,1.2-0.5s0.9,0.2,1.2,0.5
		s0.5,0.7,0.5,1.1s-0.2,0.8-0.5,1.1S539.5,273.9,539,273.9z"/>
	<path d="M560.2,260.4c-0.3-1.7-1.6-2.6-3.7-2.6c-1.2,0-2.1,0.3-2.7,0.8c-0.6,0.5-0.9,1.1-0.9,1.8s0.2,1.3,0.6,1.6
		c0.4,0.4,1,0.7,1.9,1l3.6,1.2c1.2,0.4,2.2,1,3,1.7c0.7,0.7,1.1,1.8,1.1,3.1c0,1.3-0.6,2.5-1.7,3.4c-1.1,0.9-2.7,1.4-4.6,1.4
		s-3.5-0.5-4.7-1.5s-1.9-2.3-1.9-4.1h2.1c0,1.1,0.4,2,1.2,2.6s1.8,0.9,3.1,0.9s2.3-0.3,3-0.8c0.7-0.6,1.1-1.2,1.1-2
		s-0.2-1.4-0.7-1.8s-1.1-0.8-2-1.1l-3.1-1.1c-1.4-0.5-2.5-1.1-3.3-1.7c-0.7-0.7-1.1-1.6-1.1-2.9s0.5-2.4,1.6-3.2s2.5-1.3,4.4-1.3
		s3.3,0.4,4.3,1.2s1.6,1.9,1.7,3.3h-2.3V260.4z"/>
	<path d="M572.2,260c1.6,0,2.8,0.4,3.7,1.2c0.9,0.8,1.5,1.8,1.8,3l-2.2,0.2c-0.2-0.8-0.6-1.4-1.2-1.8c-0.5-0.4-1.1-0.7-1.8-0.7
		c-1.2,0-2.1,0.4-2.9,1.3c-0.7,0.9-1.1,2.1-1.1,3.6s0.4,2.8,1.1,3.7c0.7,0.9,1.6,1.4,2.7,1.4c1.1,0,1.9-0.2,2.4-0.7s0.8-1.2,0.8-2.1
		h2.2c0,1.4-0.5,2.6-1.5,3.5s-2.3,1.3-3.9,1.3c-1.7,0-3.1-0.6-4.3-1.9s-1.8-3-1.8-5.1s0.6-3.8,1.7-5
		C569.2,260.7,570.6,260,572.2,260z"/>
	<path d="M586.8,260c1.8,0,3.3,0.6,4.5,1.8c1.1,1.2,1.7,2.9,1.7,5.2c0,2.2-0.6,3.9-1.7,5.1c-1.1,1.2-2.6,1.8-4.5,1.8
		s-3.3-0.6-4.5-1.8c-1.1-1.2-1.7-2.9-1.7-5.1s0.6-4,1.7-5.2C583.5,260.6,584.9,260,586.8,260z M590.8,267c0-1.6-0.3-2.8-1-3.7
		s-1.6-1.3-2.9-1.3c-1.3,0-2.3,0.4-3,1.3s-1,2.1-1,3.7s0.3,2.8,1,3.7c0.6,0.9,1.6,1.3,2.9,1.3c1.3,0,2.3-0.4,3-1.3
		C590.4,269.8,590.8,268.6,590.8,267z"/>
	<path d="M602.6,262.2c-2.1,0-3.2,1.6-3.2,4.9v6.5h-2.2v-13.3h2.2v2.6c0.7-1.8,1.8-2.8,3.5-2.8c0.5,0,1,0.1,1.5,0.2l-0.1,2.1
		C603.7,262.3,603.2,262.2,602.6,262.2z"/>
	<path d="M612.3,272.2c1.8,0,2.9-0.8,3.1-2.4h2.2c-0.2,1.3-0.8,2.4-1.8,3.1s-2.2,1.1-3.6,1.1c-1.8,0-3.2-0.6-4.3-1.9s-1.7-3-1.7-5.1
		s0.6-3.8,1.7-5.1c1.1-1.3,2.6-1.9,4.5-1.9s3.2,0.7,4.2,2.2c0.9,1.4,1.2,3.2,1,5.3h-9.1c0,1.4,0.3,2.5,1,3.4
		S611.1,272.2,612.3,272.2z M613.9,262.1c-0.4-0.2-0.9-0.3-1.6-0.3c-1.1,0-2,0.4-2.7,1.2s-1,1.7-1.2,2.9h7.1
		C615.6,264,615.1,262.7,613.9,262.1z"/>
	<path d="M633.2,272.2c1.8,0,2.9-0.8,3.1-2.4h2.2c-0.2,1.3-0.8,2.4-1.8,3.1s-2.2,1.1-3.6,1.1c-1.8,0-3.2-0.6-4.3-1.9s-1.7-3-1.7-5.1
		s0.6-3.8,1.7-5.1c1.1-1.3,2.6-1.9,4.5-1.9s3.2,0.7,4.2,2.2c0.9,1.4,1.2,3.2,1,5.3h-9.1c0,1.4,0.3,2.5,1,3.4S632,272.2,633.2,272.2z
		 M634.8,262.1c-0.4-0.2-0.9-0.3-1.6-0.3c-1.1,0-2,0.4-2.7,1.2s-1,1.7-1.2,2.9h7.1C636.5,264,636,262.7,634.8,262.1z"/>
	<path d="M651.2,265c0-1.2-0.2-2.1-0.7-2.6s-1.2-0.8-2.2-0.8s-1.7,0.2-2.3,0.6s-0.9,1-0.9,1.8h-2.4c0-2,1.1-3.3,3.3-3.8
		c0.7-0.1,1.4-0.2,2.2-0.2c1.6,0,2.9,0.4,3.9,1.2c0.9,0.8,1.4,2.1,1.4,3.8v8.5h-1.9l-0.2-2.2c-0.8,1.7-2.3,2.5-4.4,2.5
		c-1.4,0-2.6-0.4-3.4-1.2c-0.9-0.8-1.3-1.8-1.3-3s0.5-2.1,1.4-2.8c1-0.7,2.1-1,3.6-1c1.4,0,2.8,0.2,4.1,0.7V265H651.2z M651.2,268.1
		c-1.3-0.4-2.5-0.6-3.4-0.6c-1,0-1.8,0.2-2.4,0.5c-0.6,0.4-0.9,0.9-0.9,1.7c0,1.7,0.9,2.5,2.8,2.5c1.1,0,2-0.4,2.8-1.2
		C650.8,270.3,651.2,269.3,651.2,268.1z"/>
	<path d="M662.9,260c1.6,0,2.8,0.4,3.7,1.2c0.9,0.8,1.5,1.8,1.8,3l-2.2,0.2c-0.2-0.8-0.6-1.4-1.2-1.8c-0.5-0.4-1.1-0.7-1.8-0.7
		c-1.2,0-2.1,0.4-2.9,1.3c-0.7,0.9-1.1,2.1-1.1,3.6s0.4,2.8,1.1,3.7c0.7,0.9,1.6,1.4,2.7,1.4c1.1,0,1.9-0.2,2.4-0.7s0.8-1.2,0.8-2.1
		h2.2c0,1.4-0.5,2.6-1.5,3.5s-2.3,1.3-3.9,1.3c-1.7,0-3.1-0.6-4.3-1.9s-1.8-3-1.8-5.1s0.6-3.8,1.7-5C660,260.7,661.3,260,662.9,260z
		"/>
	<path d="M675,262.8c0.9-1.8,2.4-2.8,4.4-2.8c1.6,0,2.8,0.5,3.7,1.6s1.3,2.5,1.3,4.2v7.8h-2.2v-7.8c0-1.3-0.3-2.2-0.9-2.9
		c-0.6-0.6-1.5-1-2.6-1s-2,0.5-2.7,1.4c-0.7,1-1,2.3-1,4v6.3h-2.2v-18.9h2.2V262.8z"/>
	<path d="M88.6,293.3c1.6,0,2.8,0.4,3.7,1.2c0.9,0.8,1.5,1.8,1.8,3l-2.2,0.2c-0.2-0.8-0.6-1.4-1.2-1.8c-0.5-0.4-1.1-0.7-1.8-0.7
		c-1.2,0-2.1,0.4-2.9,1.3c-0.7,0.9-1.1,2.1-1.1,3.6s0.4,2.8,1.1,3.7c0.7,0.9,1.6,1.4,2.7,1.4s1.9-0.2,2.4-0.7s0.8-1.2,0.8-2.1h2.2
		c0,1.4-0.5,2.6-1.5,3.5s-2.3,1.3-3.9,1.3c-1.7,0-3.1-0.6-4.3-1.9c-1.2-1.3-1.8-3-1.8-5.1s0.6-3.8,1.7-5
		C85.7,294,87,293.3,88.6,293.3z"/>
	<path d="M106.7,298.3c0-1.2-0.2-2.1-0.7-2.6s-1.2-0.8-2.2-0.8s-1.7,0.2-2.3,0.6c-0.6,0.4-0.9,1-0.9,1.8h-2.4c0-2,1.1-3.3,3.3-3.8
		c0.7-0.1,1.4-0.2,2.2-0.2c1.6,0,2.9,0.4,3.9,1.2c0.9,0.8,1.4,2.1,1.4,3.8v8.5h-2l-0.2-2.2c-0.8,1.7-2.3,2.5-4.4,2.5
		c-1.4,0-2.6-0.4-3.4-1.2c-0.9-0.8-1.3-1.8-1.3-3s0.5-2.1,1.4-2.8c1-0.7,2.1-1,3.6-1c1.4,0,2.8,0.2,4.1,0.7L106.7,298.3L106.7,298.3
		z M106.7,301.4c-1.3-0.4-2.5-0.6-3.4-0.6c-1,0-1.8,0.2-2.4,0.5c-0.6,0.4-0.9,0.9-0.9,1.7c0,1.7,0.9,2.5,2.8,2.5
		c1.1,0,2-0.4,2.8-1.2C106.3,303.6,106.7,302.6,106.7,301.4z"/>
	<path d="M116.1,296.2c0.9-1.9,2.4-2.9,4.5-2.9c1.6,0,2.8,0.5,3.7,1.6c0.9,1,1.3,2.5,1.3,4.2v7.8h-2.2v-7.8c0-1.3-0.3-2.2-0.9-2.9
		c-0.6-0.6-1.5-1-2.6-1s-2,0.5-2.7,1.4s-1,2.2-1.1,3.8v6.5H114v-13.3h1.9L116.1,296.2z"/>
	<path d="M139.4,295.6V288h2.2v18.9h-1.8l-0.3-2.2c-0.4,0.8-1,1.5-1.7,1.9s-1.5,0.6-2.3,0.6c-1.7,0-3.1-0.6-4.2-1.9
		c-1.1-1.3-1.7-3-1.7-5.1s0.6-3.8,1.7-5c1.1-1.3,2.5-1.9,4.2-1.9S138.5,294.1,139.4,295.6z M135.6,295.3c-1.1,0-2,0.5-2.7,1.4
		s-1.1,2.1-1.1,3.6s0.4,2.7,1.1,3.6c0.7,0.9,1.6,1.4,2.7,1.4s1.9-0.3,2.7-1c0.7-0.7,1.1-1.6,1.2-2.8v-2.2c0-1.2-0.4-2.2-1.1-2.9
		C137.6,295.6,136.7,295.3,135.6,295.3z"/>
	<path d="M148.4,290.5c-0.4,0-0.8-0.1-1-0.4c-0.2-0.2-0.4-0.6-0.4-1s0.1-0.7,0.4-1c0.2-0.2,0.6-0.4,1-0.4s0.8,0.1,1.1,0.4
		c0.3,0.2,0.4,0.6,0.4,1s-0.1,0.8-0.4,1C149.2,290.4,148.9,290.5,148.4,290.5z M147.4,293.6h2.2v13.3h-2.2V293.6z"/>
	<path d="M164.2,295.6V288h2.2v18.9h-1.8l-0.3-2.2c-0.4,0.8-1,1.5-1.7,1.9s-1.5,0.6-2.3,0.6c-1.7,0-3.1-0.6-4.2-1.9
		c-1.1-1.3-1.7-3-1.7-5.1s0.6-3.8,1.7-5c1.1-1.3,2.5-1.9,4.2-1.9S163.3,294.1,164.2,295.6z M160.4,295.3c-1.1,0-2,0.5-2.7,1.4
		s-1.1,2.1-1.1,3.6s0.4,2.7,1.1,3.6c0.7,0.9,1.6,1.4,2.7,1.4s1.9-0.3,2.7-1c0.7-0.7,1.1-1.6,1.2-2.8v-2.2c0-1.2-0.4-2.2-1.1-2.9
		C162.4,295.6,161.5,295.3,160.4,295.3z"/>
	<path d="M180.2,298.3c0-1.2-0.2-2.1-0.7-2.6s-1.2-0.8-2.2-0.8s-1.7,0.2-2.3,0.6s-0.9,1-0.9,1.8h-2.4c0-2,1.1-3.3,3.3-3.8
		c0.7-0.1,1.4-0.2,2.2-0.2c1.6,0,2.9,0.4,3.9,1.2c0.9,0.8,1.4,2.1,1.4,3.8v8.5h-1.9l-0.2-2.2c-0.8,1.7-2.3,2.5-4.4,2.5
		c-1.4,0-2.6-0.4-3.4-1.2c-0.9-0.8-1.3-1.8-1.3-3s0.5-2.1,1.4-2.8c1-0.7,2.1-1,3.6-1c1.4,0,2.8,0.2,4.1,0.7v-1.5H180.2z
		 M180.2,301.4c-1.3-0.4-2.5-0.6-3.4-0.6c-1,0-1.8,0.2-2.4,0.5c-0.6,0.4-0.9,0.9-0.9,1.7c0,1.7,0.9,2.5,2.8,2.5c1.1,0,2-0.4,2.8-1.2
		C179.8,303.6,180.2,302.6,180.2,301.4z"/>
	<path d="M194.5,306.5c-1.6,0.7-3,0.9-4.4,0.5c-0.9-0.3-1.6-0.9-2-1.9c-0.2-0.5-0.3-1-0.3-1.7v-8.2h-2.1v-1.7h2.1V290h2.2v3.7h4.2
		v1.7H190v8.1c0,1.4,0.6,2,1.9,2c0.7,0,1.5-0.2,2.3-0.5L194.5,306.5z"/>
	<path d="M202.6,305.5c1.8,0,2.9-0.8,3.1-2.4h2.2c-0.2,1.3-0.8,2.4-1.8,3.1s-2.2,1.1-3.6,1.1c-1.8,0-3.2-0.6-4.3-1.9s-1.7-3-1.7-5.1
		s0.6-3.8,1.7-5.1c1.1-1.3,2.6-1.9,4.5-1.9s3.2,0.7,4.2,2.2c0.9,1.4,1.2,3.2,1,5.3h-9.1c0,1.4,0.3,2.5,1,3.4
		S201.4,305.5,202.6,305.5z M204.2,295.4c-0.4-0.2-0.9-0.3-1.6-0.3c-1.1,0-2,0.4-2.7,1.2s-1,1.7-1.2,2.9h7.1
		C205.9,297.3,205.3,296,204.2,295.4z"/>
	<path d="M227.1,298.3c0-1.2-0.2-2.1-0.7-2.6s-1.2-0.8-2.2-0.8s-1.7,0.2-2.3,0.6s-0.9,1-0.9,1.8h-2.4c0-2,1.1-3.3,3.3-3.8
		c0.7-0.1,1.4-0.2,2.2-0.2c1.6,0,2.9,0.4,3.9,1.2c0.9,0.8,1.4,2.1,1.4,3.8v8.5h-1.9l-0.2-2.2c-0.8,1.7-2.3,2.5-4.4,2.5
		c-1.4,0-2.6-0.4-3.4-1.2c-0.9-0.8-1.3-1.8-1.3-3s0.5-2.1,1.4-2.8c1-0.7,2.1-1,3.6-1c1.4,0,2.8,0.2,4.1,0.7v-1.5H227.1z
		 M227.1,301.4c-1.3-0.4-2.5-0.6-3.4-0.6c-1,0-1.8,0.2-2.4,0.5c-0.6,0.4-0.9,0.9-0.9,1.7c0,1.7,0.9,2.5,2.8,2.5c1.1,0,2-0.4,2.8-1.2
		C226.7,303.6,227.1,302.6,227.1,301.4z"/>
	<path d="M236.5,296.2c0.9-1.9,2.4-2.9,4.5-2.9c1.6,0,2.8,0.5,3.7,1.6c0.9,1,1.3,2.5,1.3,4.2v7.8h-2.2v-7.8c0-1.3-0.3-2.2-0.9-2.9
		c-0.6-0.6-1.5-1-2.6-1s-2,0.5-2.7,1.4s-1,2.2-1.1,3.8v6.5h-2.2v-13.3h1.9L236.5,296.2z"/>
	<path d="M259.8,295.6V288h2.2v18.9h-1.8l-0.3-2.2c-0.4,0.8-1,1.5-1.7,1.9s-1.5,0.6-2.3,0.6c-1.7,0-3.1-0.6-4.2-1.9
		c-1.1-1.3-1.7-3-1.7-5.1s0.6-3.8,1.7-5c1.1-1.3,2.5-1.9,4.2-1.9S258.9,294.1,259.8,295.6z M256.1,295.3c-1.1,0-2,0.5-2.7,1.4
		s-1.1,2.1-1.1,3.6s0.4,2.7,1.1,3.6c0.7,0.9,1.6,1.4,2.7,1.4c1.1,0,1.9-0.3,2.7-1c0.7-0.7,1.1-1.6,1.2-2.8v-2.2
		c0-1.2-0.4-2.2-1.1-2.9C258,295.6,257.1,295.3,256.1,295.3z"/>
	<path d="M274.2,288h2.2v18.9h-2.2V288z"/>
	<path d="M286.6,305.5c1.8,0,2.9-0.8,3.1-2.4h2.2c-0.2,1.3-0.8,2.4-1.8,3.1s-2.2,1.1-3.6,1.1c-1.8,0-3.2-0.6-4.3-1.9
		c-1.1-1.3-1.7-3-1.7-5.1s0.6-3.8,1.7-5.1c1.1-1.3,2.6-1.9,4.5-1.9s3.2,0.7,4.2,2.2c0.9,1.4,1.2,3.2,1,5.3h-9.1c0,1.4,0.3,2.5,1,3.4
		S285.4,305.5,286.6,305.5z M288.2,295.4c-0.4-0.2-0.9-0.3-1.6-0.3c-1.1,0-2,0.4-2.7,1.2s-1,1.7-1.2,2.9h7.1
		C289.9,297.3,289.3,296,288.2,295.4z"/>
	<path d="M303.2,306.5c-1.6,0.7-3,0.9-4.4,0.5c-0.9-0.3-1.6-0.9-2-1.9c-0.2-0.5-0.3-1-0.3-1.7v-8.2h-2.1v-1.7h2.1V290h2.2v3.7h4.2
		v1.7h-4.2v8.1c0,1.4,0.6,2,1.9,2c0.7,0,1.5-0.2,2.3-0.5L303.2,306.5z"/>
	<path d="M320.3,306.5c-1.6,0.7-3,0.9-4.4,0.5c-0.9-0.3-1.6-0.9-2-1.9c-0.2-0.5-0.3-1-0.3-1.7v-8.2h-2.1v-1.7h2.1V290h2.2v3.7h4.2
		v1.7h-4.2v8.1c0,1.4,0.6,2,1.9,2c0.7,0,1.5-0.2,2.3-0.5L320.3,306.5z"/>
	<path d="M326,296.1c0.9-1.8,2.4-2.8,4.4-2.8c1.6,0,2.8,0.5,3.7,1.6c0.9,1,1.3,2.5,1.3,4.2v7.8h-2.2v-7.8c0-1.3-0.3-2.2-0.9-2.9
		c-0.6-0.6-1.5-1-2.6-1s-2,0.5-2.7,1.4c-0.7,1-1,2.3-1,4v6.3h-2.2V288h2.2L326,296.1L326,296.1z"/>
	<path d="M345.1,305.5c1.8,0,2.9-0.8,3.1-2.4h2.2c-0.2,1.3-0.8,2.4-1.8,3.1s-2.2,1.1-3.6,1.1c-1.8,0-3.2-0.6-4.3-1.9
		c-1.1-1.3-1.7-3-1.7-5.1s0.6-3.8,1.7-5.1c1.1-1.3,2.6-1.9,4.5-1.9s3.2,0.7,4.2,2.2c0.9,1.4,1.2,3.2,1,5.3h-9.1c0,1.4,0.3,2.5,1,3.4
		S343.9,305.5,345.1,305.5z M346.7,295.4c-0.4-0.2-0.9-0.3-1.6-0.3c-1.1,0-2,0.4-2.7,1.2s-1,1.7-1.2,2.9h7.1
		C348.4,297.3,347.9,296,346.7,295.4z"/>
	<path d="M363.5,296.2c0.9-1.9,2.4-2.9,4.5-2.9c1.1,0,2.1,0.3,2.9,0.8c0.8,0.6,1.3,1.3,1.7,2.3c0.8-2.1,2.4-3.2,4.6-3.2
		c1.6,0,2.8,0.5,3.7,1.6c0.9,1,1.3,2.5,1.3,4.2v7.8H380V299c0-1.3-0.3-2.2-0.9-2.9c-0.6-0.6-1.5-1-2.6-1s-2,0.5-2.6,1.4
		s-0.9,2.2-0.9,3.8v6.4h-2.2v-7.8c0-1.3-0.3-2.2-0.9-2.9c-0.6-0.6-1.5-1-2.6-1s-2,0.5-2.7,1.4s-1,2.2-1.1,3.8v6.5h-2.2v-13.3h1.9
		L363.5,296.2z"/>
	<path d="M395.6,298.3c0-1.2-0.2-2.1-0.7-2.6s-1.2-0.8-2.2-0.8s-1.7,0.2-2.3,0.6c-0.6,0.4-0.9,1-0.9,1.8h-2.4c0-2,1.1-3.3,3.3-3.8
		c0.7-0.1,1.4-0.2,2.2-0.2c1.6,0,2.9,0.4,3.9,1.2c0.9,0.8,1.4,2.1,1.4,3.8v8.5H396l-0.2-2.2c-0.8,1.7-2.3,2.5-4.4,2.5
		c-1.4,0-2.6-0.4-3.4-1.2c-0.9-0.8-1.3-1.8-1.3-3s0.5-2.1,1.4-2.8c1-0.7,2.1-1,3.6-1c1.4,0,2.8,0.2,4.1,0.7v-1.5H395.6z
		 M395.6,301.4c-1.3-0.4-2.5-0.6-3.4-0.6c-1,0-1.8,0.2-2.4,0.5c-0.6,0.4-0.9,0.9-0.9,1.7c0,1.7,0.9,2.5,2.8,2.5c1.1,0,2-0.4,2.8-1.2
		C395.2,303.6,395.6,302.6,395.6,301.4z"/>
	<path d="M409.9,306.5c-1.6,0.7-3,0.9-4.4,0.5c-0.9-0.3-1.6-0.9-2-1.9c-0.2-0.5-0.3-1-0.3-1.7v-8.2h-2.1v-1.7h2.1V290h2.2v3.7h4.2
		v1.7h-4.2v8.1c0,1.4,0.6,2,1.9,2c0.7,0,1.5-0.2,2.3-0.5L409.9,306.5z"/>
	<path d="M418.8,295.5c-2.1,0-3.2,1.6-3.2,4.9v6.5h-2.2v-13.3h2.2v2.6c0.7-1.8,1.8-2.8,3.5-2.8c0.5,0,1,0.1,1.5,0.2l-0.1,2.1
		C419.9,295.6,419.3,295.5,418.8,295.5z"/>
	<path d="M425.1,290.5c-0.4,0-0.8-0.1-1-0.4c-0.2-0.2-0.4-0.6-0.4-1s0.1-0.7,0.4-1c0.2-0.2,0.6-0.4,1-0.4s0.8,0.1,1.1,0.4
		c0.3,0.2,0.4,0.6,0.4,1s-0.1,0.8-0.4,1C426,290.4,425.6,290.5,425.1,290.5z M424.1,293.6h2.2v13.3h-2.2V293.6z"/>
	<path d="M442.9,306.9h-2.7l-3.8-5l-3.6,5h-2.7l5-6.6l-5-6.7h2.7l3.8,5l3.6-5h2.7l-5.1,6.7L442.9,306.9z"/>
	<path d="M459.5,289.9c-0.6-0.2-1.1-0.4-1.4-0.4c-0.6,0-1.2,0.2-1.5,0.5c-0.4,0.3-0.6,0.9-0.6,1.7v2h2.7v1.5H456V307h-2.2v-11.8
		h-2.2v-1.5h2.2v-2c0-1.3,0.4-2.3,1.1-2.9s1.6-0.9,2.5-0.9s1.8,0.1,2.5,0.4L459.5,289.9z"/>
	<path d="M463.8,290.5c-0.4,0-0.8-0.1-1-0.4c-0.2-0.2-0.4-0.6-0.4-1s0.1-0.7,0.4-1c0.2-0.2,0.6-0.4,1-0.4s0.8,0.1,1.1,0.4
		c0.3,0.2,0.4,0.6,0.4,1s-0.1,0.8-0.4,1C464.6,290.4,464.2,290.5,463.8,290.5z M462.7,293.6h2.2v13.3h-2.2V293.6z"/>
	<path d="M471.4,306.5c-1.1-0.5-1.7-1.4-1.7-2.5c0-0.6,0.2-1.1,0.7-1.5c0.4-0.4,1-0.7,1.6-0.9c-1-0.9-1.5-2.1-1.5-3.5
		s0.5-2.6,1.5-3.5s2.2-1.3,3.6-1.3s2.6,0.3,3.6,1c0.1-1,0.5-1.8,1.2-2.4s1.5-0.9,2.6-0.9l-0.2,2.2c-1.6,0-2.5,0.7-2.6,2.1
		c0.6,0.8,1,1.7,1,2.9c0,1.4-0.5,2.6-1.5,3.5s-2.3,1.4-3.8,1.4c-1.1,0-2-0.2-2.8-0.6c-0.4,0.1-0.7,0.2-1,0.5s-0.4,0.6-0.4,1.1
		c0,1,0.8,1.5,2.4,1.5h5.2c1.2,0,2.2,0.3,2.9,0.8s1.1,1.3,1.1,2.2c0,1.4-0.7,2.6-2.1,3.7s-3.2,1.6-5.4,1.6s-3.9-0.4-5.1-1.2
		c-1.2-0.8-1.9-1.8-1.9-3c0-0.8,0.2-1.4,0.7-1.9C470,307.1,470.6,306.7,471.4,306.5z M471,309.4c0,0.7,0.4,1.3,1.2,1.8
		c0.8,0.5,1.9,0.8,3.5,0.8s2.9-0.3,3.9-1s1.6-1.5,1.6-2.4c0-0.4-0.2-0.8-0.5-1.1c-0.3-0.3-0.8-0.5-1.4-0.5h-5.4
		c-0.9,0-1.7,0.3-2.2,0.7C471.2,308.2,471,308.7,471,309.4z M479.2,298.2c0-1-0.3-1.7-0.9-2.3c-0.6-0.6-1.4-0.9-2.4-0.9
		s-1.8,0.3-2.4,0.9s-0.9,1.4-0.9,2.3s0.3,1.8,0.9,2.4s1.4,0.9,2.4,0.9s1.8-0.3,2.4-0.9C478.9,299.9,479.2,299.1,479.2,298.2z"/>
	<path d="M495.6,304.3c-0.9,1.9-2.4,2.9-4.4,2.9c-1.5,0-2.7-0.4-3.6-1.2c-0.9-0.8-1.4-2.1-1.4-3.9v-8.4h2.2v8.3c0,2.2,1,3.4,3.1,3.4
		c1.2,0,2.2-0.5,2.9-1.4c0.7-0.9,1.1-2.1,1.2-3.6v-6.7h2.2V307h-2.2L495.6,304.3L495.6,304.3z"/>
	<path d="M508.8,295.5c-2.1,0-3.2,1.6-3.2,4.9v6.5h-2.2v-13.3h2.2v2.6c0.7-1.8,1.8-2.8,3.5-2.8c0.5,0,1,0.1,1.5,0.2l-0.1,2.1
		C509.9,295.6,509.3,295.5,508.8,295.5z"/>
	<path d="M518.5,305.5c1.8,0,2.9-0.8,3.1-2.4h2.2c-0.2,1.3-0.8,2.4-1.8,3.1s-2.2,1.1-3.6,1.1c-1.8,0-3.2-0.6-4.3-1.9s-1.7-3-1.7-5.1
		s0.6-3.8,1.7-5.1c1.1-1.3,2.6-1.9,4.5-1.9s3.2,0.7,4.2,2.2c0.9,1.4,1.2,3.2,1,5.3h-9.1c0,1.4,0.3,2.5,1,3.4
		S517.3,305.5,518.5,305.5z M520.1,295.4c-0.4-0.2-0.9-0.3-1.6-0.3c-1.1,0-2,0.4-2.7,1.2s-1,1.7-1.2,2.9h7.1
		C521.8,297.3,521.2,296,520.1,295.4z"/>
	<path d="M539.6,293.3c1.8,0,3.3,0.6,4.5,1.8c1.1,1.2,1.7,2.9,1.7,5.2c0,2.2-0.6,3.9-1.7,5.1c-1.1,1.2-2.6,1.8-4.5,1.8
		s-3.3-0.6-4.5-1.8c-1.1-1.2-1.7-2.9-1.7-5.1s0.6-4,1.7-5.2C536.3,293.9,537.7,293.3,539.6,293.3z M543.6,300.3c0-1.6-0.3-2.8-1-3.7
		s-1.6-1.3-2.9-1.3c-1.3,0-2.3,0.4-3,1.3s-1,2.1-1,3.7s0.3,2.8,1,3.7c0.6,0.9,1.6,1.3,2.9,1.3c1.3,0,2.3-0.4,3-1.3
		C543.2,303.1,543.6,301.9,543.6,300.3z"/>
	<path d="M559,304.3c-0.9,1.9-2.4,2.9-4.4,2.9c-1.5,0-2.7-0.4-3.6-1.2c-0.9-0.8-1.4-2.1-1.4-3.9v-8.4h2.2v8.3c0,2.2,1,3.4,3.1,3.4
		c1.2,0,2.2-0.5,2.9-1.4s1.1-2.1,1.2-3.6v-6.7h2.2V307H559V304.3z"/>
	<path d="M573.7,306.5c-1.6,0.7-3,0.9-4.4,0.5c-0.9-0.3-1.6-0.9-2-1.9c-0.2-0.5-0.3-1-0.3-1.7v-8.2h-2.1v-1.7h2.1V290h2.2v3.7h4.2
		v1.7h-4.2v8.1c0,1.4,0.6,2,1.9,2c0.7,0,1.5-0.2,2.3-0.5L573.7,306.5z"/>
	<path d="M590.8,306.5c-1.6,0.7-3,0.9-4.4,0.5c-0.9-0.3-1.6-0.9-2-1.9c-0.2-0.5-0.3-1-0.3-1.7v-8.2H582v-1.7h2.1V290h2.2v3.7h4.2
		v1.7h-4.2v8.1c0,1.4,0.6,2,1.9,2c0.7,0,1.5-0.2,2.3-0.5L590.8,306.5z"/>
	<path d="M596.5,296.1c0.9-1.8,2.4-2.8,4.4-2.8c1.6,0,2.8,0.5,3.7,1.6c0.9,1,1.3,2.5,1.3,4.2v7.8h-2.2v-7.8c0-1.3-0.3-2.2-0.9-2.9
		c-0.6-0.6-1.5-1-2.6-1s-2,0.5-2.7,1.4c-0.7,1-1,2.3-1,4v6.3h-2.2V288h2.2V296.1z"/>
	<path d="M615.6,305.5c1.8,0,2.9-0.8,3.1-2.4h2.2c-0.2,1.3-0.8,2.4-1.8,3.1s-2.2,1.1-3.6,1.1c-1.8,0-3.2-0.6-4.3-1.9s-1.7-3-1.7-5.1
		s0.6-3.8,1.7-5.1c1.1-1.3,2.6-1.9,4.5-1.9s3.2,0.7,4.2,2.2c0.9,1.4,1.2,3.2,1,5.3h-9.1c0,1.4,0.3,2.5,1,3.4
		S614.4,305.5,615.6,305.5z M617.2,295.4c-0.4-0.2-0.9-0.3-1.6-0.3c-1.1,0-2,0.4-2.7,1.2s-1,1.7-1.2,2.9h7.1
		C618.9,297.3,618.3,296,617.2,295.4z"/>
	<path d="M637.3,295.5c-2.1,0-3.2,1.6-3.2,4.9v6.5h-2.2v-13.3h2.2v2.6c0.7-1.8,1.8-2.8,3.5-2.8c0.5,0,1,0.1,1.5,0.2l-0.1,2.1
		C638.5,295.6,637.9,295.5,637.3,295.5z"/>
	<path d="M647.1,305.5c1.8,0,2.9-0.8,3.1-2.4h2.2c-0.2,1.3-0.8,2.4-1.8,3.1s-2.2,1.1-3.6,1.1c-1.8,0-3.2-0.6-4.3-1.9s-1.7-3-1.7-5.1
		s0.6-3.8,1.7-5.1c1.1-1.3,2.6-1.9,4.5-1.9s3.2,0.7,4.2,2.2c0.9,1.4,1.2,3.2,1,5.3h-9.1c0,1.4,0.3,2.5,1,3.4
		S645.9,305.5,647.1,305.5z M648.7,295.4c-0.4-0.2-0.9-0.3-1.6-0.3c-1.1,0-2,0.4-2.7,1.2s-1,1.7-1.2,2.9h7.1
		C650.4,297.3,649.8,296,648.7,295.4z"/>
	<path d="M657.5,294.3c0.9-0.6,2.2-1,3.8-1s2.8,0.3,3.7,1s1.4,1.5,1.4,2.5h-2.1c-0.2-1.2-1.2-1.8-3.1-1.8c-0.9,0-1.6,0.2-2.1,0.6
		s-0.7,0.8-0.7,1.3s0.2,0.9,0.6,1.2c0.4,0.3,1,0.6,1.8,0.8l2.7,0.9c1.1,0.4,2,0.8,2.6,1.3s0.9,1.3,0.9,2.2c0,1-0.5,1.8-1.5,2.6
		c-1,0.8-2.3,1.2-4.1,1.2s-3.1-0.4-4.1-1.2c-1-0.8-1.5-1.8-1.6-3h2.1c0,0.8,0.4,1.5,1,1.9s1.4,0.6,2.4,0.6s1.8-0.2,2.4-0.6
		c0.6-0.4,0.9-0.9,0.9-1.5s-0.2-1-0.6-1.3c-0.4-0.3-1-0.6-1.8-0.8l-2.6-0.9c-2.3-0.7-3.5-1.9-3.5-3.6
		C656.1,295.8,656.6,295,657.5,294.3z"/>
	<path d="M678.3,306.5c-1.6,0.7-3,0.9-4.4,0.5c-0.9-0.3-1.6-0.9-2-1.9c-0.2-0.5-0.3-1-0.3-1.7v-8.2h-2.1v-1.7h2.1V290h2.2v3.7h4.2
		v1.7h-4.2v8.1c0,1.4,0.6,2,1.9,2c0.7,0,1.5-0.2,2.3-0.5L678.3,306.5z"/>
	<path d="M682.9,307.2c-0.5,0-0.9-0.2-1.2-0.5s-0.5-0.7-0.5-1.1s0.2-0.8,0.5-1.1c0.3-0.3,0.7-0.5,1.2-0.5s0.9,0.2,1.2,0.5
		s0.5,0.7,0.5,1.1s-0.2,0.8-0.5,1.1C683.8,307,683.4,307.2,682.9,307.2z M681.8,289.5h2.3l-0.2,12.5H682L681.8,289.5z"/>
</g>
</svg>
